/* XPM */
static char *billan[] = {
/* columns rows colors chars-per-pixel */
"64 64 118 2 ",
"   c #020102",
".  c #020102",
"X  c #130404",
"o  c #1C0604",
"O  c #0C0D14",
"+  c #0D0E1D",
"@  c #140D13",
"#  c #1C0F14",
"$  c #110E1B",
"%  c #1C0F1B",
"&  c #1D1016",
"*  c #210605",
"=  c #240805",
"-  c #2B0906",
";  c #330C09",
":  c #220F14",
">  c #211016",
",  c #020102",
"<  c #24111F",
"1  c #351417",
"2  c #391416",
"3  c #391618",
"4  c #0F0F21",
"5  c #0A0C2A",
"6  c #100F21",
"7  c #140D29",
"8  c #1B0E29",
"9  c #161020",
"0  c #1C1020",
"q  c #241220",
"w  c #2C1321",
"e  c #261029",
"r  c #3C1520",
"t  c #371328",
"y  c #62130D",
"u  c #7F1912",
"i  c #80180F",
"p  c #831A12",
"a  c #B2271D",
"s  c #B5291F",
"d  c #B62920",
"f  c #BB2A21",
"g  c #CA2B1E",
"h  c #D22D1F",
"j  c #C52C20",
"k  c #CB2D21",
"l  c #D42E21",
"z  c #DA2F21",
"x  c #C13225",
"c  c #CA3629",
"v  c #CC3B2F",
"b  c #D53224",
"n  c #DD3022",
"m  c #D3372A",
"M  c #DD3729",
"N  c #D43A2E",
"B  c #DC3A2D",
"V  c #CD3D30",
"C  c #D53E32",
"Z  c #DB3D31",
"A  c #E33324",
"S  c #EA3323",
"D  c #E13728",
"F  c #E83728",
"G  c #E53A2B",
"H  c #EA3B2C",
"J  c #EB3F30",
"K  c #DD4235",
"L  c #E24235",
"P  c #EC4233",
"I  c #E0463A",
"U  c #EB4739",
"Y  c #EC4A3C",
"T  c #EC5042",
"R  c #EB5548",
"E  c #ED594D",
"W  c #DDB9B6",
"Q  c #E3BAB7",
"!  c #E6BDBA",
"~  c #E9BFBB",
"^  c #ECC2BF",
"/  c #D7C2C0",
"(  c #D6D6D6",
")  c #DCDCDC",
"_  c #E6C6C3",
"`  c #ECC4C1",
"'  c #E9CAC7",
"]  c #E6CECC",
"[  c #F4C9C5",
"{  c #F6CDC9",
"}  c #F9CFCB",
"|  c #E5D1CF",
" . c #ECD1CE",
".. c #E6D5D4",
"X. c #EBD5D3",
"o. c #E6D8D7",
"O. c #EAD8D7",
"+. c #E5DDDC",
"@. c #EADDDC",
"#. c #F3D5D2",
"$. c #F1D8D6",
"%. c #F9D8D5",
"&. c #F1DCDA",
"*. c #E1E0DF",
"=. c #EAE0DF",
"-. c #F3E0DF",
";. c #E4E4E4",
":. c #E9E5E5",
">. c #EBE8E7",
",. c #ECECEC",
"<. c #F8E7E5",
"1. c #F5E8E7",
"2. c #F8E8E6",
"3. c #F4EDED",
"4. c #F8EEED",
"5. c #F3F3F3",
"6. c #FBF6F5",
"7. c #FAFAFA",
/* pixels */
"                                                                                                                                ",
"                  ,  .,  .>  .,  .,  .,  .;  .,  .,  .,.7.;.7.>  .>  .>  .>  .,  .,  .,  .>    .,.,.,  .,  .,                   ",
"                   .,  .>  .,  .,  .,  .,  .,  .,  .;  .:.7.>  .>  .>  .,  .,  .,  .,.,.,  .>.,.,  .,.,  .,                     ",
"                  ,  .,  .,  .,  .,  .,  .,  .,  .,  .,.} Q } !  .>.7.>  .,  .,  .,  .,  .,      .,    .,  .,                   ",
"                   .,  .,  .,  .,  .,  .,  .,  .,  .>.[ f f f s s { ;  .,  .,.,.,  .,  .,  .,.,.,    .,  .,                     ",
"                  ,  .,  .,  .,  .,  .,  .,  .,.7.;.[ d + 4 4 O   s [ ,  .,  .,  .,  .,  .,  .,.,.,.,  .,  .,                   ",
"                   .,  .,  .,  .,  .,  .,  .,  .;.,.n O 4 5 4 O @   A 5.,  .,  .,  .,  .,  .,    .,  .,  .,                     ",
"                  ,.,.,  .>  .,  .,  .,  .>  .>.7.;.A O t t r @ 2   B ;  .,  .,  .,  .,  .,  .,.,  .,  .,.,.,                   ",
"                   .,  .,  .,  .,  .,  .>.7.>  .;.3.A @ f S g y s . A 3.,  .,  .,  .,.,.,  .,  .,  .,.,  .,.,                   ",
"                  ,  .,  .,  .,  .,  .>.7.:  .:.7.+.A O 7 f ; f @   A :  .,  .,  .,  .,  .,  .,  .,    .,  .,                   ",
"                   .,  .,  .,  .,  .,  .:  .>.7.;.3.A O 5 4 O O O   A 3.,  .:  .,  .,  .,  .,.,.,.,  .,  .,                     ",
"                  ,  .,.,.,  .,  .,  .>  .:.$._ %.! f + 5 4 O O O - A ^ #._ 5.,  .,  .,  .,    .,  .,  .,  .,                   ",
"                   .,  .,  .,  .,  .,  ._ [ j j j f O 4 5 5 + O - g j j j j ! #.,  .,  .,  .,.,  .,.,.,  .,                     ",
"                  ,  .,  .,  .,  .:.#.! g d + + + 4 5 5 5 4 O O s O O + O + f j ` ' 5.,  .,  .,.,      .,  .,                   ",
"                   .,  .,  .,  .;.` j d O 4 5 5 5 5 5 5 + O O O + 5 5 5 5 5 4 + f j ! 3.,.3.,  .,  .,.,  .,.,                   ",
"                  ,.,.,  .,  .>.` a + 4 5 5 w 4 5 5 5 4 1 1 , O 4 5 4 + 5 5 5 5 4 + f ^ X.,  .,  .,    .,  .,                   ",
"                   .,  .,  .:.^ s + 5 5 + 3 f 4 5 5 4 9 x S S > > + O O 4 + 4 5 5 5 + f k ^ ,.,.,  .,.,  .,.,                   ",
"                  ,  .,  .:.^ d O 4 4 + # z + 5 5 4 4 4 @ g n i p O O O O O + + + 5 5 4 + s ^ ,  .,.,  .,  .,                   ",
"                   .,  .,.X.k O 4 4 + O X z O 5 5 4 + , O @ u   O         O O O O + + 5 4 + a ~ ,    .,  .,                     ",
"                  ,  .,.3.! s 4 5 4 O   3 z O 5 5 4 0 j * & O o o   O o           O O + + 5 + a / ,.,  .,  .,                   ",
"                   .,  . .g   4 + O   3 Y z O 5 5 4 9 , k p O k g X   g , , , o o     O O + 4 + d ^ ,.,.,.,                     ",
"                  ,.,.,.#.k + 4 O   ; R <.z + 5 4 4 9 j & & O     i     j l S Y Y 1 o     O + 5 + d ^ 3.,  .,                   ",
"                   .,  . .k 4 + O o Y 5.o.z O 5 4 4 4 . p p 9 O             n <.,.R Y 1 o   O 4 5 O j    .,.3                   ",
"                  ,  .,.#.k O 4 + o Y >.1.K : 4 5 4 4 O O $ 4 O O         > K =  .,  .R Y 3   + + 5 d ` ,  .,                   ",
"                   .,  .#.v o 4 5 # C <.:.1.z + 5 4 4 O O O O O O       O n @  .,  .,  .,.E 1   O +   g #.,                     ",
"                  ,  .,  .X.k O + 5 # C <.+.Z > 5 4 6 O O + O O O       O A 3.,  .,  .,  .,.E 1   O 4 s ! ,.,                   ",
"                   .,.,.,.O.V . O 4 5 8 Z 2.+.n 5 4 + O O O O O O       > L +  .,  .:  .,  .,.E ; O O   g ] 5                   ",
"                  ,  .,  .,.&.v X # + 6 8 Z &.n 5 5 9 O O O O O       O A =  .,  .,  .,  .,  .,.Y < O   g #.,                   ",
"                   .,  .,  .,.;.J C X % 4 8 S G 0 5 4 4 + O O O       # L 3.o  .>.7.:  .,  .,.,.Y w O   g ] 3                   ",
"                  ,  .,  .,  .,  .X.J l $ 0 Z ] n 5 4 4 O O   O       A 3.O.B X  .,.7.:  .,  .1.I e O @ c $.,                   ",
"                   .,  .,  .,  .>.7...m X 4 % S n 5 4 4 4 O           A =.H 6 A =  .>  .,.1.=.K w 5   g $.,                     ",
"                  ,  .,  .,.,.,.7.:.7...l 5 0 S l 5 4 4 O O O     O @ A 3.H @ l &.@.3.=.>.Z z q 4 O . c ( 5.,                   ",
"                   .,  .>  .,  .>  .@.$.k 5 > n 4 5 4 4 4 O O O 4 O O A =.Y o + k z A z z q 5 O . . c ] 5.,                     ",
"                  ,  .,  .,  .,.7.] n k 5 6 > g O 5 4 4 O O O + 5 4 O n <.;.U X % 5 5 5 5 X . @ m J #  .,  .,                   ",
"                   .,  .>.7.,  .' j 7 % # o b   4 5 4 O O O O O 4 4 4   A 3.:.U H o . . @ M H J &  .3.,  .,                     ",
"                  ,  .,  .>  .X.l = H H H H n   5 4 + O O   O O 4 4 5 O A +.7.:  .Y H H F @  .,.,.,.,  .,.,.,                   ",
"                  ,.,  .,  .,.@.F T >.7.:.2.n + 5 4 O O   .   O O 4 5 O n 2.;  .,  .>  .,  .,  .,  .,.,  .,                     ",
"                  ,  .,  .,  .,  .>.7.:  .| b 5 4 4 O   X A .   O 4 5 5   n 4.                                                  ",
"                   .,  .,  .,  .,  .:  .o.z   5 + O O . G 6.G . O O 4 5 O A +                                                   ",
"                  ,  .,  .>  .,  .>  .:.2.n + 5 4 O O . H ;.6.A   O 4 5 4 n 2.,  .,  .,  .,      .,    .,  .,                   ",
"                  ,.,  .,  .>  .,  .:  .) z 4 5 9 O . G +.7.+.G . O 4 5 5   A 1.,  .,  .,  .,.,  .,.,.,  .,.,                   ",
"                  ,  .,  .,  .>  .,.7.:.<.l 5 5 + O . H 7.;.7.;.A @ O 4 5 O n :  .>  .,  .,  .,.,  .,  .,  .,                   ",
"                   .,  .,  .,  .>  .,.<.l   5 4 O . G 6.;.7.;  .G . O 4 5 4 n 2.>  .>  .,  .,    .,  .,  .,                     ",
"                  ,  .,  .,  .,  .,  .*.z O 5 4 O . H ;.7.;.7.;.6.D @ O 4 5   n ,.:.7.,  .,  .,.,  .,  .,  .,                   ",
"                   .,  .,  .,  .>  .;.<.l 6 5 4 . G ;.7.;.7.) 7.;.A . O 4 5 O n @.7.,  .,  .,  .,  .,.,  .,                     ",
"                  ,  .,  .,  .,.7.,  .X.l 5 4 + & G 7.;.7.;.7.;.7.+.A @ 4 5 O n >.:  .,  .,  .,  .,    .,  .,                   ",
"                    ,   ,   ,   ;   @.b   5 +   G 6.;.7.;.7.;.7.;.6.F   O 5 4 n @   ,   ,   ,     ,       ,                     ",
"                  ,.,.,  .,  .,  .,.&.h + 5 + X G ;.7.;.7.;.7.;.7.;.H . O 4 5 . M @  .,  .,.,  .,.,    .,  .,                   ",
"                   .,.,.,  .,  .>  .+.l 4 5 4 # J 7.;.6.;.7.;.7.;.7.+.D   4 5 O b <.>  .,  .,.,  .,.,.,  .,                     ",
"                  ,  .,  .,  .,.7.>.&.b 5 4 . G 6.;.7.;.7.;.7.;.7.;.6.F . 4 5 O z ;  .>                                         ",
"                   .,  .,  .,  .:  .X.l 5 + . J ;.7.;.7.;.7.) 7.;.7.;.4.M @ 4 4 z <.>  .,  .,.,.,  .,.,  .,.,                   ",
"                  ,  .,  .,  .,.7...m . 5 O X J 7.;.7.;.7.;.7.;.7.;.7.:.H . + 5 . M <.,  .,  .,  .,    .,  .,                   ",
"                   .,.,.,  .,  .:.&.l + 4 # K 4.;.7.;  .;.7.;.7.;.7.;  .H . + 5 O z @  .,  .,  .,  .,.,  .,                     ",
"                  ,      .,  .,.7.X.l 4 + X U :.7.;.7.;.7.;.7.;.7.;.7.;.H . O 5 4 n <.,  .,  .,.,.,    .,  .,                   ",
"                   .,.,.,  .,.+.J m 8 + O X H 5.;.7.;.7.;.7.;.7.:.6.;.7.@.M . 4 4 n +.,.,  .,.,  .,  .,  .,                     ",
"                  ,  .,  .X.L V % 7 4 + O X U :.7.;.7.;.7.;.7.;.7.;.7.;  .H . 4 5 X B =  .,    .,  .,  .,  .,                   ",
"                   .,.X.J v % 8 5 4 + O O   , Y ;.7.;.7.;.7.;.7.;.7.;.7.:.G . 4 5 + l @.,  .,.,.,  .,.,  .,                     ",
"                  ,.X.v : 8 5 5 4 4 4 O     # P 7.;.7.;.7.;.7.;.7.;.7.:  .G . 4 4 + n U &.,  .3  .,    .,  .,                   ",
"                   .V # 4 4 6 4 O O       & N 2.;.7.;.7.;.7.;.7.;.7.;  .Y >   4 5 5 q & K U @.,.,  .,.,  .,                     ",
"                  ] k O O O O           X N 2.;  .;.7.;  .;.7.;.7.;.7.;.H . O 4 5 5 5 5 8 : C &  .,.,  .,  .,                   ",
"                  3.~ l l l l l g h h h C ,.,  .;.7.;.7.;.7.;.7.;.7.;  .H . O O 4 4 5 5 5 5 & C ;  .,.,  .,                     ",
"                  ,.3.@.&.$.&...<.) -.X.2.,  .>.7.;.7.;.7.;.7.;.7.;.7.,.H .   O O O 4 4 4 4 O b O.,    .,.,.,                   ",
"                   .,  .,  .,  .>  .>.7.:  .>  .;.7.;.7.;.7.;.7.;.7.;  . .b .       O O O O f ` ,.,.,.,  .,.,                   ",
"                  ) ) ) ;.) ;.) >.( ;.( >.( ;.( >.( ;.( >.( >.( :.( :.) ;./ x s g s f g j f W ) ) ;.) ;.) ;.)                   "
};
