/* XPM */
static char *bluefire[] = {
/* columns rows colors chars-per-pixel */
"64 64 44 1 ",
"  c None",
". c #0FA1DB",
"X c #11A4DE",
"o c #14A8DE",
"O c #12A6E2",
"+ c #18A7E2",
"@ c #14ABE4",
"# c #1BACE5",
"$ c #15ADE9",
"% c #1AAEE9",
"& c #17B0E7",
"* c #1EB1E6",
"= c #16B2EB",
"- c #1AB3EC",
"; c #1CB9EE",
": c #17B4F1",
"> c #1AB6F1",
", c #1BBBF3",
"< c #1BBCF8",
"1 c #20AEE6",
"2 c #23B2E5",
"3 c #22B4EB",
"4 c #23B9ED",
"5 c #2ABAED",
"6 c #26B7F0",
"7 c #22BDF3",
"8 c #2BBFF1",
"9 c #20BFFA",
"0 c #1DC1F5",
"q c #1FC1F9",
"w c #22C4F5",
"e c #2CC3F4",
"r c #26C9F7",
"t c #29CBF6",
"y c #23C4F9",
"u c #2CC3FA",
"i c #24C9F8",
"p c #2AC9F9",
"a c #33C5F6",
"s c #39C4F4",
"d c #33C9F4",
"f c #38C5F8",
"g c #32C8F8",
"h c #41CCF9",
/* pixels */
"                                                                ",
"                                                                ",
"                                                                ",
"                                                                ",
"                                                                ",
"                                                                ",
"                                                                ",
"                                                                ",
"                                                                ",
"                                                                ",
"                                                                ",
"                                                                ",
"                               X     3                          ",
"                               $                                ",
"                              $=O                               ",
"                              =>O                               ",
"                         OO   ,0$                               ",
"                         $<  @yy>                               ",
"                         @,= O0i,                 3             ",
"                          r, O>,>$                              ",
"                         @qy;X=*=>                              ",
"                         &ii,X@@-,                              ",
"                         ;iyro->;r-                             ",
"            3            7yyr;;>-,>                             ",
"                        #rirr37y-%#                             ",
"                        -rrrr5,r-                               ",
"                       %,7##735p-#O                             ",
"                      -7r3 #85rg3##                             ",
"                     -rr7   85ra21                              ",
"                     ;yu3  285sa*3                              ",
"                     -rr   3538e23                7             ",
"                O    #7#   a52a552      O                       ",
"                X$-  +3    s85fga3      -                       ",
"                 O>>  -    855sha11%   -y=                      ",
"                  -,% -3  35 58a2 -3   0y,                      ",
"                  @,-#-3  133rr* 57#  @y<,                      ",
"                   ,,---  %#5r33ppr#  -0y,                      ",
"                   -,,--3 3#772ra8rX --;>@ :$                   ",
"                  O,0r;@--7;3-7rrr,@@-@==  ,=                   ",
"       3       @  %,r0,o%-r7-*8rw;7--@#@  =,                    ",
"               0=  000,@X7r-#-7-o;r=@>$  =,=                    ",
"               00: =,=,# ,y-@-# -ry;@@  O$@O                    ",
"               =q0X@@o,- --=-$  ,r0,-   @                       ",
"                >q=@O -= @-$>  @,;@=@  @>$                      ",
"                O,>$$ =-OO=@@  -,: $ .$$$                       ",
"                 $>=$$==X   O $,,    $=                         ",
"                  $==$==O   $@#,=  .>,.                         ",
"                   @$=>:=   %==,$ $:,,    =                     ",
"                   O::=:=$@ O::0$X=@X@                          ",
"                    O:=OO$:=$>>:XX.                             ",
"                      . $$:=@:0=                                ",
"                         OO$$=:@                                ",
"                                                                ",
"                                                                ",
"                                                                ",
"                                                                ",
"                                                                ",
"                                                                ",
"                                                                ",
"                                                                ",
"                                                                ",
"                                                                ",
"                                                                ",
"                                                                "
};
