/* XPM */
static char *wall_dark3[] = {
/* columns rows colors chars-per-pixel */
"64 64 32 1 ",
"  c #050404",
". c #080707",
"X c #070807",
"o c #090807",
"O c #070708",
"+ c #090708",
"@ c #0C0B0A",
"# c #110F0E",
"$ c #12100F",
"% c #110F10",
"& c #141211",
"* c #191615",
"= c #1B1817",
"- c #1E1A19",
"; c #221D1C",
": c #25211E",
"> c #272221",
", c #2B2523",
"< c #2F2925",
"1 c #312A27",
"2 c #342D2A",
"3 c #37302C",
"4 c #3A322D",
"5 c #3E3631",
"6 c #443B35",
"7 c #483F37",
"8 c #473E39",
"9 c #483E38",
"0 c #4C423B",
"q c #50453E",
"w c #554941",
"e c #5A4E44",
/* pixels */
"................@@@@##$$&&&&&&$#@@@@Xooo....Xo@o@@@@@@@@@X...o..",
"...............X@@@@@@$@@@@&&@@&&@@@oo.@....@@@X@@@@@@@@@@......",
"............@@@@#%@@#@#@@@&*-<<:=&&&$#@X....@...@@#@X@..X.......",
".......o..@@@@#@@$$$&&&&&$&-<00801&&$@..........Xoo@............",
"......o@@&&@@@#@@@@@o...@@.&-;=:8q-@@$@@........................",
"......@@;1;=*@$@............&&..#83#@@@@X@.....o................",
".....o@;11-&.....................11@#@@$%%&$@@$@................",
"......&-5<@.....................o=:@$@#$$@@#@@&881=o..@@@.X.....",
".@o@@@&&8;.........++...........o.*#&&**@@@#@@@@-185&@&#@#@@@o.@",
"@@####&*8&......@@@@@..@@#@@@@$*o@o@&##@@@oo.....@-51@@@@@@@o.@o",
"#@oo...-4*..@@..@@##@@##&&&&##@@....@@@@@..@@@....#14-.o@@@@.X@@",
".......@4<#o@@.@##@@@@@@@.o..o@@@...@@@@@..@@X....@;5<..@@@@o...",
"........-e@@O@@@####@@@@....O@O@.o.@@@#&&@@@@@@@..@>3;@......o..",
".........:0=@@%&$#%&&&&@....@@@@@@###$&&&@@@@&@@.@@><&......@o..",
"..........#5#X@@@&##@##@@@o@@&@@@@@&$#$&&&@@@@+@..#$@......@@@@.",
"@O...............##@@#@@o@@#&&&@@o@@@@@@@@@&&&@@...........o@@@@",
"@@@@@@O...........@@##$#@$&*=*&$%@@####@$&*&***&...............o",
"%@&%@@O...........$$&&&#$$&&&&$@@@@@@###%*---**#@.............#@",
"@##&@@XX........@@oo@@@#=--@$#@.@.Xo@@@$@&&***=*&#..@.........@#",
"@@@@@@@o........o@..&<80053-@o....@@@@@.@&&&&**-*&@@@$@@.....@@@",
"ooX...............#4q71*..$<*...........@&&*****&@@@&&@......@@@",
"@X...............#45<@......@...........@&&&&$&&&$@@@@.....@@@@@",
"@@@@X...o........14<@.................@@&#@$@###&@@.......&&=&&$",
"$$$@@...@X.O....;8<-@................@@@@.X@#$$&&@X..@o@@@#&&=&&",
"$&$#%@@@@@.....#11:*.....O#o............o@@@##@@....;4881&&&=**&",
"&$$#@##@@@OX...*1;:@......@#@@..........@oo@@o@@...@$$@=85*&&&=&",
"&&$@@@@@@......=;;*@......@o.............o@@@@##@@......:4:&&&&&",
"@@@@O@@@O.......*;@o............@q8<&...#######@#@......*;-&@@#@",
"@@@@@@$@@@O..@..##@oo##o@@@@#X.o@=485<@@@@@@@#&&&&$@....O&@.Xoo@",
"@#@@o@@$$@.......#@o.##@@@@@@@@@....<1>@.@@@&**&$#@@O@X..@..Xo@@",
"&$$@@@$$$@@@.@.......o@@@@@#@@@@....;13@@#&&&$&&$@##$&&@X...o$&&",
"&$##@@o@@@@@@@@......o##@$@@@@@@...O&-;@@###&&=;&#$&&$&@...o@*==",
"$$&$$&#@@@@@@$&#O@...@O@@&&@&@@@........+@&&#$&9&$###$$$.o.&&&&=",
"&&&###@#&&&&&&@$$@@%@@@@&&@$@$&@.........@##%&@<4&#&&&&&&@$&$$$$",
"#######$&&&&&&#&&&&&&&&&&#@@&$&#........@@##&#.@<<&&=**=*##@@#@@",
"####&#&&&&&&$$#&&&&&&&&-&&@$@&&&@o........#&$#..-8&&*&$#@o@@o@@$",
"#&&&&&#$@&&&&&$$#@@@@@-:&&&@@@@@@X.........@@#.@;8$@@@oo...#$#$$",
"&&*$$&#@@&&&@@@@@@@@@*8>&$@@@@@@@@@........o$#@@;5#@o@@@@###$*&*",
"$$##$#@#@@@@@X...&@&1w5&@.@@@#@@@@........o@@#@@=8@@@@$@##&*&*&$",
"####@$@@&@&@o...@<1405;....@$@@@@.......XX.@@@@@:0o@$$$$#$#*$&$$",
"###@@###$&@@o.......@...@o@@$$&#@.............@=:8.oX@@@####$###",
"o##ooo.@@@@@............O&&$#$&@@...........@;&<41.o@@@@#@######",
"##o.o@@@@.o@oXo@........&#@@%@&@............&*:01&.o@@....@o##o#",
".o####o.@@@@@@@@@@....@$&&&&$&&@o...........&&-:*..o.X....+@.@@o",
"@@@@@@o.@@@@@@#@&&&$@&&&&&@&$&&@@@@@@@@....o.$-;@..o@o..XX@Oo#+@",
"XX@o@o...@@@@&&&@$@&&&&--&=&&&&&$@@@@@.......@o....@@@@@@@@@@++.",
"@@@@o...o@@@&#@#@&&&&*==---*&$@&$&#@@@@@.@@.......@@@@.X......+@",
"@@@@@...@@@@O@@@##&&&&**&*=*$#&$@$@#@@@@@@@X.....@@$@@@oX.X.@o@@",
"@$#@@%#@@@@@o@@##&$&&&&$#@&&&&%@@@@@O@@@...........@@@@@@@@@@@@#",
"#@@@@*&;&@@@@@@@#@@@@#@@..@@@@@@@@@@O@@@...............@@@$@&&%&",
"O.@@@&-;1-@@@@@@@@@o@@@@@@@@#%&&&##@@##@@.....@O@@..@@@@@&&&&#@@",
"..@@o@&&50&@@#$@@@@@@@@@&&****-=&&$$$##%@@@@@.#$@$@@###&&4=@@O.O",
"@@@@...&1q0$@@o@#$@@..@@&%**:>-=-***&@%#@@@&@&#@$$$#$##@@4#.....",
"@@.@....$1e:....oo......@@**:<;=*--*&&&*&&@$#$$&#&&&&$#@o0#...@X",
"@@@@....o;q0o...X.......@@@*:<:%#&&*--==&@@&@$&@@@@@@@@@@e@.o@o@",
"@+@O....X&80$@@@@@@@O...@@.O%18O@@#&&*&--&&&&&&&#@@@@@#=81..o+@@",
"@O@X....X=37o@@@@@##@@.......&e&OX@@&&=&#@#@##@$@@@.o#@<1$.....@",
"X......@@<8:.@##@@@@@@.......@w:XO@$&--&#&#$$&$$#.....=4*.....+.",
"@@@...#$;8;.o@oo@oo@@o@......@0<@@$$$&&&&&@@@@@@@.....$&....@O@O",
"@@o@@@&-1o...o@o...o@@@@.....&0&@@@##@##&@@.@@@O............O@@@",
"&&#@#&%......@@@@o@@@@@@.@@@&01.@#@@@@@@..........O+o....Xo@@@&&",
"@##&#@X.....@##@@@..X@@@..&#$:o.X@@@@@#@.........@#@#....@@@@@@@",
"@#@#@.....@$@#@@@@XX@@@@@@@@....@@o@X.X..........o@....+@O@@@@@@",
"#@#@X.....@@$#@@@@@#@@@##@.....X#@@oXX.........o@#@@##@@#@@@@@@@"
};
