/* XPM */
static char *floor_wood[] = {
/* columns rows colors chars-per-pixel */
"64 64 110 2 ",
"   c #191210",
".  c #1B1412",
"X  c #1C1513",
"o  c #1D1614",
"O  c #1E1715",
"+  c #1F1816",
"@  c #201917",
"#  c #211A18",
"$  c #221B19",
"%  c #231C1A",
"&  c #241D1B",
"*  c #251E1C",
"=  c #261F1D",
"-  c #27201E",
";  c #28211F",
":  c #292220",
">  c #2A2321",
",  c #2B2422",
"<  c #2C2523",
"1  c #2D2624",
"2  c #2E2725",
"3  c #2F2826",
"4  c #302927",
"5  c #312A28",
"6  c #322B28",
"7  c #322B29",
"8  c #332C29",
"9  c #332C2A",
"0  c #342C2A",
"q  c #342D2B",
"w  c #352E2B",
"e  c #352E2C",
"r  c #362F2C",
"t  c #362F2D",
"y  c #372F2D",
"u  c #37302C",
"i  c #37302D",
"p  c #37302E",
"a  c #38302D",
"s  c #38312D",
"d  c #38302E",
"f  c #38312E",
"g  c #38312F",
"h  c #39312F",
"j  c #3A312F",
"k  c #39322E",
"l  c #39322F",
"z  c #3A322F",
"x  c #3A332F",
"c  c #393230",
"v  c #3A3230",
"b  c #3A3330",
"n  c #3B3330",
"m  c #3A3331",
"M  c #3B3432",
"N  c #3C3432",
"B  c #3D3432",
"V  c #3C3532",
"C  c #3C3533",
"Z  c #3D3634",
"A  c #3F3634",
"S  c #3E3735",
"D  c #3F3836",
"F  c #403937",
"G  c #413A38",
"H  c #423B39",
"J  c #433C3A",
"K  c #473E38",
"L  c #443D3B",
"P  c #453E3C",
"I  c #463F3D",
"U  c #483E38",
"Y  c #483F39",
"T  c #493F3A",
"R  c #4A3F3A",
"E  c #47403E",
"W  c #4B403B",
"Q  c #4B413B",
"!  c #48413F",
"~  c #4C413C",
"^  c #4C423D",
"/  c #4D423D",
"(  c #4E433E",
")  c #494240",
"_  c #4A4341",
"`  c #4B4442",
"'  c #4C4543",
"]  c #4D4644",
"[  c #4E4745",
"{  c #4F4846",
"}  c #504947",
"|  c #514A48",
" . c #524B49",
".. c #534C4A",
"X. c #544D4B",
"o. c #554E4C",
"O. c #564F4D",
"+. c #57504E",
"@. c #58514F",
"#. c #595250",
"$. c #5A5351",
"%. c #5B5452",
"&. c #5C5553",
"*. c #5D5654",
"=. c #5E5755",
"-. c #5F5856",
";. c #605957",
":. c #615A58",
">. c #625B59",
",. c #645D5B",
/* pixels */
"# # # # # ; ; # ; # - # # ; # - - - # - # - - # - # - - - - # - - # - # - - # - - # - - # - - - # - - # - # - # - # # - # # - # ",
", , , , , , , 3 3 4 , # @ # ; # - , , , , ; - > - > - - - > - - - - - > - - > > > > > > > > , > , > - - - > - - - > > > > - - > ",
"4 9 9 9 9 g g g 9 9 , ; # ; ; 9 p c c c H E E E E E E E ) ) ) | +.+.+.@.@.-.-.@.+. .) ) E E E H D D c D D c g g p p p p g g p 3 ",
"c p g 9 g g / c g 9 , ; @ ; , p / D c c [ [ / ) [ [ | | |  . .+.&.-.&.@.@.@.+.+.+.| E D D D D D D D D D D D D H H E D D D c D g ",
"H c H c c c c g g 9 , ; @ , , 4 p p 9 9 p p p p g D H E H E E E ) ) ) ) ) ) [ ) ) E D c H D D E E E E E H D D E E D D p g p p g ",
"c D H H D H F c c 9 , # + ; , , 9 9 p p p c D H )  .+.+.@.@.-.-.-.@.-.&.@.| [ [ ) E D E E E D D D c D g g g p p 3 p 9 p p 9 p g ",
"c c g p 9 9 9 g g 4 , # @ , , 4 p p p p g [ &.-.-.&.+. .[ [ [ [ ) ) [ | | [ E D D g 3 3 3 3 3 9 3 3 3 3 p p 9 p g p g p g g c D ",
"c c c F c H H c g 9 # X @ , , 4 p D c D D g c D g p p p p p g D D E E E ) ) H D D c g p p g g g D D D D D c D D D D D E D D D D ",
"E ) / F g 9 9 4 4 , ; X @ , 4 F D D 3 3 3 p p c c D E ) [ [  .+.@.+.+.+.| | [ [ [ ) ) ) ) ) ) ) E H D D D D D D D D D D E D E D ",
"c c p g D g 9 g g 4 , X @ , , 4 g c D H D D c D D H ) [ | | [ ) ) E E H E E D D D D c D c D g g p 9 3 3 3 3 3 3 3 3 p p p 9 p g ",
"c D g g g H H E F 4 , + @ , , 4 p p p p p p p p c E ) |  . . .[ ) ) E E E H H D D D D g D g g g p p g p c c p g D g g p p p p g ",
"p g 9 9 9 9 c H c 9 , X # 3 , 4 p p p p p p g c D E [  .+.+.@.&. .[ ) ) ) [ [ ) ) ) E H D D D D D D c D D D D D g D g p 3 3 3 p ",
"D H c c c F F g 9 3 ; # # , , , p D D H H H H H E )  .&.+.+. .[ ) E E D H D c D p p 3 3 9 3 3 p 3 p p 3 9 9 p g D D c p p c D D ",
") ) ) D g 9 9 4 , , # @ @ , , 4 D c c g g p g c g D D E / / ) ) D g c c g D p p p p p g g g g p c g g D D E H D D c D D D D E H ",
"c g g c 9 9 g 9 g 4 , # @ , , , 3 3 3 3 g D c H H H E ) } ) ) } ) E D H E H E E E ) [ [ [ ) [ [ [ [ [ [ E D D c D D D D H E D D ",
"H E H E F c g g g 4 , # @ , , 4 p p p p E ) ) [ ) ) ) +.+.+.+.+.| D D g g g D D D c D c D g g p 9 p 9 p p 3 3 3 > 3 p g g c g g ",
"H H H c p c p g 9 3 > - + - , , p p 4 4 g g F H F c F F g D g g g p 9 9 3 3 3 3 3 3 3 3 3 3 3 3 3 3 3 9 3 9 p p p p g g g g c g ",
"H c c c 9 9 g E 9 , > # + - - , g F 9 4 4 9 g D F F F F F g F g g c D g D D g D D c D D D E D D D H E E E [ [ | | H E E E E E ) ",
"H D D c 9 4 4 g 3 , , - + , > , 9 g g g g 9 9 g 4 g 9 9 g g 4 g p p p p p 9 9 9 p 9 p c D g D D D g c E ) E ) [ E ) E E E E E E ",
"p 9 9 3 , ; , , , - - - # > - - ; , ; ; ; ; ; ; ; ; ; ; - # @ @ - - - - + - - + # + + > , , > > - - > 3 3 p 3 3 3 3 3 3 3 3 3 , ",
"- # # @ # # # # + + + + + + + + + @ + @ X + X X + X X @ X X X X + + + X + X + + + + + + + + + + + + + + + - + + # # # + + - - + ",
"@ @ @ @ @ @ # # + + + # + + + + @ @ @ @ @ @ @ @ ; # @ # @ X X @ + + # # - + + - - # - # - # - # + - - # # + + + + + + + + + + - ",
"# - ; ; - ; ; ; - - - - # - - - - - ; ; , ; , , , , ; ; ; # X - > - , 3 , 3 , 3 , 3 3 , > > > > , > > > > - - - > - - - - - - - ",
", , , , ; , , 3 3 , , 3 , 3 3 , , ; , , 4 3 , 4 4 4 4 , ; - X ; > > 3 3 3 3 3 , 3 > 3 3 3 > > > > > > > > > > > > > > > > > > 3 ",
"4 g g g c c c c c g g g c c c p 4 4 3 4 4 4 4 4 9 / g , ; # @ ; > > p E p 4 3 3 3 3 p p 9 3 3 p p p p p 9 p p g D D D D D c D D ",
"F ) } } }  .[ ) / E E H D D g 9 4 4 4 p g g g p 9 g 4 4 4 - @ ; , 3 9 g p 4 4 p E ) | +.+. . .| |  .) E E E ) ) |  .+.+.+.[ ) ) ",
"+.;.;.;.-.-.-.&.+.| ) [ ) ) H D D F g 9 9 9 9 9 4 , 4 3 4 @ @ ; , > 3 3 p D E H @.+.+.| [ ) ) E E D D E ) [ [ ) ) [ | | | [ [ [ ",
") ) } [ ) E E H H D H D D c c g g g g 9 9 p 9 p 3 ; ; ; ; @ @ ; 3 > 3 9 9 D c p H D g c g g g D D D D D E ) D E E E ) ) ) E ) ) ",
"H H H H E E ) [ [ [ [ | | [ H D c D g p 4 4 4 9 , ; ; 4 4 @ @ ; , 3 3 p 9 p D D E D H H D D H D D D E D E H E ) ) [ @.-.,.[ D D ",
"D F D H E E E E ) D H D H D p p g g c c c F c D 4 4 4 4 4 ; @ ; , , 3 9 p p p p c g D c D D D D D g c D D D D E E ) [ @.| ) ) ) ",
"c c D H H E D H E H E H H D c D c D c c D F F H g 4 3 4 4 ; X ; , , , 3 p g c D D c D c c g g c c g c D D E E D D D D D c D D D ",
"F F H / ) ) H F c D g g g g c c D c F F F c c c 4 ; ; ; , @ X # ; 3 3 3 p p p p p p p g g g g g g p g g ) ) ) ) E H D D D c D D ",
"E E E E E E D g g g D D g D D D g p p p p p p p p > 3 3 p +   - , 3 3 p D D D F F F F F F E E F / E E E [  . .[ }  .) E E E H H ",
"[ [ [ [ ) E D p g p p p p p 3 3 p 4 p 4 4 4 3 p 3 > > 3 3 - + - ; 3 3 4 g D c D g D F D D g g g p 9 9 p 9 p 9 p p p p D D E / ) ",
"E E D D D g p p p p p p p D D D D D D D D p g p 3 - + 3 p - + - , 3 3 9 g p p p p p g g g D g g c g c c c c c c p c p c p D D D ",
"g g D g D D D p D D D g D p p p p p p p p p 4 4 3 - - - 3 - + + - ; 3 9 g D c D D g D D g g g g c c g D c D D F E H D c D c g D ",
"E E D D D D E D p p g D g D D D D F D D D g p p p 3 3 3 3 - + + ; 3 3 p g c c c g D g g g D F F E F H H H F D D D D D D p g D E ",
"+.+.@.+.+.+.+.[ [ [ [ | } [ / [ [ E g p p 3 4 4 3 3 3 3 3 >   - ; ; 3 p c c D D D F D D D D g D c p g c c D D F E E D D H E E [ ",
"[ [ [ [ E E E E E E E E E D F D D p p p p 8 p p p g E 9 3 3 + - ; , 4 D / g g c g g p p g p p 4 p 9 9 3 4 3 3 3 3 3 3 3 g H H E ",
"E E E D D D D D g g D p g p p p 4 p p 4 4 p 4 4 4 4 p 3 3 > + > ; , 3 p g 4 3 3 3 ; 3 3 3 ; 3 3 3 3 3 , 3 3 3 3 3 3 9 p p c c g ",
"p 3 3 3 3 3 > 3 3 ; 3 ; 3 ; ; ; ; 3 ; 3 ; ; ; 3 > > > > - - + + ; ; - ; ; - - - - - - - - - - ; - - - - - - - - 3 3 3 3 3 3 3 3 ",
"- - - - - - - - - - - - - - - - - - - - - - - - - - - - - - + - ; ; - ; - - - - - - - - - - - @ # - - # - # - - - - - - > - + - ",
"- + - - + - + - - @ - - @ - @ - + @ @ @ @ + @ - + - + + + + + + @ @ @ @ + + X + X + + X @ @ @ @ + + X X + + + + + + + + + + + + ",
"+ + + + + + + + + + + @ + + + @ + + @ @ + + + + + + + + + + + + @ @ @ @ @ @ + @ + @ + + @ @ @ @ + + X   + + + + # - # - - # + + ",
"+ + - + + + + + + + @ + + + + - @ + - - - ; - - > > > 3 > 3 > 3 , 3 ; 3 3 , 3 4 3 4 3 ; , , 3 ; 3 - + + + - - - , , , > - - # - ",
"3 3 3 3 3 3 3 3 3 3 3 3 3 3 3 3 3 3 3 3 3 4 4 4 3 3 p 3 3 3 p p p p p p 4 4 p g p p p ; 3 4 4 3 - - + + + - - 3 9 3 3 3 3 p 3 3 ",
"p 3 3 p p p p p p p g D D g D F D F F F F D E E E D E D E D E D F E F p g g p p 4 9 p 4 4 p / g 3 - + + # 3 > p / p p g D D D D ",
"D E E E E E E E E E [ } } +.+.+.+.-.-.+.-.-.-.+.@.@.+.+.[ [ [ ) E F F D g g p p p g p p p p g p 3 - + + # 3 - p p p g D E E E E ",
"E [ ) [ +.| +.+.+.-.-.-.-.-.-.+.@.+.+.+.+.+.+.+.| [ ) E D D D D H H E / E F g p p p p p p p p p - - + + + , 3 c D H H H E E H H ",
"D D D D p D D E E D E D E E E [ E E E D E D D E D D D g p p p p p p p 4 p 4 p p p p p p p p p 4 , - + + - 3 p p p p 9 3 3 p p p ",
"p p p p p p D D E E D E D E ) [ | +.+.| ) D D g p p p p g D g g p p p p p p p p p p g p 3 4 3 3 - + +   + 3 - 3 3 3 3 3 9 9 p p ",
"D p p p D D D E D D E D D E E E ) [ [ | ) E D D E E D D E D D D D D D D D D D F D g D g 4 p p 3 - - + + - - - 3 3 3 3 9 9 9 p p ",
"D D D D D E E D D E E E [ [ [ ) ) ) E E D g p p 3 p p 3 p p p 3 p 9 3 4 4 4 4 4 4 4 g D D D g 4 , , # + # - , p D D c D D c D E ",
"D D D D D D D D D E D E D D D D D D D D g 3 3 3 3 p p 3 p 3 3 p p 9 p p p p g g g p p D D F D 3 , > # X - - 3 3 p c D c D E ) ) ",
"D D g D g D D D D D D D D D E E E E D D D p g g D D g D D g D D c D D c g D D D F F F D g p p 4 , > - + # - - 3 p p c D D H D D ",
"p p p p p p p p 3 p p D E E E E E E ) E E D D g p g g g p p p g p p D c p p p p p p 4 p p p p 4 , > - X - - # - 3 p D c p p p p ",
"D g D D D p p p p p E [ [ [ E E D E D E D D p p p 9 p p p 9 p p p 9 p 9 9 p 9 9 p 4 4 4 4 4 3 ; 3 ; - X - - ; 3 3 3 p 3 p p p p ",
"D D D D D D p D p p p D D D D E E E E E D D g g p p p p p p p p c g p p p p p p p 4 p p p 4 3 3 3 ; ; X @ - ; 3 p p 9 3 p 3 p g ",
"g D D g D g D D D D D D [ | [ | ) [ [ [ [ [ E D D D D D c D c D D D c D D D D c D D D D p p 4 4 3 - ; + - - ; 3 3 p p p p p p c ",
"D D D D D p p 3 3 p p p D E E E E E E E E D p 3 p p p 9 p p p p p p p p p p p D D F F V p p g p 4 ; ; X + - 3 4 p p p D D D D D ",
"D D D D D p p g g g D D E E E E / [ [ [ [ E H E D D D H H E H E E H H H D H H D D g g p g g g Q p 3 ; + @ ; ; 4 g / p p p D D E ",
"3 p D D D D D E ) +.+.[ [ | | +.[ [ [ [ E D p p p 9 p p 9 p p p p 9 3 3 3 3 3 3 4 4 4 4 4 4 8 p 4 ; ; + @ ; ; 4 p g p p 9 9 9 p ",
"3 3 3 3 3 3 3 3 3 3 3 3 3 3 3 3 3 3 3 , 3 , , , , 3 ; , , , , - - ; , ; , ; , , ; ; 3 4 4 4 3 3 3 ; - + @ ; - ; 4 4 3 3 3 - - , ",
"- - - - - - - - - - - - > > - - - - - - - - - # - # - - # - - - - - # - - # - - - @ - ; ; ; @ - - @ + X + @ @ - @ - # - # - # - "
};
