/* XPM */
static char *ghost[] = {
/* columns rows colors chars-per-pixel */
"64 64 215 2 ",
"   c #None",
".  c #080607",
"X  c #090708",
"o  c #0A0709",
"O  c #0C0B0C",
"+  c #160B0D",
"@  c #110D0D",
"#  c #14110E",
"$  c #18110F",
"%  c #0F0D10",
"&  c #130E11",
"*  c #1A0F13",
"=  c #1A0F18",
"-  c #151312",
";  c #1A1413",
":  c #1B1916",
">  c #171418",
",  c #1C141A",
"<  c #1D1B1A",
"1  c #200F16",
"2  c #211316",
"3  c #211817",
"4  c #2A161D",
"5  c #231A1C",
"6  c #2A1A1E",
"7  c #1E201F",
"8  c #22211E",
"9  c #1E1520",
"0  c #1F1E20",
"q  c #231522",
"w  c #291624",
"e  c #241B23",
"r  c #2B1A24",
"t  c #29162A",
"y  c #251929",
"u  c #2C1C2B",
"i  c #301622",
"p  c #321C25",
"a  c #3A1D27",
"s  c #331D2A",
"d  c #3B1F29",
"f  c #2E1C31",
"g  c #351D31",
"h  c #3B1F31",
"j  c #232323",
"k  c #2B2325",
"l  c #2A2926",
"z  c #2D232A",
"x  c #27282B",
"c  c #2A292B",
"v  c #332126",
"b  c #34222B",
"n  c #3C222D",
"m  c #332B2C",
"M  c #35322E",
"N  c #2E2731",
"B  c #342432",
"V  c #3C2333",
"C  c #332B34",
"Z  c #3B2A33",
"A  c #3D2439",
"S  c #36293A",
"D  c #3B2D3A",
"F  c #393536",
"G  c #3D3A36",
"H  c #3C323D",
"J  c #42232D",
"K  c #48252F",
"L  c #432534",
"P  c #4A2534",
"I  c #432A34",
"U  c #4C2935",
"Y  c #43263B",
"T  c #4B263B",
"R  c #452A3B",
"E  c #4B2A3C",
"W  c #522536",
"Q  c #522937",
"!  c #542B3B",
"~  c #5B2C3E",
"^  c #42323D",
"/  c #4A323E",
"(  c #4B3B3E",
")  c #622C3E",
"_  c #43413D",
"`  c #3F2E40",
"'  c #3C3844",
"]  c #4C2C42",
"[  c #482A44",
"{  c #532D44",
"}  c #5A2D42",
"|  c #542D49",
" . c #582C4A",
".. c #443442",
"X. c #4D3944",
"o. c #433049",
"O. c #4E344C",
"+. c #4D3C4C",
"@. c #5C3244",
"#. c #543349",
"$. c #5B334C",
"%. c #5A3948",
"&. c #4D3953",
"*. c #5E3450",
"=. c #543854",
"-. c #5C3E54",
";. c #632F42",
":. c #6A2F4B",
">. c #633245",
",. c #663546",
"<. c #63344B",
"1. c #6B354B",
"2. c #643A4B",
"3. c #6B3A4D",
"4. c #71394F",
"5. c #643552",
"6. c #633B53",
"7. c #6B3A53",
"8. c #6C3758",
"9. c #653C5A",
"0. c #6B3C59",
"q. c #723750",
"w. c #733C53",
"e. c #753C5A",
"r. c #7A3D59",
"t. c #7B3E64",
"y. c #4C4548",
"u. c #524C4A",
"i. c #54524D",
"p. c #4C4250",
"a. c #524754",
"s. c #5D4254",
"d. c #5D4C5C",
"f. c #5A5553",
"g. c #5B5555",
"h. c #64424F",
"j. c #63445B",
"k. c #6C445B",
"l. c #664B5E",
"z. c #734255",
"x. c #76475A",
"c. c #7B435B",
"v. c #625C5D",
"b. c #64635D",
"n. c #674962",
"m. c #6B4B61",
"M. c #744764",
"N. c #754A63",
"B. c #7D4569",
"V. c #7A4B6A",
"C. c #6A5865",
"Z. c #76566C",
"A. c #7A5568",
"S. c #6C6A65",
"D. c #716D69",
"F. c #77736E",
"G. c #796A74",
"H. c #7A7875",
"J. c #81425F",
"K. c #844765",
"L. c #884565",
"P. c #834A62",
"I. c #824569",
"U. c #844B6C",
"Y. c #8A4C6E",
"T. c #88516B",
"R. c #885872",
"E. c #955677",
"W. c #8C6B76",
"Q. c #9A6479",
"!. c #84787A",
"~. c #8F887F",
"^. c #8B7C84",
"/. c #9A7584",
"(. c #AA7A8B",
"). c #8E8987",
"_. c #92848B",
"`. c #938A8B",
"'. c #97928D",
"]. c #9D8C95",
"[. c #9B9893",
"{. c #A6848C",
"}. c #A28D95",
"|. c #A88996",
" X c #B18C98",
".X c #A3999C",
"XX c #AD9FA1",
"oX c #B99BA3",
"OX c #ABA7A4",
"+X c #B7A6A7",
"@X c #B2ABAA",
"#X c #B5B2AD",
"$X c #BCB6B4",
"%X c #C096A2",
"&X c #C5AEB0",
"*X c #C2B9B7",
"=X c #C7B8B8",
"-X c #C5C2BD",
";X c #CAC3B9",
":X c #D0CABF",
">X c #C9C6C2",
",X c #CDCBC5",
"<X c #CCCAC6",
"1X c #D8C6C8",
"2X c #D3CECA",
"3X c #D6D3CC",
"4X c #DAD4CA",
"5X c #DAD8CF",
"6X c #D6D5D0",
"7X c #DDDAD2",
"8X c #E1DED6",
"9X c #E1DED9",
"0X c #E2E0D4",
"qX c #E5E2DB",
"wX c #E8E6DF",
/* pixels */
"                  X     +   + .                           &     &     &                 #                                       ",
"      . $ # + $ $     + + .                                           & #               - ; - #                                 ",
"      + 2 K $ + + +                       $     #                   #               - ; R s.6.s.X.,                             ",
"        2 W K v $ $ + +               #                 &   & - -   &               , / X.k e ..j.e   -                         ",
"      + 3 Q Q Q Q 3 3     $     #     . #       #     # #         - & &           4 / / z 0 e H j.k -                 #         ",
"        v Q n n ~ ) ) $ $                     ; # #         # #   -           : 4 6.Z r : : 7 ' h.k       -     # #             ",
"          d ~ Z n Z ~ ) ) 2               # -             # #   -     & - - ^ z.6.n e : > - : N #.Z                   #         ",
"        + d ~ v 2 $ 3 n ) ) ~ 4   #   #         #   8 n v v 6 6 5 , ; & >.w.z.2.X.j - :   : : N s.X.% -   -     #               ",
"        . n ~ Z $ $ $ ; v K U ~ ~ U       v K n K b ! w.4.z.c.c.P.P.J.c.J.J.2.Z v : ; ; : : : H d.y.% -         #               ",
"      X   6 Q K $ $ ; $ $ 3 r I Q >.P Q P Q ;.;.c.z.@.Z n / ! ( #.#.#.v l I M 8 ; 8 : : : : e ' C.p.-     -   &   # #           ",
"        . + Q ! 8 $ $ $ $ # # v r Q w.} >.P p p ^ ; ; ; : ; 3 : 5 6 k : # : : : : : 8 : : : j ^ k.X.% - - - -   # #     #       ",
"          X !  .K # 3 $ ; # # ; ; U 7.p b 5 ; ; 3 ; ; ; ; - # : ; : : : : : 8 : : : 8 8 5 c D N.Z -   - - -       #   # #   #   ",
"            ~  .k 2 $ ; ; $ ; $  .@.n - 2 $ $ $ ; ; $ ; $ $ : : - - : : : : 8 ; : l : 8 8 l ^ k.b - - - - - -     -             ",
"        X + ,.,.v $ $ $ ; $ : z.K 5 ;   $ $ $ 3 2 : : $ $ $ $ # : # ; 3 : : : : : : : 8 8 l X.k.r - - - - R z , - X.C.s.u.%     ",
"          . 2  .>.6 $ $ # # ; K 5 # $ $ $ $ $ 3 3 $ $ $ ; ; : ; : : : 6 8 8 : ; : : # : 8 l _ T.@.R C z C Z.Z.l.a.&.p.d.f.%     ",
"      X . .   ~ >.I $ : $ v U Z $ $ $ $ $ $ $ 3 $ 3 $ 2 ; ; : : : # $ $ : : : 8 8 : : 8 8 8 F k.k.N.M.9...p.S H N H ' p.y.%     ",
"      +   X X ,.@.I ; # $ n ~ m # # # ; # ; $ ; ; 3 ; ; ; ; ; : : 3 ; ; ; ; 5 : : : : 8 j : j c C H C j : 0 x N j x ' p.%       ",
"      $ n X X ~ ) K ; ; ; 2 3 # # # ; ; ; ; ; ; ; ; ; ; 3 ; ; ; : : 2 : : ; : : : : : : : : : x : z c j : 7 x j x ' d.d.%       ",
"      n 1.d 6 4 ) 4.6 2 Z 8 $ # # # # # ; ; $ ; ; ; 3 $ ; 3 : 3 # : : : 3 3 , : : : : : j - 7 7 : : j j j 7 7 7 C +.n.&         ",
"      Q ) W ) ) J.4.v ; 3 2 $ $   # # # $ $ $ ; ; ; : $ 3 ; : ; $ 3 : ; : X.d.-...: : C C j 7 7 : : 7 j x 7 0 7 '  .-           ",
"      Q Q     2 8 n 6 $ $ $ $ $ $ : $ $ $ $ 3 3 $ ; ; : 3 # ; : ; 2 v  .%.$X>X$X[.: : ' ' : 7 7 : 7 7 7 : j : H C.g.%           ",
"      4 ~ K   * ; ; $ $ : # # # # # # # $ $ $ $ ; : : $ $ 5 ; 2 3 ( W.@X#X3XwX7X#X: : F.f.: : 7 7 : 7 : : : C =.X.-             ",
"      . P W     # # # # # # $ # # # # # # $ $ $ ; # ; ; 3 ; ; ; 2.{.=X0X8X7XwX2X`.: - [.D.: : 7 : 7 7 : 0 ` j.#.e               ",
"        d K 2   # # # # : # $ # $ # $ : $ $ $ 3 ; ; ; ; ; ; 2 Z  X1X8X8X5X3X7XoX2.: : [.S.: : 7 7 : x 7 0 Z...q &               ",
"      .   d ~     # # k :X:X{.3.: : $ ; $ ; $ ; ; ; ; ; ; 5 Z ^.,X8X7X1X5X,X,X]...5 R.#XD.: : 7 : 0 0 0 H V.r &                 ",
"          U 3.6     # 3 Q.;X&X+X~.h.3 ; ; ; ; ; ; ; ; # 5 Z G.0X7XwXwX5X5X,X|.s.5 ; +X#Xb.5 : : : : 0 S j.M.u                   ",
"          2 } Q     # 6 z.:X0X:X4X%Xf._ v $ ; $ $ $ ; ; ] ].7XqXwX8XwX3X3X,XA.Z k h.2X`.y.: : : : 0 D =.V.N.C                   ",
"            K Q ,     : U +X:X3X4X4X4X%Xx.: 3 # 3 $ 3 _ $XwXwXqXwX7X8X7X3X`.^ 8 C {.3Xa.j - - : - &.n.o.&.#.M.N.#.O             ",
"      p K p Q ~ r #     6 z.@X:X4X:X0X0X8X=XE.3 $ $ 3 3 =XqXqXwXwXqX=X].].^ 5 : _ -X$XM > : : - - : > > : y  .=.-.E R           ",
"      W ) ~ ) } b & # -   # # ~.4X:X4X4X8X8X1XN.n 3 $ ; S.[.OX+X@X@X!.D ^ 5 : : i.>XQ.z : - - : - : > - - - x y A *.6.u         ",
"      ~ 4 4 r r u D , Q >.# # x. X:XqX0X0X1X}.z.8 $ 3 3 ; Z X.#.=.O.C & : $XG H.-X#Xa.7 - - - : - - : : C V > > u #.k.6.:       ",
"      d W i 2 * ; ;   4 I K # K P.[.&X&X=X|./ ; $ 3 $ $ ; ; ; ; , & , - : >Xf.d._.-Xz - : - : : - x j S M.R.r S -.M.%.O         ",
"        K { w &         6 Q v   6 ] K.J.E.7.; - : $ ; $ ; ; ; ; .., - : : 6X.XC.C.,X:   : : - : - d.=.C S f m.B.#., 4           ",
"          W d ;           4 z.$   # + ; $ ; # ; $ : $ : ; ; ; k .X!.G : j 3X>XS.u.OX% : : : : : : x N t : > S 6.R               ",
"          .  .L -       #     .XW.#.Z $ $ f.).b : $ c S.D.M ; M wX&XC.j j -X,Xv.x ' - - - : - - m.o.y > > : 0 $.5.Y C           ",
"        . * >.;.3./ #         u.W.}.!.# # F.2XG.: ; i.wXwXf.; M ,XQ.+X).m 6X/.^ : -     > - : > X.z >   - - & X.7.$.{ w         ",
"        4 W L h K n - ; #       f.[.#X_ - D.2X5X8 # f.0X8X6XH._ >Xz ).<X@X,Xn.z :   : : - & = ..s - -   ; - ,  .#.y g 5.0       ",
"      4 L n * 4 , , , , - $ 5     b.;X,Xl  .(.8X7Xf.v.5X6X!.^.OX,X: g.XX7X7X..:   : &   & & w /.u -   -   : V.R 9   & u X.e     ",
"      d L *         &   ; #.K.@   # G 4XOXi./ (.7XW._.5X0Xy.).5X3X, c f.'.3Xk -   -   - - - z E., -   -   - N 0       > g V 0   ",
"      i -     &     &     2 r , # # : f. X( v T.7XA.{.:X5X8 S.@X$X- :   m 3Xm - - - : - - ; t C > -   -   j y -         t ..u   ",
"      w &         - &       - , I ;   # 2.p 5  .=Xk !.2X$X: : y.>X:   : 5 +., - - - - h.h.n.*.: :   - e D N e -         y [ s   ",
"     .w & &     s n s n r 4 4 i w.r     #     r E.5 m 0.Y.;   : x #     - j - - b ^ 9 9.7.B.0.-   - , A 9.y -           q ..g   ",
"      d = &   4 ! w.q.q.w.r.J.r.r ,           - 5 - , 5 r # # - # -   -   - - r #.6.r y u 6.6.&   -  .j.q &           0 ] u &   ",
"      } s & * ,.s q 4     = } q.4 &                 #   - - - # #       - ; ; M.>.e & - q e - -   : *.*.9 -       - 0 y $.,     ",
"      <.;.,.W u & & * = T W ] Y w Z Z s   b 5 -       #       -       # I U.e - , & - q $.Z & & e #.*.D - &   > > 9 t 9 ] u &   ",
"      s W T p *   = r P r.} V q q  .e.} - N.P   -       - -   : : #   #.7.Z ; -   - , b B.R > 9 #.M.#.9 -   - u y y 9   t  .u   ",
"      p L w &     s } :.<.t q * . & q T K.w 7.@.@         - &   :   X.| Y , & & - - , R B.E 4 Z B.B...=     t 9...9       ] s   ",
"      L 4 &     * } r.} t   &   & * ! } h ; d ] ! E , -       & : 5 7.Z ;     -   ; u U.Y.$.] U.B.A 9 & & y *.t >         L u   ",
"      1       & q } T 4       & , { T d * & , } L.K.P = ; &     n K.q *         & L I.U.I.B.t.8.A =   u T  .g &         > R u   ",
"      1 &     & u ;.h ;       , Y >.w &   & 4  .7.o w.Y.N.4 & & Z I.t & &   & & - ] I.{ Y L R Y u > q ] 9...O         & u Y y   ",
"      s &     * g T t &       Z >.q &       7.P     w 1 T I.6.4 L I.t &       & q ] *., &     & , q | 0.Y       &   & q #.e     ",
"      T q   * g T , &       ; q , &       , r.V         , *.>.q E e.u > & &   & w u , & -   &       E { >       , u E | 9       ",
"      d #.* V V 4           = , & &     & q } w               t $.e.] S 9 >   ` 0.I.*.q t 9 >       , Z h   = g ] ] =.f         ",
"        4 & 4 t = &       & &           & w &                     s 9.t g f q t 5.] h *.*.| g = >     4 h u h Y | | A           ",
"        . . . & &       & >   &         b 5.&                     & .. .| ] ] | Y 4 q <.t.:.] g u & &   t | | g A ]             ",
"            . - >       & = &           d 7.&               &       &  .<.8.<.0.&     * 8.t ] 8.9.t y y A 5.5.] q               ",
"              L s       , d &     & & t d T   &   .                               &     & ] Y w Y | | | | *.9 9 &               ",
"              p d w , 4 p h r & & & = ] d                                   q } ,         | t & q A h g h S                     ",
"                L } } } s q ] q Y ] 9             .     .   .               * h * = 9     Y V =   .   .                         ",
"                    & &     1 L q = > .         .         .   .                   V Y = &   V T   .                             ",
"                              d   . .               .     .       .                   q Y h ] ] h .                             ",
"                                . . . .   . .             .   .     .                   q q q y y                               ",
"                                . .   . . . .         . .         .   .   .                       .                             ",
"                                . . . .   .     . . . .   . .   .   . . .   .                                                   "
};
