/* XPM */
static char *octo[] = {
/* columns rows colors chars-per-pixel */
"64 64 191 2 ",
"   c #000000",
".  c #090406",
"X  c #06060A",
"o  c #0D0609",
"O  c #060808",
"+  c #090B0C",
"@  c #10070A",
"#  c #14090D",
"$  c #0B0C13",
"%  c #0F0F19",
"&  c #130E15",
"*  c #1C0D12",
"=  c #0F1417",
"-  c #0F101A",
";  c #11121C",
":  c #161919",
">  c #210F15",
",  c #241017",
"<  c #251119",
"1  c #2C141C",
"2  c #30161F",
"3  c #141522",
"4  c #171927",
"5  c #1A1A2A",
"6  c #1D1E31",
"7  c #281926",
"8  c #271B29",
"9  c #241B2A",
"0  c #351822",
"q  c #331A26",
"w  c #3A1A25",
"e  c #3E1D28",
"r  c #1D292B",
"t  c #1F2134",
"y  c #252626",
"u  c #21322F",
"i  c #24253C",
"p  c #2E2539",
"a  c #382B31",
"s  c #3B273C",
"d  c #263435",
"f  c #421E2A",
"g  c #42212E",
"h  c #432433",
"j  c #462936",
"k  c #44293E",
"l  c #48323D",
"z  c #2D433E",
"x  c #262840",
"c  c #2B2B45",
"v  c #2C2E4A",
"b  c #372B43",
"n  c #2C3445",
"m  c #323454",
"M  c #373657",
"N  c #37395C",
"B  c #3A3A5D",
"V  c #3A3C61",
"C  c #452C43",
"Z  c #462F48",
"A  c #4A3945",
"S  c #47324E",
"D  c #453553",
"F  c #493A5A",
"G  c #473D61",
"H  c #4A3E62",
"J  c #374946",
"K  c #36514C",
"L  c #374457",
"P  c #3B5953",
"I  c #3E4566",
"U  c #534A53",
"Y  c #455656",
"T  c #53565A",
"R  c #5D5D5D",
"E  c #664A54",
"W  c #45625C",
"Q  c #4A4167",
"!  c #41456D",
"~  c #4B446C",
"^  c #47586B",
"/  c #454773",
"(  c #4B4771",
")  c #464975",
"_  c #4C4975",
"`  c #4C4D7C",
"'  c #4E517C",
"]  c #555775",
"[  c #486D65",
"{  c #5D6B6B",
"}  c #4C726A",
"|  c #51766E",
" . c #4E6E72",
".. c #537570",
"X. c #537D74",
"o. c #666368",
"O. c #687A77",
"+. c #8D777F",
"@. c #558077",
"#. c #59867C",
"$. c #63837E",
"%. c #4D4F80",
"&. c #4E5183",
"*. c #515585",
"=. c #525A86",
"-. c #545F88",
";. c #596789",
":. c #596B8B",
">. c #5B7A87",
",. c #5C728C",
"<. c #5E7691",
"1. c #5F7992",
"2. c #787B8F",
"3. c #676994",
"4. c #607C93",
"5. c #797CA1",
"6. c #5C8684",
"7. c #5F9085",
"8. c #6A8E87",
"9. c #67898C",
"0. c #66958D",
"q. c #6D958E",
"w. c #638495",
"e. c #678B98",
"r. c #6A949B",
"t. c #6D9B9F",
"y. c #789B96",
"u. c #6DA599",
"i. c #72A59C",
"p. c #74A99E",
"a. c #7489A0",
"s. c #6F9EA0",
"d. c #7696A3",
"f. c #6FA0A0",
"g. c #71A5A2",
"h. c #74ABA4",
"j. c #77B3A7",
"k. c #78B5A8",
"l. c #898989",
"z. c #918C9A",
"x. c #A39298",
"c. c #8C93AA",
"v. c #9496B4",
"b. c #9A9DB5",
"n. c #A69AA4",
"m. c #8CABA8",
"M. c #83BBAF",
"N. c #98A8B8",
"B. c #85BCB1",
"V. c #8ABFB4",
"C. c #98B7BB",
"Z. c #A2A2A2",
"A. c #AAABB0",
"S. c #A3A5BF",
"D. c #B5B6B6",
"F. c #8CC0B5",
"G. c #94C4BA",
"H. c #9BC8BE",
"J. c #ABACC4",
"K. c #ABB4C5",
"L. c #BDBECA",
"P. c #C1BEC9",
"I. c #9ECAC0",
"U. c #A2CCC3",
"Y. c #A8CFC7",
"T. c #ACD1C9",
"R. c #BEC4D0",
"E. c #BAD4D0",
"W. c #BDDAD4",
"Q. c #CCC7C9",
"!. c #C8C8D6",
"~. c #C1DDD7",
"^. c #C7D9D8",
"/. c #CAE2DD",
"(. c #D9E0DF",
"). c #D3D7E1",
"_. c #DADBE5",
"`. c #D2E6E2",
"'. c #D6E8E4",
"]. c #DDECE9",
"[. c #E4E2E3",
"{. c #E4E7EC",
"}. c #E1EFEC",
"|. c #EAE9EB",
" X c #E4F0EE",
".X c #ECEDF2",
"XX c #E9F3F1",
"oX c #F1F6F6",
"OX c #F3F6F7",
"+X c #F5F9F9",
"@X c #FFFFFF",
/* pixels */
"                                                                                                                                ",
"                                                                                                                                ",
"                                                                                                                                ",
"                                                                                                                                ",
"                                                                                                                                ",
"                                                                                                                                ",
"                                              3 4 u u u u u u u 3 ;                                                             ",
"                                              _ =.k.k.k.k.k.k.j.&.N                                                             ",
"                                      @ > J P N.K.E.E.E./.E.E.E.J.b.l.T c $                                                     ",
"                                      * f $.j.oX@X@X@X@X@X@X@X@X@X@X@XS.&.3                                                     ",
"                                  $ G 2.Q.(.].@X@X@X@X@X@X@X@X@X@X@X@X{.).y.#.                                                  ",
"                                  ; *.b.@X@X@X@X@X@X@X@X@X@X@X@X@X@X@X@X@XI.k.o                                                 ",
"                                2 E +X@X@X@X@X@X@X@X@X@X@X@X@X@X@X@X@X@X@X@XoX*.V                                               ",
"                                U o.}.}.}.}.}.@X@X@X@X@X@X@X@X@X@X@X@X@X@X@X@X5.]                                               ",
"                                i.k.k.k.k.j.k.oX@X@X@X@X@X@X@X@X@X@X@X@X@X@X@X@XQ.                                              ",
"                            5 x j.k.k.k.k.k.k.oX@X@X@X@X].~.oX@X@X@X@X).J.z.l.K.c.> @                                           ",
"                            V *.j.k.k.k.k.k.k.oX@X@X@X@XT.j.XX@X@X@X@XS.&.3   ` _ f ,                                           ",
"                             .r.j.k.k.k.k.E.'.@X@X@X].U.~.'.oX@X@X}.U...5 +   4 9 f ,                                           ",
"                            #.k.k.k.k.k.j.`.@X@X@X@X`.k./.@X@X@X@X'.k.P         . f <                                           ",
"                        * e 8.k.k.k.k.T.oXY.M.M.B.B.k.k./.@X@X@X@XD.$             .                                             ",
"                        , f 8.k.k.k.j.T.XXI.k.k.j.k.k.k./.@X@X@X@XD.                        . + $ $ $ + +                       ",
"                        , g 8.k.k.k.j.j.k.k.k.k.j.j.k.k./.@X@X@X@XD.                        w h &.&.%.Z f .                     ",
"                        > f 8.k.k.h.e.6.[ [ [ e.r.j.j.j./.@X@X@X@XQ.t %                 @ > U o.v.v.v.z.+.Y d                   ",
"                        > f 8.k.k.f.&.v       ) ;.k.j.j./.@X@X@X@X!.&.i                 1 g i.V.@X@X@X@X@XV.i.                  ",
"                        o * ^ 1.j.0.t -       5 n k.H./.XX@X@X@XY.C.r.6.[ L m   $ m p 1 w f :.a.@X@X@X@X@X`.~.m i               ",
"                            V &.j.7.            = k.Y.@X@X@X@XoXk.j.j.j.j.:.%.X ; *.F f f f ` 3.@X@X@X@X@X@XoX&.N               ",
"                            q j h.0.            $ =.v.@X@X@XI.F.k.f.-.e.j.h.f.0.$.h g f f f ` *.3.a.V.`.@X@XoXh...              ",
"                            7 e i.6..           $ / c.@X+X.Xk.i.k.r.) >.u.u.u.j.9.h g f f f _ ` ( :.i.E..XoXXXk.X.              ",
"                                ` ( f <             R @Xv.` ;   j.@.          %.&.&.F f f f f f f f f H &.f.k.j.X.              ",
"                                m m Z 9             Y '.2.m + + k.@.          G ~ &.F f f f 1 1 1 1 1 b m e.t.j.X.              ",
"                                  - &.v             z k.J     o j.@.          f k &.F h f f .             ! =.k.X.              ",
"                  < 7 v L W [ W   o i y < < <   X v I 4.d     + 1.;.v 3       * 8 *._ F 8 *           @ < ( &.1.^               ",
"                  f C &.w.j.j.j.o     > f f f . $ &.&.&.t     o &.&.&.t         ; %.%.&.5             1 f _ %.&.N               ",
"              N ! q.m._.}. X X}.0.[   . o + + V ) f. .- X       - d h.T q B I   3 &.&.&.b q           c ( *.` % $               ",
"              ! =.k.I.@X@X@X@X@XF.0.          ' :.M.|             d k.{ h _ &.O 4 %.*.%.Z f .         v ` ` _                   ",
"          < f q.k.k.I.@X@X@X@X@X@X_.&.v       [.@X@XZ.            d k.k.k.:.&.&.%.%.%.*.Z f .         1 f g f   @ f <           ",
"          7 C 9.s.k.G.].'.].oX@X@X_.&.N 3 r u }.@X@XA.3 @ @ 4 4 @ d t.h.k.4.:.&.%.&.( ~ k f * .       * 2 f w @ * 0 @           ",
"          m &.&.*.k.k.k.j.j.].@X@X_.&.&.&.t.j.oX@X@XL.&.S f _ %.f C %.e.k.k.j.*.*.*.F f f f f w           q f f 1               ",
"          v &.&.&.w.>.P T { c.J.J.c.&.&.&.N.W.oXoXE.N.&.~ F ` %.F H &.c.~.E.E.e.,.D C f f f f w           * > > *               ",
"          v &.&.&.&.N   > f ~ *.%.&.&.&.&.!.@X@XoXj.r.&.&.&.&.*.&.*.&.J.@X@X@Xk.8.f f f f f f w                                 ",
"          7 C ( %.&.V   . @ ; 3 b S &.<.t.).@X@X|.:.] C 9 3 3 3 3 9 C n.@X@X@X].R.~ S g f f H H q *                             ",
"          < f ( %.*.V           w k ` 1.j.`.oX@X|.&.H w *         @ f x.@X@X@X@X_.&.F f f f ` ` f 1                             ",
"              ! %.%.! e >           + K k.k.k.B.h.*.m                 W k.}.@X@X}.k.{ g f f ` &.` m                             ",
"              B _ &._ j <             J f.j.k.k.g.*.m               + Y t.].@X@XXXG.O.2 w w ;.;.:.M                             ",
"              w h *.&.&.x             i &.r.k.k.h.&.m             @ f F %.).@X@X@X@Xl.  2 f h.j.k.}                             ",
"              * < c M &.x             ; v 6.k.k.g.&.B * +         ; D ~ &.K.~.@XoX~.O.  * , >.e.k.| * o   * * * @               ",
"                    4 &.x                 @.k.k.h.&.H f *         3 &.&.&.t.k.@X}.j.W       ) ;.k.O.g *   w f f 2               ",
"              , 1   @ C 9                 a U h.g.%.` Q 9       0 s &.<.r.j.k.U.C.,.L       C Z U A f 2 1 f w * * 1 @           ",
"              w w   @ f >                 1 g i.h.&.&.&.6       f C &.e.k.j.k.k.t.&.v       w f g f f f f f w   * f ,           ",
"                . e f f >                     h j &.&.&.i     X ` %.&.&.=.=.=.j f + X         @ g g f f f @                     ",
"                  w w q *           $ & : y y l A &.&.&.6   . @ %.&.&.` ( / ! w 1             o w w 2 2 q .                     ",
"                                  ; *.4.k.'.@XB.h.&.&.&.i   w g &.&.*.D f @                           .                         ",
"                            @ > z Y v.C.T.~.^.t.e.&._ H 5   q h <.4.<.] S $             @ *                                     ",
"                            2 g h.G.@X@X@XY.k.=.&.&.H f *   w j j.k.k.4.&.3             1 f                                     ",
"                            b Q T R o.R R J z i 6 6 5 * .   @ : k.V.^.^.L.] m 1 >   @ 1 , *                                     ",
"                            B &.g 2                           o k.U.@X@X@X5.` f q   * g @                                       ",
"                            q h o .                             l U 3.d.V.^.|.[.P.! S e @                                       ",
"                            1 f +                               w k ` >.i.).|.|.!._ D w @                                       ",
"                                w q                                   1 f f f f q                                               ",
"                                1 ,                                   @ 1 1 1 2 ,                                               ",
"                                                                                                                                ",
"                                                                                                                                ",
"                                                                                                                                ",
"                                                                                                                                "
};
