/* XPM */
static char *paint[] = {
/* columns rows colors chars-per-pixel */
"64 64 233 2 ",
"   c None",
".  c #391D19",
"X  c #231E1A",
"o  c #2C241E",
"O  c #24201D",
"+  c #31261E",
"@  c #3C241D",
"#  c #32281F",
"$  c #2D2620",
"%  c #2D2925",
"&  c #2B2C2B",
"*  c #262523",
"=  c #312720",
"-  c #342B22",
";  c #392E25",
":  c #392F29",
">  c #362A26",
",  c #3B3026",
"<  c #33312D",
"1  c #3D332A",
"2  c #2E3435",
"3  c #333534",
"4  c #3C3632",
"5  c #333939",
"6  c #3C3C3A",
"7  c #3C3B35",
"8  c #2A302D",
"9  c #43231D",
"0  c #4B241D",
"q  c #422E1F",
"w  c #57241E",
"e  c #64271F",
"r  c #432C25",
"t  c #4A2A23",
"y  c #4A2823",
"u  c #5C2A22",
"i  c #552A23",
"p  c #41362C",
"a  c #4C312B",
"s  c #44392E",
"d  c #4A3427",
"f  c #573729",
"g  c #453B32",
"h  c #493D34",
"j  c #453C37",
"k  c #533C33",
"l  c #5B3D32",
"z  c #642B22",
"x  c #6B2D24",
"c  c #672720",
"v  c #742C23",
"b  c #7A2C23",
"n  c #673229",
"m  c #7B3128",
"M  c #663C34",
"N  c #4C4136",
"B  c #4D433A",
"V  c #44423B",
"C  c #554236",
"Z  c #51453B",
"A  c #54493E",
"S  c #5C463A",
"D  c #5B422E",
"F  c #66452D",
"G  c #654639",
"H  c #764B32",
"J  c #3B3E40",
"K  c #3C4748",
"L  c #464846",
"P  c #534641",
"I  c #554A42",
"U  c #5A4D43",
"Y  c #564E49",
"T  c #48504C",
"R  c #5D5046",
"E  c #5D524B",
"W  c #52504F",
"Q  c #455153",
"!  c #495657",
"~  c #585654",
"^  c #444F53",
"/  c #634C42",
"(  c #6D4C42",
")  c #61554B",
"_  c #6A554B",
"`  c #685549",
"'  c #755A4B",
"]  c #645A53",
"[  c #6B5D54",
"{  c #6A5C56",
"}  c #765D51",
"|  c #784B41",
" . c #57615D",
".. c #6C6056",
"X. c #6E625A",
"o. c #736255",
"O. c #73655D",
"+. c #7B695E",
"@. c #78665B",
"#. c #556566",
"$. c #5C7175",
"%. c #756760",
"&. c #766961",
"*. c #7B6C64",
"=. c #786F6B",
"-. c #7E7066",
";. c #7E7169",
":. c #777169",
">. c #66706D",
",. c #832D24",
"<. c #8B2E25",
"1. c #8C3026",
"2. c #833026",
"3. c #963127",
"4. c #88463E",
"5. c #835549",
"6. c #895E53",
"7. c #9A5248",
"8. c #876A5A",
"9. c #956C56",
"0. c #956F58",
"q. c #836E62",
"w. c #837165",
"e. c #8C7363",
"r. c #83746A",
"t. c #86786D",
"y. c #8A7A6D",
"u. c #8B7667",
"i. c #927C6B",
"p. c #967966",
"a. c #8C7D72",
"s. c #867970",
"d. c #967669",
"f. c #A67C67",
"g. c #9E8265",
"h. c #9C846B",
"j. c #8F8175",
"k. c #8D827A",
"l. c #84857B",
"z. c #928276",
"x. c #94857A",
"c. c #96887C",
"v. c #9B8A7C",
"b. c #9B8674",
"n. c #A1856A",
"m. c #A58A6D",
"M. c #A78A6B",
"N. c #A58C73",
"B. c #A98E72",
"V. c #A28F7B",
"C. c #A68775",
"Z. c #AB9275",
"A. c #A5917C",
"S. c #AD947A",
"D. c #AC967C",
"F. c #B1967A",
"G. c #B3997D",
"H. c #B69879",
"J. c #B28A74",
"K. c #BBA07F",
"L. c #6A7F83",
"P. c #698488",
"I. c #7C9397",
"U. c #768D90",
"Y. c #9C8E82",
"T. c #968A80",
"R. c #9E9085",
"E. c #9F948B",
"W. c #85948E",
"Q. c #A39385",
"!. c #AD9983",
"~. c #A59689",
"^. c #A6988C",
"/. c #AB9A8C",
"(. c #AA9687",
"). c #B49C82",
"_. c #B89D82",
"`. c #B19E8C",
"'. c #B69986",
"]. c #AC9E91",
"[. c #B09F90",
"{. c #A28E83",
"}. c #BCA285",
"|. c #B6A18B",
" X c #BCA58C",
".X c #BFA88E",
"XX c #B6A087",
"oX c #AEA194",
"OX c #AEA299",
"+X c #B3A394",
"@X c #BAA693",
"#X c #BDA994",
"$X c #B4A699",
"%X c #B6A99C",
"&X c #BBAB9B",
"*X c #BCB29D",
"=X c #BDAEA1",
"-X c #BFB0A2",
";X c #84A1A4",
":X c #C19D82",
">X c #C2A68B",
",X c #C1A98E",
"<X c #C3A387",
"1X c #C3AC93",
"2X c #C1AE9B",
"3X c #CAAC92",
"4X c #C9B196",
"5X c #C5B19C",
"6X c #CAB49C",
"7X c #C9B299",
"8X c #D5B49B",
"9X c #D2AF94",
"0X c #C3B3A3",
"qX c #C9B6A2",
"wX c #CDB9A4",
"eX c #C6B9AB",
"rX c #CDBCAB",
"tX c #C2B5A9",
"yX c #D1BCA5",
"uX c #DBBBA3",
"iX c #D1BFAA",
"pX c #CBBEB1",
"aX c #D4C1AD",
"sX c #DFC4AD",
"dX c #CEC1B4",
"fX c #CEC6BB",
"gX c #D4C4B3",
"hX c #D8C6B3",
"jX c #D9C8B6",
"kX c #DACBBB",
"lX c #D5C9BC",
"zX c #A2C2C3",
"xX c #DBCFC3",
/* pixels */
"V.N.A.m.m.g.h.B.    Z.D.D.D.!.m.D.D.Z.h.B.m.g.B.B.Z.G.B.M.S.m.n.    Z.m.M.B.B.B.S.B.S.B.n.n.M.B.S.  B.Z.F.Z.B.Z.G.Z.B.D.Z.Z.    ",
"A.!.).S.Z.Z.F.G..X  #X1X7X7X*X.X@X@X1X.XXX.X.X}.}.#X7X.X>X>X1X1X1X1X1X,X1X,X,X X1X:X_.1X>X>X,X,X1X1X1X,X,X}.H.K.K.K.K.}.F.K.K.D.",
"A.!.D.XX}.,X1X7XwX6XwXwX7XqX7XqX7X@X#X@X#X|.j.} D ` |.1X7XqX7X7X7XqXwXwXyXeX6XwXyXyXyXiXyX7XyXyXyX8X7X7X4X6X4X<X}.K.K.<XK.,XG.G.",
"N.).)..X1X6XyXaXaXaXaXwXqX*X7X-X@X&X&X&Xy.D f f F F N -./.iXeXeXaXaXeXaXaXaXaXyXiXiXiXiXaXhXhXiXaXhXaXhX6X6X4X4X}.}.K.K.}.,X}.G.",
"g.). X7XwXaXwX6XiXiXwXqX7X&X&X+X[.[.[.u.d F H F D d ; h ) 7XeXeXpXpXpXeXgXeXgXgXiXiXpXlXlXlXjXjXjXgXjXjXaXyX6X6X4X<XK.K.,X}.}.K.",
"B.!.,X7XyXyXaXaXiXeX7X2X%X+X+X/.Q.A.r.C F H s r # o - - A /.&X=XqX=XqXeXeXqXeXeXtXrXiXpXiXgXgXxXkXjXaXaXaXyX7X8X4X7XK.K.<X<X}.G.",
"m.XX1X6XyX8XgXaXaXqX&X@X+X/./.Q.Q.@.} -.N # # , S @.n.S h *.*.].oX$X$X=X&X&X&X=X0X0X0X0XrXpXpXpXgXgXgXaXyXaXyX7X8X7X1XK.<X1X}.XX",
"Z.XX1XaX6XaXgXgXeXqX&X[.+XQ.v.Y.b.B j P h d l 9.8Xm.i.G p 4 e./.~.].^.].]./.].].[.[.[.%X%X0XeXeXaXdXgXeXwXyXyX7XyX8X7X1X}..X}.G.",
"D.F.,XyXyXaXaXaXeX&X$X/./.Q.x.z.w.p s - r k ' +.>X>XS S h E z.{.Y.Q.Y.Y.{.{.~.Y.~.].~./.$X$X=X=X-XdXdXqXaXaXaXqXh.+.o.R A A o.o.",
"F.XX,XaXaXgXeXwXqX+X!.Q.v.Y.z.j.e.h < r # p S y.8XyX' 9.> q.x.c.x.v.c.x.T.x.x.Y.Y.Y.~.~.].].=X=X%X=X=X6X-X|...N 1 p , N p 1 N , ",
"XX}.7XaXhXaXaXeX&X+XQ.Q.x.x.y.t.r.j h < s F f.uXuXd.i.9.q ' r.a.a.a.a.a.a.a.x.c.x.x.c.Y.~.].].$XOX%X*Xj.A < 1 1 p 1 p V N , , , ",
"XX.X7XaXaXaXeXeX-XoX~.R.c.j.O.+.*.U h < f q 9.sX3Xi.N.l d C t.t.r.r.*.r.q.r.t.r.a.x.a.x.x.^.OX].OXE.R 1 s 4 1 N 1 1 p p d d , N ",
"XX1X7XaXgXgXaX-X%X].Q.v.v.-.+.j P { 4 r f f @ ' V.S.} f @ r *.q.r.&.&.&.&.{ *.*.r.s.t.r.x.{.^.a.E p p N p p 1 p E A.N , , , N p ",
"G.7XwXaXkXgXdXqX&X/.Q.v.x.{ k.oX) k < p D d , C a / D f . > U O.&.&.{ { { { a.L [ &.&.*.t.X.h s V s p s N 1 p E v.p d N p N , N ",
"!.6XwXaXaXgXpXqX%X/.Q.x.x.] lXlXs._ N , % < - _ 9.5.- * % r % { { O.E =.].Y.E &.P j h = o # ; ; p , p N V N 1 1 p p N N N N d p ",
"Z.7XaXjXgXgXeXqX%X].Y.v.k.E E.xXc.] < I V 4 3 * W V & #.^ 5 j P / =.pX].Y P j = = ; = = = < ; s Z p p s p 1 1 N 7 A N N N V p p ",
"Z.1XgXhXjXaXaXqX=X[.{.a.*.j { tXtXX.% 4 j 3 4 7 K 5 #.P.! ! L &.dXfX] p 1 1 # 1 # # o % , # A l.p , p p , p p j h N N p C N p p ",
"m.1X6XaXjXjXeXqX=X[.^.T.a.] E =.=.E : / / O.L #.W W.I.K ^ ! ^ pX].1 # # # # # # # 1 1 1 N , N N V p , , h p p N N h N N p N p p ",
"G.1XwXaXkXgXgXeX2X[.~.c.T.y.r.P h ( j h i.i.V K  .;XP.5 L.K 8 >.X o # # # # # # 1 # ) A 1 1 , p N p < S h p p s N A N N N C p p ",
"K..XwXaXgXaXgXeXtX[./.c.T.a.=.{ [ './ [ A *.T T.=.~ E j 8 K 8 O # # , # # # 1 1 p 7 A , # # , , N p B Z p , p < p B j Z Z N p p ",
"K..X1XsXjXaXgXaX0X[.~.{.y.y.r.&.q.8X' +.O.< :.oX-XfX:.[ f.8.# ; # # # # 1 1 # C ) 7 A 1 , , , N V p U p , , p p N A N R A s , , ",
"K.}.6XaXgXgXdXaXtX[.].T.a.y.r.&.e.S.[ b.*.6 J >.pXxXT._ H.e.; # # # # p 4 # -.V B E ; 1 , , p N s R s , < p p h N A R A p N 1 @ ",
"K.D.6XaXgXkXlXaXtX%X].{.T.r.&._ e.e.o.C.O.Y 6 2 ! lXq.>Xf.S ; ; # # p 1 ; ;.4 N ] ..< 1 , p p N Z C , , p p < N C A ` N N s , , ",
"Z.XX6XaXjXkXgXeXtX[.].{.a.r.r.[ @.e.{ ].{ E 8 8 K W k.*Xz.5 = < p N 1 # ..; # N A ..1 1 , , N N R p , < , p s C R ) N C N 1 , , ",
"Z.F.1XhXjXjXgXeXqX].~.Y.a.s.r.&.[ _ [ ~.{ j ! $.K L W  .J 2 & j B 1 &.c.< p 1 1 Z t.# p p 1 N A 7 , p 1 , p s R ] A Z Z V q p , ",
"Z.K.1XaXjXjXgXpXqX$X~.~.a.r.*.&.&.&.&.{.{ L & K U.>.P.Q O % O j 1 l.].B N 1 V 1 E O., , p s N N s , , < p p A ] A A Z N N , , , ",
"Z.F.7XaXjXkXgXeXqX%X~.T.a.q.&.O.&.=.&.T.a.& O & & W.! $ & 5 T s N 4 N N N V N 1 l.` , s s N V , , , p p p s Z A Z A Z N , p d p ",
"B.H.7XhXjXaXgXaX=X].~.x.a.t.*.&.&.r.{ a.Y.Q L < o O $ & 5 I.>.3 1 1 # N N B p +.j.V 1 p s V N N s , p p p s Z A A N Z N p d p p ",
"H.}.7XaXaXgXeXqX%X/.Y.x.a.*.O.&.{ U - Y t.E ^ < $ $ o o V >.! U.6 p B A N 1 1 z.-., p s s p V s , , s s p s R A A N s s p p p p ",
"F.1X7X7XgXaXwX*X[.{.c.y.*.*.@.{ p > $ 5 k.] < / $ o O - < W zXL.5 B A N N N +.z.Z N p p V N N , s , 1 1 p s R A A A s s p N p , ",
"Z.6X6XaXyXaX*X&X/.{.a.y.*.*.U - > - % X.=./ a.a s < S < : l.#.! $.A N N N 7 ^.R.- p p p d p , , 1 1 1 1 p N ) -.N N N N d s p q ",
"B.1XaXaXaX6X*X+X~.c.a.w.O.h o # > ; K Y { > '.e.a 8.' ` '.3 L ;XI.7 p B < ^.^.c.< s 1 p , , # , < 1 p s , N +.j.) N N N s p s s ",
"n.1XwXyXwX*X&X[.R.z.j.j.Z o # # ; 3 >.K p 9 e.0.U _ 1Xi._.Z L W.#.6 ; o N R.^...; p < p # - ; - ; p p p s p j.;...Z N N s , s s ",
"m.,X7XeX7X@X+X[.Q.V.j.r.3 ; # # # 4 K E t w { o.z.p ) S U N ,X-.! b.V ; , ..O.% : - ; ; ; ; ; ; ; < < ; , 4 u.u.` Z N V s s N q ",
"Z. X1X7X*X&XOX^.^.R.c.-.o ; ; # - R A.[ t y P x.: ) , , - / uX8X8X}.N ; ; # o 4 : ; $ $ O # ; ; 4 r r < , , +.+.` N A N N , , q ",
"B.}.1X1X&X+X[.(.(.R.j.j.4 o # # # ` 8X3XG w j M f - - - < - p.>XuX7X, , # # , 1 : = o $ # o = ; , , , r , , N ` E E B A N N q N ",
"J.K.}.#X|.!.^.^.R.R.z.t.; ; # # - , o.h 0 . . 0 y < S p # , - J.:XuXb.; , o 1 , > = / P p > = = # ; , < p p , s ` A A N N N N N ",
"B.F..X.X[.[.oXR.R.R.z.< # 1 # # # 0 w w 0 e e 0 P ..E P , # < S n.F.8Xw.# ; , ; % a %.&.*.*.O.~ N , ; < r < p p N A A V N N N D ",
"B.Z.|.|.[.!.(.~.Y.R.+.- # # ; # @ ,.e e b v 9 V ....E P , , , - S :X8X XN # # # > ~ { O.O.O.O.*.+.-.E B < r p s N V N N N d N N ",
"m.Z..X|./.(.(.Q.Q.R.t.- 1 1 # # ; v v b e b d * Z xXk.j V , , , ; J.<X).@.:.; 1 4 *.%.X.O.O.%.*.%.%.;.;.C < p < N N N N N N N N ",
"B.B.Z.&X!.^.(.R.R.(.-.1 1 # 1 N p b m b i u w 9 - - < h < s , - - 8.0.[ pXxXO.< P O.&.O.O.O.%.O.*.=.*.;.t.t.z.r.A 1 4 p N N N N ",
"M.B.XX[.!.^.^.(.^.(.I < 1 s C V k ,.x v s t b ,., , , , N C , - ; $ a.kXpXpXpX=.=.&.&.&.*.=.O.O.O.%.%.*.-.a.c.z.V.A V 7 p p p N ",
"B.Z.XX|.(.(.^.(.R.R.1 1 1 1 1 A k b n n : p n 7.r , < : N , - - # < oXlXE.xX^.a.E &.&.&.*.%.*.%.O.O.%.%.*.r.z.c.b.c.b.A.V.B.B.N.",
"B.Z.XX|.].(.^.].].+.1 1 1 N C A s b n n p s k 7.k h s s , - - - o j s.Y.=XfXT.T.P &.{ &.O.O.%.%.O.O.+.O.-.r.j.z.z.b.V.A.b.h.B.B.",
"B.Z.|.|./.R.R./.^.I 4 1 p V R R j m x M h h h 3.k j h j ; ; ; # # o - Y.=X-Xx.T.P &.O.O.O.O.*.O.%.&.O.{ O.+.w.y.c.b.V.V.b.h.B.B.",
"m.B.@X+X|.].(.].R.; 1 1 p Z / p j n n f A B k M s B B p o = ; o # # o = =.eXOXS < O.&.O.X.O.%.O.&.&.&.*.-.-.-.y.b.c.R.b.h.N.h.B.",
"Z.D.|.*X|.].R.].u.1 r 4 p Z j N j n u l P h : n a h s Y G t # # - o o O L E { e.d.P O.O.X.O.X.X.&.&.O.*.-.;.j.c.c.c.V.v.b.B.b.h.",
"m.XX&X*X*X].(.].A 1 1 , N N B B N a u f h h A u r : Y k y > p ; # o = U O.s ` J.S.P O.&.&.*.{ O.{ O.&.*.-.r.r.x.c.V.c.V.b.V.B.h.",
"B.XX@X7X-X+X^.;.p < , p N N N N h p u r M U k u r h / y 9 y : > @ ] *.*.*.C n.9Xd.&.O.&.{ O.{ { { O.&.O.w.r.j.z.v.b.b.Q.b.h.h.h.",
"Z.XX@XqX&X+X+.- p p p s p N V N p ; ( s } / ( y t a y y y > . 0 u M t.t.+.G J.8Xe.i.{ { { O.%.O.{ { O.*.*.y.z.c.v.v.c.A.A.g.h.N.",
"G.D.*XqX&X;.< p p p j Z p p , , ; ; p p G / r y . 9 k w 9 u z c b c / a.q.e.3X9Xq.q.O.{ O.O.O.*.O.O.*.q.t.a.z.v.Q.Q.~.Q.A.V.p.B.",
"D.!.7XqX7XU p p p h S < , r , < p p p p h : > 9 i f i 0 z m b 2.v v | -.E 8.'.i.P X.&.O.*.O.O.O.*.*.t.t.a.x.v.Y.~.~./.(.!.A.g.h.",
").).7X&X[.4 C j A Z p ; < < r p s s 4 s = y . u f i u u v <.b b b 6.~.x.] O.+.) &.q.t.*.*.t.*.t.q.t.y.a.v.{.v.Y.(.Q.^.(./.S.h.B.",
"G..X6XwXwXX.V R B p ; < h ..p p r p < > w 9 v 9 z z z z b <.v v m a.Y.Y.c.x.x.a.r.r.a.a.j.j.t.j.a.a.a.x.Y.Q.Q.Y.V.^.[.[.!.[.B.A.",
"|..X7XaXwXk.Z N h p p k 5.S p p % = o 9 9 e i 2.3.v b <.v c b x } {.~.c.x.Y.v.x.a.a.x.x.c.j.c.c.T.Y.T.Y.~.~.~.~.^.^./.|.|.!.N.Z.",
"|..X7XwXwX..N p p p j t 5.p - V k.4 o 4 9 e m 2.3.3.1.b x c z M c.V.(.c.V.~.v.Q.Y.v.v.v.v.c.^.E.Y.~.{.~.~.]./.].OX(./.`.|.).N.B.",
"K.|.4X6XyX..N N < h h h 5.s h ].L %.P i u v 1.1.1.1.<.b v x u 8.(.V./.Q.Q.Q.A.Q.(.~.Q.^.^.^.^.^.^.Q.~.~.Q././.+X&X(.XX|.@XD.Z.m.",
"B.}.,X6X6Xy.h s h p s j s [ X.s.E l i z z n v v x x x m x x M /.`.`.`.`.`.`./.`./.+XoXoX[.[.].oX].oX].oX].oX!.+X&X|.@X.X}.K.Z.g.",
"D.G.,X6X6X|.V Z N N p - M 5Xk.%.a.G n n x v x x v n n n x i 0.@X2X2X2X&X%X@X X@X&X%X&X%XoXoX+X%XoX+X$X%X&X+X+X&X&X#X7X@XK.G.Z.m.",
"B.Z.}.1X6X6XP Z h ..%.Q.(.q.a.^.qX).6.| | 6.i.J.f.'.f.f.J.2XwXqXqXqXqXqXqX0XqXqXeX-XqXeXqX=X&X&X&X&X&X&X&X@X&X*X@X#X7XXX}.G.F.B.",
"M.B.F.1X1X7Xv.P y.yXiX/.2X2XqXwXwX@XwXwXwXeXwXwXtXiXiXiXiXeXaXaXiXyXwXyXiXyXqXiXwXaXqXqXqXeX*X-XqXqX-X*XeXqX7X7X1X1X.X}.K.G.F.B.",
"g.Z.F.K. X1X,X X1X1X1X7X2X2X9X2X1X.X1X7X7X7XqXqX5X5X5XiXyXwXyXyXiXiX7XiXiXyXyXqXaXaXwXqXqX7X2X7X7X&X2XqX7X7X@X&XXXG.XXK.Z.F.K.G.",
"g.g.Z.D.Z.S.G.).  ).S.).F.).'.S.Z.Z.).).). X).}.@X X'.'.@X X X X X1X1X>X1X X1X1X1X@X@X X|.G.).).|.`.F.S.G.S.D.G.D.G.G.Z.Z.B.Z.m.",
"  g.D.B.S.          S.B.N.  f.n.m.n.N.A.B.B.m.Z.(.'.B.n.m.Z.m.m.m.m.n.N.B.B.  B.N.Z.D.D.(.S.A.S.S.S.m.m.D.Z.Z.  Z.Z.XX  Z.Z.B.g."
};
