/* XPM */
static char *scrim[] = {
/* columns rows colors chars-per-pixel */
"64 62 101 2 ",
"   c #212121",
".  c None",
"X  c #232324",
"o  c #242424",
"O  c #252525",
"+  c #262626",
"@  c #272727",
"#  c #292121",
"$  c #282828",
"%  c #292929",
"&  c #2B2B2B",
"*  c #2C2C2C",
"=  c #2D2D2D",
"-  c #2E2E2E",
";  c #303030",
":  c #313131",
">  c #343434",
",  c #363636",
"<  c #383838",
"1  c #393939",
"2  c #3A3A3A",
"3  c #3B3B3B",
"4  c #3D3D3D",
"5  c #3F3F3F",
"6  c #462421",
"7  c #522521",
"8  c #512623",
"9  c #5C2622",
"0  c #5E2622",
"q  c #7E2922",
"w  c #77302D",
"e  c #404040",
"r  c #414141",
"t  c #444444",
"y  c #464646",
"u  c #4D4D4D",
"i  c #525252",
"p  c #535353",
"a  c #5A5A5A",
"s  c #535768",
"d  c #666666",
"f  c #6F6F6F",
"g  c #737373",
"h  c #787878",
"j  c #797979",
"k  c #922B22",
"l  c #A12C23",
"z  c #BB2E23",
"x  c #BE2E23",
"c  c #D03023",
"v  c #D83124",
"b  c #DD3224",
"n  c #D43A31",
"m  c #CB433F",
"M  c #9E5C63",
"N  c #AE606C",
"B  c #A76777",
"V  c #C24B4C",
"C  c #7E7F97",
"Z  c #86768A",
"A  c #967A94",
"S  c #987891",
"D  c #917F9B",
"F  c #7B8098",
"G  c #7C819B",
"H  c #7E84A0",
"J  c #7F85A2",
"K  c #878787",
"L  c #8C8C8C",
"P  c #929292",
"I  c #969696",
"U  c #969797",
"Y  c #999999",
"T  c #9B9B9B",
"R  c #8C84A3",
"E  c #8A86A7",
"W  c #828AAC",
"Q  c #858DAE",
"!  c #8E92A3",
"~  c #858DB0",
"^  c #8890B2",
"/  c #A3A3A3",
"(  c #ACACAC",
")  c #ADADAD",
"_  c #B7B7B7",
"`  c #B9B9B9",
"'  c #BABECF",
"]  c #BEC2D4",
"[  c #C1C1C1",
"{  c #CECECE",
"}  c #CFCFCF",
"|  c #D0D0D0",
" . c #D1D1D1",
".. c #D7D7D7",
"X. c #DFDFDF",
"o. c #E1E1E1",
"O. c #EFEFEF",
"+. c #EFEFF0",
"@. c #F5F5F6",
"#. c #F7F7F7",
"$. c #F9F9F9",
/* pixels */
" . . . . . . . . . . . . . . . . . . . . . . . . . . . . . . . . . . . . . . . . . . . . . .L @ O       O $. .$.$. . . . . . . .",
" . . . . . . . . . . . . . . . . . . . . . . . . . . . . . . . . . . . . . . . . . . .O.a a y , , 2 , , @ a a L  . . . . . . . .",
" . . . . . . . . . . . . . . . . . . . . . . . . . . . . . . . . . . . . . . . . .` T L     O , , , , @ < @ , a T T o. . . . . .",
" . . . . . . . . . . . . . . . . . . . . . . . . . . . . . . . . . . . . . . . .X.a O   O   O     O O @ 2 2 2 , O O ` O. . . . .",
" . . . . . . . . . . . . . . . . . . . . . . . . . . . . . . . . . . . . . . . .O O                 @ O O   , r r r O L  . . . .",
" . . . . . . . . . . . . . . . . . . . . . . . . . . . . . . . . . . . . . .{ e O                 , e 2 2 2 < @ r r O , f  . . .",
" . . . . . . . . . . . . . . . . . . . . . . . . . . . . . . . . . . . . ._ f $     O O O , , , , 2 2 @ @ r 2 < , , , O y  . . .",
" . . . . . . . . . . . . . . . . . . . . . . . . . . . . . . . . . . . .{ f       O @ 2 u a i a a 2 < O O 2 2 2 O O < < e { O. .",
" . . . . . . . . . . . . . . . . . . . . . . . . . . . . . . . . . . . .< $ O       y / T T / / Y u r 3     3 3 2 O @ @ 4 @ o.$.",
" . . . . . . . . . . . . ., , , < <  . . . . . . . . . . . . . . . .X.< O         f P Y T T T T / Y P j 3 + + , r 2 @ @ @ 4 o.$.",
" . . . . . . . . . .P j d   O O     g {  . . . . . . . . . . . . . .{ $         f P _ { X.X.X.{ T T / P g , + + , r , * @ 4 O.$.",
" . . . . . . . . ._ e O O         $ $ L {  . . . . . . . . . . . .X./           P _  .$.$.$.$. .` / Y Y / a , + O , 6 4 % 4 _ o.",
" . . . . . . .$.X.  O , 2 O O O         h  . . . . . . . . . . . .P         O O Y X.$.$.$.$.$.$.$.` Y T / Y d <   @ 4 < @ 4 4 ` ",
" . . . . . . ./ O O 2 e e e O           $ e  . . . . . . . . . . .P         e Y / Y [ $.$.$.$.$.$.$.] / Y Y Y g   @ 4 4 4 @ 4 ) ",
" . . . . . . ./ O   % 2 e e , O $ $       <  . . . . . . . . . .P e $     i h / / T [ $.g X.$. .` [ | { U / T g <   2 4 4 @ 4 _ ",
" . . . . .$.` g     O , e e 2 , $ $       <  . . . . . . . . . .p $       d / Y ' ` ` / O { O.X.[ [ o.O.] T / h <   4 4 @ @ 4 ) ",
" . . . . . .d O       % e e e e e y O O   2  . . . . . . . . .X.p     O O f / / O.O./   +  .| ` $. .$.$.$./ / h 3 O 3 , O   3 ( ",
" . . . . . .d O         % e e % ; e e %   <  . . . . . . . .+.  O     O L X.$.$.@   O     | $.$.$.5 ( $.$./ T f O r 3 ,     3 _ ",
" . . . . .a O O         $ O e ; % $ e 2 % 2  . . . . . . . .+.      + h | T i a + O       | $.o.a O / $.$./ T f O 5 r , O O 3 _ ",
" . . .o./ O O O         O   , % % O < , % <  . . . . . . . .O.  O , g { / p           O K o.$.|   O f ` $.T T f O r 3 + O @ L { ",
" .o.X._ 2             O     O , 2 O     < a  . . . . . . .+.{ $   a ( $.r O O       @ u $.$.$.X.      a $./ P d O 5 O O @ r O. .",
" .a 2 , O             ; 2     , e 2   $ j  . . . . . . . .(       p ` $.3 O         g $.$.$.$.X.    O a $./ r   O r O , r r o. .",
"d 2 , O               , 2 2 O O ; e 2 $ h  . . . . . . . .(     + a ( $.X.g   O { o.` K $.$.$.X.      d $. .d   O O O + 3 O o.$.",
"% 2 O                 $ 2 e , $ O , , O h  . . . . . . . ._       < f {  .[ P P { { [ ` $.$.$.|       3 P $.d   O O   , 3 O o.$.",
"O       O               O 2 2 % O     e P  . . . . . . . .( $       , T o.O.O.O./ ( ` { {  .$.X.        O $.K 3     O @ 3 O o.$.",
"O O     O O                   , <   $ `  . . . . . . . . .(         , T T T T T T o._ O   { $.X.        O $.$.(     O @ 3 + o. .",
"  O   O 2 O   O O O , O O O O O O O X.+. . . . . . . . . ._       + + @ L / T T $.g @ O   , P $.O., O   O $.$.` 3     , 3 O o.$.",
"  O O O 2     O O 2 P g % , , , , <  . . . . . . . . . ./ i     @ @ O   u h T / $.[ ( ( / 3 L $.$.( / ( ( $.$.` 3 O @ , + O o.$.",
"    O O e O O O O , T j , 2 , < , 2 _ _ {  . . . . . . .f $     3 @     + d / ` $.$.$.$.$.L ( $.o.$.$.$.$.$.X.L 3   3 , @ a O. .",
"    O O 2 O O % 2 O O O O O O O O O O $ h  . . . . . . .f       3 ,     + d ` $.$.$.$.$.$.$.$. ./  .$.$.$.$.d @ 3   3 , p $. . .",
"      O e e % g $.O. .' H ~ W W H ~ +. . . . . . . . . .f       3 ,     L T ` $., O h $.$.$.$.$.$.( / / / @ O , r O 3 + u  . . .",
", O   O e e , g  . . .' ~ ~ ~ H H ~  . . . . . . . . . .f $ <   , ,     L [ [ f O + 3 h $.$.$.$.$.o.o.` r     @ 3 O 3 , u  . . .",
"5 + + $ r , - s (  . .] ~ ~ ~ C F Q  . . . . . .$.+.$.) p * 4   3 ,     L | [ +       O ( O.$.$.$.$.| L     @ , r O @ @ p  . . .",
"5 + + + 5 + , < 1  .$.] ~ ~ E C F Q  . . . . . .$.$.$.: @ * 4   3 @     K { ` O           { $.$.$.$.h +     , r <       u $. . .",
"  5 - - 5 + 1 < <  . .' ~ ~ n M F Q  . . . . . .$.@.$.: < r r X 3 ,     L a           O   { $.$.$.$.h +     < r 3 O     u  . . .",
"+ + + + 5 + 1 4 e p ..' ~ ~ A C F ^  . . . . . .$.{ p 4 4 < @   3 ,     { g           O   { $.$.$.g , + O 3 r 5 r O   g {  . . .",
"= +   + r @ 1 r e ; K Q ~ ~ ~ C F ^ T I I I I I ! F = r y 4 X   3 @     o.K           @ K o.$.O.T , O O @ r u r 3   O L  . . . .",
"t + + + 4 X < 4 e e O s E D ~ C F J   O         + + r 5 6 , X   3 ,     X.K           + $.$. .` O O O @ r r 5 r 3     L  . . . .",
"r +   + u @ 2 e e e @ s A v E H J J O           - r 5 t % O     3 ,     X.K         O , $.$.P O       + 5 r r r 3 O   L  . . . .",
"y + = 5 6 O 2 e y e @ w V D ~ C G G O   = 5 5 5 r 3 $ +         , ,     X.h         d o.$.g ,         O u @ < r 3 O O L  . . . .",
"5 + < 5 5   , r 5 - + w m W ~ J G J +   + - ; 5 2 % O           3 ,     X.K       + g $.K , O     O + , 3   3 5 3 O   L  . . . .",
"r + , 5 r + , 5 <     k m W J H J J + $ +   O , %               , ,     o.K       < h [           @ 3 r 3 O 3 r 3 O   g {  . . .",
"5 $ , 5 r   < <       w m Q Q C G J - < ,                       3 @     X.h       _ ( O           3 5 3 O   , r 3       u  . . .",
"y + , 5 5   + - <       6 n R L G J + < ;                       3 ,     X.K       ` ( O         O 3 r ,     3 , O O , , u  . . .",
"5 + < 5 r < + - 6 $ @   6 b R F J J + + +                       3 , 3 ( K r     T K i           O 3 , @ O , < ,   + @ , r g O.$.",
"5 + < 5 y 5 - - r   +   6 b S Z G J +                           , , r $.r O O O  .f               , @ + O 5 r 3 O + @ @ , @ ( X.",
"5 + , 5 y 5 = = r # #   6 b v M G J                             , , 3 $.5 O   O  .g                 +   O r r r 3 O 3 , @ r O / ",
"r + , y r r 5 ,   r   # 6 b v A ^ J +                           3 , r $.5 O p $.+ O                 O O 5 r 5 r 3 O 3 , @ 3 O O ",
"r + + , 5 - 3 5 , r + + + 9 c V N L @                           , , r $.[ ` { $.O                     O 5 @ 3 3 @ O 3 ,   @ < , ",
"y = - - ,   = 3 5 < = +     c b m B @                           < , , ( $.$.O./ O                   O , r , 3 ,   O 3 < @ + , 3 ",
"5 5 5 3     + = 5   , =     z v b v #                           3 ,     | O.` O O                   , r r 5 r ,     3 r ,   O , ",
"y y r <       = 5 + +         k v v                             , ,       O                         , 3 O 5 r ,     3 r 3       ",
"r 5 y , + < + - 2             k v v                             + O                                 , 3 O r r , O O < r 3       ",
", r r < + 5 = = 6             9 l v                                                                 @ @ O r 3 @   O 3 r 3 O     ",
"+ 5 5 <   5 = = y +             7 z                                                                       r @ +     3 r 3       ",
"  3 5 3   5 = = 5 +                                                                                       < @ +     3 3 3       ",
"  5 r 2 + r - ; 5             ; , O   , ,                       , @       @ 3 3 O O                     O r 3 ,     O , 3     @ ",
"  r r <   r % % 5 , +       , ; @     @ < @ O O       O         3 ,       + 3 r , +                     O 5 r ,     + , 3   , , ",
"  < r <   , ; , r r @       < ;     O + @ 3 @ O   O @ +         3 ,         @ 3 5 , @ +                   , r 3 O   O @ ,   3 @ ",
"+ r r ,   + < r r r + +     5 ;       + , r r @   O 3 O         3 ,           O r r r r                   O 3 r 3 O 3 ,   O 3 < ",
"  + , 5 5 + , , @ r @       +   @ r r @ + @ r @   O r O         + , 3           O   + 3 r O O O               @ <   O   O r O O ",
"    ; r r + , < , % , @         @ @ r 3 @ @ r @   O @ , O       O @ 3           O O O , r , , +         + +   O @ , O   O r O O "
};
