/* XPM */
static char *space[] = {
/* columns rows colors chars-per-pixel */
"64 64 120 2 ",
"   c #040403",
".  c #090705",
"X  c #070806",
"o  c #0A0906",
"O  c #070809",
"+  c #0B0B0A",
"@  c #130C06",
"#  c #180D07",
"$  c #110E0B",
"%  c #190F0A",
"&  c #0F100B",
"*  c #1C1307",
"=  c #13110D",
"-  c #1B140C",
";  c #17180F",
":  c #1C180E",
">  c #0E0E11",
",  c #110F11",
"<  c #141312",
"1  c #1A1613",
"2  c #171810",
"3  c #1C1A14",
"4  c #161519",
"5  c #19171B",
"6  c #17181B",
"7  c #1C1B1B",
"8  c #24140A",
"9  c #281A0A",
"0  c #3D1D0C",
"q  c #201712",
"w  c #221C14",
"e  c #221C1B",
"r  c #1E201B",
"t  c #25230F",
"y  c #2C200E",
"u  c #34230E",
"i  c #232216",
"p  c #2C2414",
"a  c #2E2815",
"s  c #24221A",
"d  c #2C241B",
"f  c #342515",
"g  c #3B2413",
"h  c #342D16",
"j  c #3A2E1D",
"k  c #363116",
"l  c #1F1D21",
"z  c #231E22",
"x  c #252424",
"c  c #2C2522",
"v  c #2B2A23",
"b  c #2A2729",
"n  c #282B28",
"m  c #312623",
"M  c #342D25",
"N  c #332E28",
"B  c #353225",
"V  c #323129",
"C  c #3C372C",
"Z  c #332D33",
"A  c #45230F",
"S  c #402B0D",
"D  c #452D12",
"F  c #4D3712",
"G  c #48391D",
"H  c #563014",
"J  c #5E3316",
"K  c #403625",
"L  c #473923",
"P  c #423C2D",
"I  c #423B33",
"U  c #4D3B32",
"Y  c #56411A",
"T  c #63471A",
"R  c #6C451C",
"E  c #6E531F",
"W  c #494129",
"Q  c #504123",
"!  c #52442F",
"~  c #5E532A",
"^  c #4A453C",
"/  c #524C31",
"(  c #634222",
")  c #61552A",
"_  c #735723",
"`  c #664837",
"'  c #685036",
"]  c #61533B",
"[  c #6F602E",
"{  c #79663C",
"}  c #4F4D47",
"|  c #554545",
" . c #584543",
".. c #5F4E46",
"X. c #5C5A45",
"o. c #615945",
"O. c #6A5E54",
"+. c #615D5D",
"@. c #705C5A",
"#. c #676149",
"$. c #796942",
"%. c #71604A",
"&. c #636456",
"*. c #75675E",
"=. c #885D33",
"-. c #896424",
";. c #9C7833",
":. c #897847",
">. c #8C7856",
",. c #80775E",
"<. c #816B6E",
"1. c #BEA569",
"2. c #848385",
"3. c #8E8C95",
"4. c #939291",
"5. c #9B9092",
"6. c #BAA285",
"7. c #A9A29E",
"8. c #D3BB83",
"9. c #DFD8D6",
/* pixels */
"                              3               X 7   +   > >                           + + +     o <   = 2             + < + 3 + ",
".           +     o       $               =   +                                           +       o   O < , >           O       ",
".                         +         +         X                                 >   >         o                                 ",
"      . 7       $     q     7 =   :   o o =       < 1                           N   o                             X             ",
"  o     .       =       .     .   / x   n 4.i   + | <.          o             o   O           o                   1.2           ",
".   .                     . A J - . X     2 +   + g w +         e o     +                 >   o     >           O 2 O           ",
"  .                     . . 0 ` . $   +     <     o   M     o o o $ ,                   +       + +     >               >   +   ",
"                      o 1 . . % o < 7   +     . <         1 < l   o >                       +                       O O         ",
"              o e . . $ ^ $   . + +         o *.1         >   >   o   <                     +                 +       O         ",
">       o               d $                 $ ' U         O +     o o o       $             +                   O           O   ",
"    o ,     % $ -   + , . m       o $   . $ . f     > o   o >         >       O       +                 >             O       > ",
"    $ 1   $  .,         . .                   ,                                       B X.                                    O ",
"        o @ o o       o +                     O     4             >         >   v +   > X               < ..                    ",
"          o   +           .       +     O                         o             +       O                       >               ",
"    o   .     1     <                                   >   o             >     +       X .                         >           ",
"    >   e e .         .         1 1 o   < +         4       < < ,                       o o + +                   > O     >     ",
"      +   . % .         + < n   w G     o $ +   7 x +   +     < + + $ + <       <   +   b   O               &           <       ",
"                      o   o a * %.j s o o   > + $           +     O           + < e     + + 7           X X           O     + O ",
"  +                   +   X o./ o o .           .                 o                         +           X O <       O O       > ",
"                        X   & o       .       + .             =             o 3 $     +   + + +         < O   B O X X           ",
"      p ] +                   + .   .   . . . . +.-             >                           X         4 +     a +       , +     ",
"      K 6.a   . +               .   . . o .   . .                       +   X     +     X                     + O   >           ",
"  + o   : o     X   o   O       .   . o Y u . . .               o   o         = @ o & o   + + o     O       O O   X           8 ",
"  + o . +                       . .   . 9 * o . .         f - +     >     .     =       -         +             X X             ",
"                                =   .   o   . o + % 8 $                 . $ . . + X   X     +                   O X X X   X     ",
"  - p                             .     . o z o @ ( 8 .     +           . , d . X X + o = X   X O +         O   X   &   X       ",
"  w $                     s     o .   . .               o             . = 9 8 o o &   X         > 4   O   X   O       X     + O ",
"    .                   +       o . d $         +     + +         + + $ S ;.F @ o o @ X     =   > > <   O       X         X 2 s ",
"              +                     o     .     .     < o       .   . . u -.S 3 c X X     X X         o o                 &     ",
"  m 1                       o o o +   o           o o . c 1   o   . . @ @ * @ $ @ .   X o x 3 X     @ E p   +                   ",
"                Z o               + o     . . @   + .   o o   , .   . . o @ o o o . o       C o @ X - _ -                       ",
".                     +             +   < + o g . + .       o o 1 . .   @ . o 1 c $ .   o o X X = X   o O O                     ",
"                      . -   , o     o   . . . $ o o o   o O     . 1 .   . . # w M +   o           5   o $   o                   ",
"  +               . + - ! .   o o           . = @.l     o   o o o q       % >.h g .   o   o $     ,       . @                   ",
"              +     e               . .   o     e o   o o o o o 1 O.- . . . Q 8 .   +       +     >       o / + <               ",
".                   o   o         o 3 . . .           O     o o . % . . . . 1 o   I =   +     o o       o o   + 7             > ",
"9                       7         o o o . .               o   O . . . . - o o . @ i $ a o     o s             O                 ",
"        o                           o o . . .   , 7 o       o o $ . . . w 1 . .   . $ i   . .         < +     s X             + ",
"          @ %       +             o @ @ . .       o   , $ . . , @ .     .   .   o &   . . o                 + X       X O       ",
"                      +           o q _ - +   o     + < Z   5 o . . . .   . .   o o   .       .       +   + +       X           ",
"    >             z   >   $       , % T 8 . .   + - L   <   o o . o .   . o $ o =   o   .   .                 X X X = o o       ",
"                    +     8       , d $ # $   .   - - +   .     o o   .     @ o o   o     .   .     X               o 3 X X     ",
"  <                   O               1 . + +       o o < + + < . . . . o o F Y o   o o .   o       X     & O   X X     +     X ",
"            b >       4 , + +         o $   $ .   w o   <   o   . . o . o X 9 y = +   . o       o o O X   O o X & +     & X     ",
"            >         + X +     o         +     X o   X       . . . s 1 . @ . .   o o @ o o       o         X < s           X   ",
"                    >   +         o             o +         o = @ w $ d . $ . .       o     =       X o   + X   X   X   r   X X ",
"  >     +           4 x     X   X       o o       o   o   o & = . . . .   o o . o =   X o o : X   < X     & X X n o             ",
"                      2     o o   X     X o o   + o o V V o =   . . . % . o = .   . o +   = a O   o +         o 5.i X     X     ",
"                  4   >                   o + + X & o ^ B = < X .     . .   .     .           X + o o   X       X X +       +   ",
"                    +                 $   O     o o o = : X o     . o     .     o o   o   X   X   +       X X X X o           O ",
"          +     +                             + I =   o = X           +     o o o o o   X   X X       X o X       X         X 7 ",
"                                              + K o   & a s i + .   . . + . +     .     X   o   o X o o o X       X             ",
"                    $ =                           o   o 2.3.o   .   .   o o X         . o X X X o   X o @ &     < < + n X   X   ",
"X                     o . 1                           % P &.; O               +       .   X X X   X X t ~ a X X X X X O   O     ",
"+               + c / w   @ C .   +   + <           % =.D p o .   $       6 < o     = 3   +     X i & [ 8.) &         X   X X   ",
"<             o { ,.9.W .   $ .                 ,   . H 8 .       +       +     =   + >       X   X = :.1.k & X                 ",
"= c 4           t #./ @ X                     p 3 o o o o                 l l   X     X           X X h k s         = X       X ",
"        +   +   X @ o +                       ~ $.                        >                 X         X o + X   +     O       X ",
"  3                   X < & +                       >         >             +           = o X     X o X w o 3   X <     X X   X ",
"                      X.7.}                                       o o                     X     3         o :     X   & 3 & X X ",
"                        X                       + c                     +   + 2   +             o     X     X X   +   X j   X X ",
"        +                   +     .                                       +                     X     X X + o     3 X   X X X X ",
"                                  .                           +   +                         X X   X o   & o o X + u y     X   ; ",
"            o                   $                                   < >                     X o C s X   c X X o @ R u X         "
};
