/* XPM */
static char *star[] = {
/* columns rows colors chars-per-pixel */
"64 64 91 1 ",
"  c #070E23",
". c #0A0F25",
"X c #0D0F28",
"o c #0C1126",
"O c #0E1028",
"+ c #13112C",
"@ c #18132F",
"# c #15192B",
"$ c #1A1E2D",
"% c #1A1231",
"& c #1D1A31",
"* c #221436",
"= c #241B35",
"- c #261538",
"; c #2C173C",
": c #2E183E",
"> c #30193F",
", c #1E212E",
"< c #1F2232",
"1 c #242532",
"2 c #292337",
"3 c #2C2339",
"4 c #2D2F3A",
"5 c #30233C",
"6 c #33293C",
"7 c #39323D",
"8 c #341A41",
"9 c #3C1C45",
"0 c #3F1D48",
"q c #362041",
"w c #3C2345",
"e c #3E2944",
"r c #3E3441",
"t c #3C3D42",
"y c #442449",
"u c #4B264D",
"i c #452C4A",
"p c #4C2B4D",
"a c #423345",
"s c #562F54",
"d c #4E3C50",
"f c #523351",
"g c #583652",
"h c #543B53",
"j c #5A3A55",
"k c #5D3258",
"l c #603A57",
"z c #67365C",
"x c #3F4044",
"c c #424346",
"v c #494A4A",
"b c #54444C",
"n c #5C4154",
"m c #5F4A58",
"M c #61445B",
"N c #67525C",
"B c #72625B",
"V c #736A5D",
"C c #694E60",
"Z c #6E5363",
"A c #735966",
"S c #765D68",
"D c #7A636C",
"F c #7E7967",
"G c #885A6A",
"H c #857C67",
"J c #857D6C",
"K c #816F72",
"L c #847274",
"P c #957172",
"I c #917973",
"U c #977C7A",
"Y c #958472",
"T c #9C9E77",
"R c #9B8E88",
"E c #A58E85",
"W c #A29C81",
"Q c #A1958D",
"! c #B29E92",
"~ c #A7A193",
"^ c #B5B19F",
"/ c #BEB29A",
"( c #B7B4A1",
") c #B8B5A1",
"_ c #BEBCA6",
"` c #BFBEA8",
"' c #C2C694",
"] c #C1C0AA",
"[ c #CECCAA",
"{ c #DADEBE",
"} c #E6EFC9",
/* pixels */
"                                                     &q%%%8A88ih",
"                                           &<  %   oO@%%%8Z]h888",
" o7   &                                          O%%@@%%%88f8&e&",
"  <                                     <        o%3@%%8h8r8888%",
"                                   <    &   vOO  o@=%%%-e*8888%@",
"                                   <          O  %%%23%-8888%O@r",
"                        #                      O%<%&%%-8e88%%%%@",
" &                      <       o     4  O%%O  %%q%%%888f*%@%%%O",
"                                        XX@-%@@%%%@8898-%%%OX   ",
"                     &           4     X@@-S%*%%%%-8--8%@%% X  %",
"           %                         %X@%%n`k%%X888m8-%%@@r@   O",
"           .  X.            2         X%%@%i%%%88-8-@@%%%@@@OXtX",
"                                 oo   X@%%@@@@%888-@%-8%%8OOX OX",
"        6    X        O               X&-88&@*888-@@%88%%%O     ",
"            ..   4             *      o&88-%8*888*@@-8888dO     ",
"                 q    %O            o+%;8C--888*-%@@%N-88e%8    ",
"                            @O.    .@%%-88%8-888%%%@@%%%%%eR&   ",
" o         X               *8%O    .@%%8%%@88-8*%*@@ X  O%d~e &<",
" o        .+       o ..+ X%88%*X  .++@%y*@*888w888%%OO  X  q    ",
"                  o1.+&i-88-8888%..%@@&b%*88%8*8-98%%%O      &  ",
"                    +*C_h8%%**88-&@+>5&Bw8u8*98*8%%@8eX         ",
"         X%  X       +-S8%@%*888%e%@aggUkC08*8@@%%@@@@O        o",
"                     o.&O%%%8C8%@&@%-8G/Yz88*@@%%%8-@X  1       ",
"   .            1    &. O%%8D)w8-9ujBY!}[EHmy98%%%@@+X  &% ov   ",
"   t#           #   &+ +&@%-8s%8:98;;9G!PC8@@@X%%0%%%%o         ",
"   .   ,     XX    o&  o@@%%8*%%--;;8zpIshy*@***hRw%%%%%        ",
"       ,  .+&@%+       X%%%@@%+*8:;;y9-Bq8w-@%88hQw88%%%        ",
"          +&i-%%o     X@%&%&q+**88;98;;l88%8*@*88y88%%%O  O     ",
"   +  ,$  %w(K-%+.X% @@%;=@%@*88-98--::u88%%%O88%%%%%%%%O       ",
"         .%%Cw8%%&@@@@@@@&@%*8*88-::::-088%%8q%%%%O%%%%%%O     O",
"          +@-08-&e+@@@e@@@%*8888-8:::08:8%%%O%%    O%%%r%O      ",
"     7    +%*--98@&@%@&@**88*8*98--::-8M-%%%%%%  O Xo%%%%       ",
"  3  ....@@@@@*888%@@*8**888-888*%*8**80%%%%%%                % ",
"<    ..X@@%%@%888%+%*8888*888-8%%*-8%%%@O%%%r%%    OO           ",
"#   q .+@@@@*98M-%@*88s8*8888%8%*;8***@%88&%%O-88               ",
"      .%@@%@89*8%@%**8e8*O%%%%%%;8j88*@8n88qq%%d-8   &<   O     ",
"4   ..+%%%%%8988%@%8*888%%%%%%%r*M`M888C]f%%%8%88@   %<   %     ",
"  o .+%+%%%%%*88-%%888*8%%%%%%%%%*C8%@*8M8%%*88%O             v ",
"X  o.%%**8888*8*888-%%*8%O%@% O%%@*@@@@*8%%%8e8               o ",
"@@@&++888-888*88-e8%%%+%.       @%@@8y888%-8-8-                 ",
"@@@8*8Z8*98%88888--%@@-@%X o1 % @@%*p`S8888e8O          o       ",
"@*@*8M`h88%@8*8*88-@-@f%%O#<o   @@@%8D8%@%%8o                   ",
"@@@%%8s8%@@@%*888-8-&fRq%%   ox X%@%%8%@XOOX  o  x&             ",
"%*@%O%%O%8**888*8888jW{Fe%    ,  .+@@@                          ",
"--%%%%%8-88%88-8-88%%wJ8%%@        X                            ",
"888-%-8888-88e8888%%8%p%%%%qOX       X&   <&                    ",
"888--8888w8-8-8-%%%%%888O%O8%%@XXX X  &                         ",
"88N-88q80D88-8-8%%%%88N888-%%%%@X XX                            ",
"-88-8888-08-8-88*@%88*88898+%%%%@X     X..                      ",
"O88--88-88-8-8888888%88*988%%%e%@@@    &*-.                    o",
"**-88*8-8888898-8%88O89888*%8Z`e*8*%+%8nw--.                   &",
"f8-88-88-8M88-8-8-%%%%O8e*%+%9S888-@@%-8>u@                     ",
"888*988*9L(0*%%%%%%%@@***%8%+%88m-&%%%%8M^rX       O            ",
"8-8*888*88p88-%%e@%%*88*%%%+%%*e8-@@%&-8yL&        %=  oX       ",
"-888*8888--8M8%%@@%88***%%%8%%%%%%;3X.o***          3Jt=        ",
"8**888*888888-%%@*8M88*@%@%*%%+%+%%%                #T'#        ",
"8--88-8--888--%e%-8-%8&@%2Xo %oo o%    X            +7Va        ",
"888-88888-889%%@%%@    @%3              .          o+  &&       ",
"88-8-8e8-8%88-@%%%O %       X        7  .               XX      ",
"8-8-88-8%-%%-%%@%e@     o   %                                   ",
"8-8-8m88%%%@%%%@@@@O    3      v              *                 ",
"-8-88--%%%q%%%%-8&@@%o         o  cX                            ",
"9;88888%%%%%%%%88%%%%%%o o  7     o                             ",
"88--88-%@@%-*%%8C8&%%%%%ooo              oo                    ."
};
