/* XPM */
static char *wall_dark3[] = {
/* columns rows colors chars-per-pixel */
"64 64 34 1 ",
"  c #050505",
". c #080707",
"X c #080807",
"o c #070708",
"O c #070908",
"+ c #100F0F",
"@ c #0F100F",
"# c #10100F",
"$ c #0F0F10",
"% c #100F10",
"& c #131313",
"* c #181717",
"= c #171817",
"- c #181817",
"; c #181718",
": c #171818",
"> c #1C1C1B",
", c #201F1F",
"< c #1F201F",
"1 c #21201F",
"2 c #1F1F20",
"3 c #201F20",
"4 c #1F2020",
"5 c #232323",
"6 c #282727",
"7 c #272827",
"8 c #282827",
"9 c #272728",
"0 c #2B2B2B",
"q c #302F2F",
"w c #2F302F",
"e c #30302F",
"r c #323232",
"t c #393939",
/* pixels */
"    ..OOOOXXOOOOOOOOO.      .      ..             .   XO. OX. . ",
"  .OO&&&*&&&****&&*&&O. ..O OOO+&&&&#&&OO. .OO&OO&&+#&&&&&O&&&&O",
"OO&&>355566555,>;&*&&OO%&&&&&&;3505>&&&&O.O&&***>>>>,585>*&&&&&O",
".O&&>0q0rttr0r00>>*&+.+*&&&&&;>5qrr5*%&&O.+*&&&>>>55qrr0<>>&&&O.",
"O&&;&>>,>5050000>*&%+O&&&&>->>>60003*&&>O.&*&&>,5550rre5*;&&&&OO",
".&&&&%+&&&&&505>;&O&+O+&&>5068055055>>>>OO&*&>5000q0005>>15,>*&O",
" O&&&&&*&&+&>>>&&+&&+OO&&>49562,3>,>>,>&OOO&&555555555>><>,>>&O.",
"  ..OOOOOO&&>*%OOO.OO  +&&O&&OOOOOOO&OOO  ..O&&*&&&&&&#&&&&+O. .",
"    X.OO+O%O&OOOO.O.    .  . . .OO.OOO.      OOOOOOOO     OOOOO.",
".OO.O&&O&>&&*&%&%&O+..     XOO##&&+&&O&++%#@&$&&&%&++X    ++++OO",
"OOO&&*+&&*&&&&&&+O%OOOO   X+O&&&&+%*->1>&>&*&&&&&+++OO   OOO+O+O",
"&>555,>>5>>>&+&&&%&&%O..  &&O&*>>>55550152&>>&&&-*&&OO   O&%%&&*",
"50rrr0000955>>>>&&&%&O.  O*&+*->>>55580000>2>5>&>,>&O+X O++&**>>",
"0qqr00rrr0555>,*&&&&&O.  O&&#*&&&&&->>557>>,>&&>>;&&&+O O##&*>>,",
"559qrrr0555>>&&&O&&%OO.X +&&&--&->>,&>155>&&&>>>>>&&&&. X#&*>>;>",
">2300rrr55>&>*&&&&&&&%OO.O&>---,1551>5555>>>53>2>>*>>&O .OO&*>>>",
">450rtr00555>>&>&&&&&OOO #&:>>55590700007705544<>2>:>&O  O+&&&>>",
">55rtr07555>>>>>:>>&&O+O.%&;;500000qrrtw0075555<>>>>&&O OO++&*>>",
"5000005555555>&>:&&&%OOOO&&&>5067700qttrrr7555514<>&O%  .+O&&>>>",
"5rr050559555>;&&&&&OO...OOO&&<5000q0qrrqr07555<54>>=&&O .O&&&;>3",
"rr05553550555>&&&&&+OO..O%&&&>50wrw000500075544<>5>&&&+ .OO%&>50",
"955555>>15555>>&&&&*&O.O.&&&%&>0955556959955544>>45>&&O .+%+&&>0",
">5515555>5551>&&&&>>%O..OO&%&&>1<>>55555555555557075:&O .O%&&&&>",
">>>545>>>>>55,>*>>53%O..OOO%O&>55355>>>55750970wwr02&$OOO&%&&%%>",
">>5>4>>>>>525>>55,*&%OO.O.%*-*>595>>>290rtr08005695>&&O O&+&&**>",
",,5>**:>>5>55555>>>&O+O.O++%&>>153550qqtttr0005:&;*&&*% OOO&*;>>",
">55>>50005900,>>,5>OOO  ..O+&&>1550q055rerr000>&$&&&&*O.O%&&=>;>",
"555550060q05>&&>>>&OOO.  .+OO#&&2563>255555>>>:&&&-*&&. O&+*&&>>",
">>>>&&*>>>>&&%&&&OO+.O  OO&&&&&&>>>->>5>,>>>>&>&&>>&&&O OOO&&&>&",
"&OO&%+&+&O%%&O&O+OO++O  O&#&&&>>-&&&>=&;;*&>&-&>>>&&&&. O++#&=&&",
".  oOOOOO.OO+OOOOO%O.   ....OO#OOOO&&OO&&OO&&#@O&+O+.O  OOO&+%&O",
"              .... .        .    X o .OOOOO.O    . O.O. ..   .OO",
"OOOOOOOO....    OOOO+OOXOO+OO...     . .OOO.  ..XOO+OOO    .XOOO",
">*>&***O&%OO .X+&*>&*&&&&&&&*&+OO  OO+++&&**%&&O+O+O+O++  +&&&**",
"695>;&&&&%&O  &&*&>>1>>,,55>,>&%OO..O&O&&->555>&&&*&O&+&..+&&&&>",
"rrr5-;&&&%&O  O&*&&55>30rtr05>&OOO .OO%O&>>5rrr51,>>&%+&OOO*;&*3",
",505>>>*>&O&..%&&&>5555505555>%+.  O&&&+&&>9rrq051>&&#O&&O+>>&&;",
">555,5555>&#+O%&&&&>>35>**>&&OOO.  X&;>>>1>>,555513555>*&OO>5>4>",
">*;>>>>*;&O+OOO++&&&>&&*&&&++.OOO.  +&&&*&&&#&&;>>>3>5&&O.O&&&&>",
"OO+O++O+OOOO..O+O+OOO&OOO+O ....     ..OOOO ... XOOOOOO+O  O. XO",
"OOOOO..O      OOOOOOOO+OO.....O.            .        ...     .. ",
".. ....       OO++OO+O+OO.OOO.OO    ....    .O   . ..OOO   .    ",
"O.O.O+O.   .O&%&*&&#%&+OO&OOO%%O&OOOOO+O    O+O.OOO%O&&O.O+OOO. ",
"#&&+OOOO.. O+O&3>55>*&&*>55553505,;&&+O%    OOOO%;;&&&>>>>,>3>&O",
"&&&&*%++OO.OO&*>5>>,>>>,50qrr0rrr02&&&OOO   .OO&*>>>>>&>500rr,>;",
"*&&#&&*&Oo.O&&&>&&*>,,5550qrrq0er05>>O&OO   +*&&%&&>>>>>>55565>;",
",--#&-*&&. &&>&%O+O&&>>>550qrrrr8>>:>**&&O  O&>+&&>>>>>>>55,513>",
"51>*>&&&OO O&&&O@&#&&&;&>550rr005>>>>>>&&OO.+%&&&;>221,,2>,55555",
"661555&&OO.+&%+&&&&:>>>55590rrr05>>>>>>&&+. O+>>&>>>545577900709",
"851155>O%O.O&&>>>>44555555560rtr73>>*;&&&O  OO&*&::<155570qrrtrq",
"07511>#%+OOO&&&&>>5>>5>555555000q0,>&&&&&O  OO.&&>4555550wrrttq0",
"00005&&&#OO.#&&&&>>>5559050556900r05>&%+&+..O+O&>2>4555570rrqtw0",
"ree5>&%O&O  +&O**&>>,500005555550rr05>&+++O.O%+&>4<<4455900997q0",
"5757,&&&OO .&&O>>&-&>>5005>>>>>>>0005;%%%O. O&O;55<55>>>59952259",
"5517,&+OOO .&+&>>*&$%>55505>>5>&;>>&++%O&OO +OO,900554<5555552>>",
">>58>>&#%O  &O&;>&&>->2>5555>>:>>&#&++%++O..O%&>00990w0705955554",
"5555>-;&&O .++*>*>>>3>&>2335>&>>>>*&&&O%OOO.++%*>5550eerrrr05555",
"9900,>&&+O  O&&%&565>>4>45>>&&&;>>>&@OO&+OO.%O%&&&::>5500rr0q950",
"0055>&%+O+..O%&$&>>>>5075555233>>>&&&%&&OO. .O%OOO&:>58055550590",
";,3>&+OOO%O.O&&&&>&&&&55>>>>55>&&&>>>%&O+O...O%%%%O&O&&->>>;>>&&",
"%&O++OO.O&  O+&&&%&>&&&+$&&&&&&&&>>;&&+O&OO..O+%%+O&&&&*&***&&&&",
"%+&OOOO+OOO O&&*>>*&&&+&&&&&&OO+&&&*&OO%OO+O..O&&&&&&*&&&&&&&&&&",
"OO..    ..     .OOO  .OO         O.O..OO       .O...XOOXXOOOOO.O",
".                                .     .                 .  .   "
};
