/* XPM */
static char *wall_dark1[] = {
/* columns rows colors chars-per-pixel */
"64 64 40 1 ",
"  c #050303",
". c #0B0505",
"X c #090807",
"o c #0D0909",
"O c #130606",
"+ c #180707",
"@ c #140B0B",
"# c #1B0B0B",
"$ c #13100F",
"% c #161211",
"& c #1B1313",
"* c #1C1817",
"= c #1E1A19",
"- c #230C0C",
"; c #2A0E0E",
": c #320F0F",
"> c #231111",
", c #2C1212",
"< c #221D1C",
"1 c #311212",
"2 c #381414",
"3 c #25211E",
"4 c #28231F",
"5 c #262120",
"6 c #2A2523",
"7 c #2F2926",
"8 c #312A26",
"9 c #342D2A",
"0 c #36302C",
"q c #3A332E",
"w c #3D3531",
"e c #403733",
"r c #423A34",
"t c #473E39",
"y c #483F3A",
"u c #4B423B",
"i c #514741",
"p c #544A43",
"a c #594E44",
"s c #5C5048",
/* pixels */
"==<<33<=%==6=  o%67t9%<====50%X%<<<X$<*55wt6565699=%%$oo%56q8%%X",
"X=56=%oXX%=35X% X$5qp6<%%=<qwXX%%9s<o$$$%<05<===0woX XX X=5ww=% ",
" <u8=X  XX%09ooooX%3w0<===5i6XXoX*y9*XXX$X6r=%%=wto   XX o9tt<oX",
" 8p7%    X$wqoooXXX%6p<%%%5p<XXoXo7y6$XX   q6%%%wwX XXXoXX=it=XX",
"X8t=X   XX%0woooXoXX%00%XX5p5XooXX%t6=XX   =w%X%8woXXXooXo3i9oXX",
"X7w%    XX%66XooXXX X*5% X%i6XooXXX75$XX   Xi5%X5io XXooX%6p=XXX",
"X8uX      %65Xo*$X X %07X X09oooXXX8%X  XX X89% =u< X%%oX%9qoXXX",
"X5w*   X X%w5oo$X   X%78oXX59%o%XX 3% XXXXXX=9$ X09XXo%oX%w<XXXo",
"X=9=  XXXX%wXXXXXX  X=53=  %w5X%oX0%XXX%oooo35% X37=X=%%oww    X",
" o95  XXXX%oXX XX   X%37X  Xwq%%o%$XXXX%ooX=05X  o55o=%Xo9    X ",
" X50% X X$oX   X XX %%57    5i5oX XXXoo&%oo3w5X   =p5%%%X       ",
"  %5< XXXXX   XXX X ==0=    X9u%X  XXo%$%=o=w=   XX8w%@ XX     X",
"  X==oXX      XXXXO*663      Xqw  XXXX$&%==0io  XXX36%         X",
"   X==%o       X XXqu         %=o XXoo$$==7io     Xo%%%      XXX",
"XXX =7%XX XoooooXX%03          %=oXoo$%==3&XX X      X%%    XoXo",
"XooX%t8%@X$*$*$o$$u3     oXX     8%oo%==7<oX            X XXXooo",
"$oooo%iw$==*&&&$$>X      ooo       oo$=>X                oooo@@@",
"$ooooXo=<>=&=&&&=oX      ooo        $@$oo     oo Xoo     o ooo$&",
"$&@oooooo<*&&&&@XX       oo         o#o       o@@$X@      ooo@$&",
"&&>$ooooo @&$@$oXX      Xo    oX   oooo    XX@@&$$@Xooo  ooo@@&&",
"&&&&@oXX oo#@@#o          XXoo@@     o    @&&#$@ooooo o  oooo@&&",
"@o#o$@oX   oo o   o     XoXoo@&&         *&*&#oooo oo O    oooo@",
"$&&&oooo   o oo         oo@@@@&&@X   oo$>*#@oo oo oo  O oOO ooo@",
"oooooo ooo      o      @$&&&@&&&@@  o@&>*@@ooooo o      oooooooo",
"oo o o     Oo o o  Oo$$=>&&$&&&-&@o  #-&@oO ooO   o    o  o ooO ",
"o    oooooo@#ooo    X%->>=&@#&&&@@oooo@@oooo O                o ",
" Ooooooo@@##@oo    o$><>&&&#&&-&@@@X oX@@@oO    O      oo       ",
"oooo$&-=&&&@o O    @>>>-#&&@@&&&*#@X Xo@+o     O    O oooOOooo+o",
"#&&&--->&&&oOoO  O #>>&#&-&#@@&#&#@#o  o            o o$o@&#-*&o",
"&#&-*>&-&o+o  o   o##$&$&@&#@@@&@&##o        Oo OOo##&---&+-->&-",
"oo+oooooOo   O   oo+@@@@oo+#@@@@@&oo     O   ooooo@@#@+o@oooo#o+",
"O ooo oO OO o   O ooX@@Xoo@o@@@@ooO  O      OOOOOo   o   o  o oo",
"Oo Oo  oooXO    OooOoooO Oo  OOo                            OO o",
"oo@o@@@@@@@OOO   O OO     OO        OOO  OO  O  O Oo  O   o  oOo",
"##*#-&#####            O o      OOOoo oOoo@@#@#####  O    OXo@##",
"->>--&###oO   O         O    O @ooo+###@@@@###&#@O    O O+####&-",
"&##@oOOO O      O OOoooo     @##&&*-->*&##-&##@O      Oo@@@@oo#-",
"o ooOO o      ooo###-*-#O  O@#&---->>-#-&##@o@      OOo@o@@@oOOo",
"o  oooo    Oo#@&*>,>,-#O   ##>--&->>----#@OO      OO O  o+@#+O o",
"OOOOO O  O###&->,,>,>-oO O@#->>*--->-&&@OO O   OoOO oO####---o O",
"Oo  oO oo#-&-,,1->>>-oO  @##>>>--&--#OOO   O O  OOooo+#*--,-@  O",
"O OOO o+#&->,,,->--#@oO O@#-,>#>->-$OO   O    OO Oo#-&-->>-+o  o",
"O   oo-#->,,>-&#&-##OO O ##->-#---&      OO  OO@+####--,,,@   O ",
" Oo++#-->,>-&++#+@@    O@##--->>-+o O      OOO@#+o+&--1<,-o OOOo",
"Oooo#---;-##+++o+OOO  OO###-##++o   O O O OOOo#O+o-;,111-+O OoOO",
"O++###&#+oo++o+Ooo  OOOo++OOOO O    O    O+o++@@--,1,11>o O+O++ ",
"OO+#o++++##++@OOO oOOOO O O       O    OOOOO@+#-11,,,,;+OOOo#-#o",
"  o+++o##+oo  O  O O  OO    O      O OO OOOO+#,111--;;#O Oo#;--O",
"  OoOOOO O    O  OO OOO  O        O O  OOO@#-1211----#OOO+#-,,#O",
"OOOOO    OOOO+o+OOOOO O   OOOO OO  O  O  O@-11;;>&-;+O O#-;,,;+o",
"O    OOo++###++OOOOO      OOO O      O OO+-11;---;;& OO+-;--,;#O",
" O +O#-----+OOOOOO O OO OO+++   OOOO  O O-,1-----;-oO O-;;-;1;+O",
"O +--;;;-#OOOoOOO   O  OO+#+O  OOO OO  OO#;;----;-O OO--;;;;;-@O",
"O++-;;;++OOOOOo+OOOO O O++#O    OO O  OOO-;-+---;oO OO-;;-;;;-+ ",
"O++-##oOO OOO+-++OO OOO+--+OOO O+OO  O OO-;---+-+O OO-;;--;;;+O ",
"+-++OOOOOOOO-;-+OOOO O+---+O  OO++OO  OOO--#+++OO  +-;;;--;;-+ O",
"++OOO  OO+#-;;-OOOOOO+--;+OOO OO+++O  OOO+-+++O O +--::-#+;-+O O",
"++ OOO+O+-;;;-OO OO+---:-+O   O+---OO O O+O++OO  O-:::--o+--O  +",
"OO OO+---;:;-+O OO---:---OO  OO+---+OO OO  O O O+-:::---+++OO OO",
"O O++---::;-+O O++-------+OO  O+;;-+O   O OO OOO+::-----++OO  OO",
"OO+----::--OOO +---:----+OO  O+---+OO O  O   OO+-:------OOOOO O ",
"------::--OOO O+-::------+ O O+---+OO  O OO OO+-:-:--+-+OOO  OO+",
"-:--:::--O O O+--::-:----OO  O----+OOOOO O OO+-----+++++OOO O O+",
":--:::--OOOOOO-;::-:-----OOO O--++OO--OOO OOO++--+++OOO OO O OO+"
};
