/* XPM */
static char *redblock[] = {
/* columns rows colors chars-per-pixel */
"64 64 96 2 ",
"   c #070606",
".  c #0C0606",
"X  c #0B0807",
"o  c #0C0B0A",
"O  c #130606",
"+  c #1B0606",
"@  c #130807",
"#  c #1B0807",
"$  c #130C0B",
"%  c #1B0C0C",
"&  c #13100F",
"*  c #1A100F",
"=  c #151211",
"-  c #1B1413",
";  c #1C1817",
":  c #1E1A19",
">  c #220606",
",  c #2A0606",
"<  c #210807",
"1  c #230D0C",
"2  c #2C0D0C",
"3  c #320706",
"4  c #390505",
"5  c #340807",
"6  c #330D0C",
"7  c #3C0D0D",
"8  c #24100F",
"9  c #2A100F",
"0  c #34100F",
"q  c #3C100F",
"w  c #231413",
"e  c #2B1413",
"r  c #241816",
"t  c #2B1817",
"y  c #241C1A",
"u  c #2B1C1B",
"i  c #331413",
"p  c #3B1413",
"a  c #331817",
"s  c #3C1917",
"d  c #331C1B",
"f  c #3C1C1B",
"g  c #25201F",
"h  c #2C201E",
"j  c #33201F",
"k  c #3D201F",
"l  c #272221",
"z  c #2C2322",
"x  c #2F2826",
"c  c #342422",
"v  c #3B2423",
"b  c #322826",
"n  c #3A2827",
"m  c #342C2A",
"M  c #3B2C2B",
"N  c #3B312E",
"B  c #3C3431",
"V  c #440C0C",
"C  c #4A0E0D",
"Z  c #540D0D",
"A  c #5A0E0D",
"S  c #43100F",
"D  c #52100F",
"F  c #441414",
"G  c #4B1414",
"H  c #431817",
"J  c #4B1817",
"K  c #431B1B",
"L  c #4B1B1B",
"P  c #531312",
"I  c #5A1212",
"U  c #531817",
"Y  c #5C1817",
"T  c #541C1B",
"R  c #5B1C1C",
"E  c #611B1A",
"W  c #781413",
"Q  c #43201F",
"!  c #52211F",
"~  c #67201F",
"^  c #442423",
"/  c #4B2422",
"(  c #432926",
")  c #4A2826",
"_  c #432C2A",
"`  c #4A2B29",
"'  c #542625",
"]  c #5A2422",
"[  c #542927",
"{  c #532D2B",
"}  c #43312F",
"|  c #4A312F",
" . c #443533",
".. c #443837",
"X. c #573130",
"o. c #503C39",
/* pixels */
"r = % @ o @ $ $ $ @ @ $ : u c j z j d t t t h : = % < = = % = = w : = = o o o o     o o o $ 8 % = : - : g z j P P d t i i 2 i j ",
"t r - @ @ @ % $ @ o % % % w r w - : : r r w l r % % % = = $ = = = = o o o o o o o     o o $ % - = : % - y i t u G f c u t V p p ",
"p i r - % @ % @ @ @ @ @ + % < < @ $ % $ $ = = = o o o = $ = & & o % o o o             o o = : - : = : % t i 1 r P R ( f p q s p ",
"A S r t 8 $ @ , @ % @ % % % + % $ $ % @ $ = % @ % % o = $ & o o o o o o   o o o o o o o o o $ : = = - 8 r r - r p i v R P q H P ",
"D j y r r @ $ 1 + % $ % = = w 8 : % : % $ % > % o o o o % = & & o @ % % @ $ % o o o o     o o % $ o = @ 8 - : t p V d n v n S V ",
"S y y r 9 % $ $ $ % : : u H G p t r % r e , % % = o % o % o o % $ % % < < % % $ = $ % o   o o % - = - % - : u i A A t d _ n 0 V ",
"p y y y r % $ $ : : l h j T G e r w e 0 a 2 8 = $ % @ o = o o o + % % r r : r : % % % + o o o o = : - r r - y H I C 0 i U v a C ",
"u y : y r % o $ % e d k _ c s w t a K F e 2 w = = % % % o & = % $ = w u u : t w = w = + @ o o o = = = - r r u K G C q t C j a k ",
"c u : r r : o @ < 9 a Q v d t t D U j t % 8 < e r 8 % $ = $ o $ $ : r s u : e a d u : = % $ o o o @ @ 8 % r u c K H p 6 i v n n ",
"P H h t r = o @ 8 e a t 6 a p p H K a r w 8 6 2 8 - + $ $ $ = $ $ : r 6 0 t a f R J a = = $ % o o o % % % t V G L R H C K c m n ",
"D 6 j f 6 % . o % w t t t a F G f t t = = r w 8 + % % $ @ o = $ % r % e a a p M T I d 9 = % @ o o o o @ % t 7 H R ` v H H f z c ",
"j : j v 6 + o o % 6 e r r w G H s r % % = r r % % @ @ o @ o o : % t t 9 u v Q h d H v a w $ % o . . o o @ 1 r i H n  .Q G L v ^ ",
"K s h h : % o o % 2 8 8 2 e j u : : = : : : : : % @ @ @ $ @ $ % : 8 f K j / ^ c : c ^ 0 : = % % @         @ r t r K _ ) j Q v L ",
"p S p l g % @ o o % < 9 6 9 h : = = % $ $ = $ $ $ @ % % $ $ $ 9 8 t f v M / / M M c u w w w % % o o     o O > 1 2 p f K E / _ n ",
"a p e r r $ o o o % % t 8 w % $ = = $ $ o % @ @ @ @ @ + + $ % 8 9 r j c M / ^  .m l : w u w < % o o . O . o @ 1 2 1 t d / ' .._ ",
"d r r 0 = o   o o o % e 9 < % $ o & o o $ + + % + > + @ $ @ % : 8 r r h u v J } x l : h l : = < = @ O . o o @ @ % % - r t Q  .` ",
"p e : t = % o     @ - 9 6 + o o @ @ $ = $ 2 8 % < 2 > + $ % $ = - % r r r c n N y y r u u y = $ = @ @ @ o o o $ % r 6 6 u ^ N L ",
"I e u : u % o   o o $ @ + @ o $ @ > % $ l : : : w 6 , % o o o $ r 8 t t t z  .n t 2 i d u r l r = @ % % o o o o @ $ w 9 h z ^ E ",
"v r w t 8 @     . . o O @ . o o @ % $ : l h : % 2 p 0 0 w % o o : t p 9 t u n c t 2 i p i u y y 8 $ % % o o o o @ $ : : : x m / ",
"h u w r % o o o .   . O O . o o $ $ 8 9 t z r 9 0 0 u f p 8 % o $ r u h y a v u t t r t y u y 2 1 r : o o o o o o $ r 0 u h m m ",
"l u e r : = o o o o o .   . o o & % 2 6 D h u 9 e e p p s < % % $ y l u d L ^ z t t r % t u 9 8 6 t : $ $ $ o o o % 8 h d l h z ",
"j t e = = $ & & o @ o .     o o % r u a D v h a u V 6 < w % % = @ $ : y u ^ f u r r r t i 9 t t h y r r = o o o o % $ : h l x z ",
"h u w = = = o o o o o     . o @ % p u d p v M ^ ^ F 0 = = = = = @ = $ : u f c y y y t p p t c h h - % 8 : o o o o @ o g l l h j ",
"a l : = = $ o o @ . . . o   o @ < p t u t f L ! ^ c c l : = = $ = @ = = y u y y c c h i H v  .m l : - : = o o o   o $ % : : l j ",
"e : o $ @ @ o O @ @ @ o o .   o = e t r e i F ^ c m M m z : $ $ % @ % - u y t 1 v ^ c d K ^ n x : % = : = o o o o o $ $ : g : r ",
"% o o o o o . O @ $ o @ @ o o $ w w w 0 0 i c f i f ^ v s t w $ @ @ @ % 2 i 8 t f v c u c N z l : = % = = o $ $ o o o $ $ : r 8 ",
"@ .     o   o % $ = o % @ o % = t t w w w 0 c L Z q v / ^ v u = @ o o @ , 7 t y z n M x z g l u l : = = : = : = o   o o o = = 9 ",
"@ o o o o @ + % % $ $ o o o o 2 t q 2 < q F c f F i K ' ^ v f 2 = @ o o O 1 t u y z h z l y y r : : = = : : r = o o o o o % $ % ",
"o @ o o @ % % = $ % % @ o o % % 0 V V 0 s F L v c d L ^ v ) L q ; o o o @ @ % r y u u d l : - 8 = : $ l : w = $ o o o o $ $ $ % ",
"@ % o % $ = = % r % + o     o 8 0 2 q p c f L / L F K s ^ ) ^ i ; & o & @ @ @ @ - y r r r r : % - : - l w 8 $ $ o % o % o & o @ ",
"% % = : : = $ % 8 w $ o o   o < 0 r r t c m s ^ Y F m c c v ^ t 8 * o o o o o = $ % = = - t : = $ : : - % + % = o o o $ $ o o + ",
": : : : l g % % $ 8 % $ o   @ % r r r z m z z s L ^ c z z m v d r * = o o o @ = = $ $ $ % @ $ = = - % $ @ o o o o o o o o $ = = ",
"l : : t a r = = = = = $ o o o = : : : c z l : 0 f M N M M j v h r * ; @ @ @ o & = $ % % $ @ @ @ $ $ $ @ o o o o o o o o = : l g ",
"t = % w u = : : = = o o % o o $ : : : d M h : u c m N ^ v Q J v * * % % % % % & $ $ = $ @ @ $ $ o @ $ @ o o o o o o o = = : : y ",
"t 0 8 t h : : : : : % % o o o @ = : : c c d u h c c h d v U Y H 1 % # + @ @ @ & % % w 9 6 , % $ = $ @ @ o o o o o o o = = : l u ",
": j h k M h r w : : % @ o % @ % = h l l l M c c l u r t u H Q j 8 * @ @ @ @ @ o % w r 8 4 4 8 % $ $ $ $ o o       o = - : l z u ",
"h m m m N M t e = : w % $ @ o o = u l c p d j d u t u : u j j r r % % + % @ @ - 9 t w % % 8 : % $ - @ o o o     o o = - y u d c ",
"c M N N  .] J a : : = w $ $ o o w : t d f d d u u w u l h d t r % + @ @ @ % % t 0 w $ = r % : % $ % .     o o o o o o = : d f c ",
"M } _ M  .| k u r : : w $ @ o o = d : d ^ M j l u t u h t 9 6 % @ @ @ % % - t p a r : l t % $ o o o .   o o o o o o = r y z c n ",
"k k k 0 c N ^ s t r : w + o o @ = : : t f ^ M m c j : l h 8 8 @ o @ + > t r r t t l l m : % % @ o o     o     o o - - ; : u f U ",
"^ j f p p c R f 0 e 9 6 % o . O = e w 0 u l M } ^ M j h x 8 @ $ o o @ = r t i 9 % y x u - % : 8 @   .   o . & o = r y l y u h ^ ",
"R k c F j z ' | v p 6 7 % o . o % = w = w w i f Q j h x l $ = o @ o = : r p C 6 t h l = $ % = : @ . . . o % % = - - l c l l c / ",
"^ z M k M M ] ~ E p e 6 % % o o % % % = = w w e h l : g = = o $ > % - r p G 7 2 8 r % @ $ 8 1 8 @ . . . + % - - - r u v x g l n ",
"M ^ v M  .} _ ] P e e 6 < % % o % o % $ = = 6 e : g = = $ o = o % - % t K Z 1 r r : $ $ $ > 1 $ o o . . 1 % = - 8 7 f v n x m m ",
"^ E ^ B  .^ R / f u u w < % o % o % % w : w e 0 r = $ $ o % % = * - t q U C 6 t % $ $ : @ < + @ . . . O % % t r r t r h v z n B ",
"m ] X...B / W L c u 8 % % = & $ @ @ $ = : : w u : = $ @ o > % % - - a J L G G C = o = = r = o .     . O 1 r 2 t a h z d Z K N m ",
"k [ o. .B ^ [ ^ F 6 6 6 < w $ $ @ @ + % = % = = $ o @ @ @ + w % ; t H L L L U Z % $ : t p > @ . . . . @ 1 - r i C s z d H n n m ",
"B X. .m m B | J V V 6 < < w $ @ o @ + % = % % % % o o o $ = = r y f R Q Q A A 7 % % % 6 7 @ . o o o . @ % 1 r r i a z z c j n N ",
"M k k M M B M d V 6 w % % = % % o @ O @ @ + $ $ $ o o @ % : = : : u T L c D p 8 8 r r 9 > O     o o . @ % r r : r r h h j H ^ / ",
"d f G T s M  .c u w w = % w % % o o + @ $ $ $ @ @ o @ + = w a : t f G _ l t t w r H j : @ .   o o o . O @ % % - : 8 6 h u j H H ",
"u e F V p M ..N m z : % % w % o . . . o o o @ o @ @ % = : w a u F F K ^ d u a p 6 v h - @ o     o o o . @ @ @ + % r r : % % 9 p ",
"e : e 0 l m M k k l r = % w o o o   o o o % @ @ % % 9 t r h u l f 0 p L p e w e s H r o o o   o O . O + > @ @ + + - : 8 1 % + 6 ",
"w : r t k c k j u r - 8 % = o o       @ o @ @ % $ % t a j l l l t q P f a 8 % d M t $ o o o o @ o @ > 4 , @ @ + % % % r , , , , ",
"9 : r e u u l h l : % $ $ $ o o . o o @ @ @ + @ $ g h h h r h l r 7 F t < 6 d / s = $ $ @ o o o o o % r % @ @ o @ $ % r r 9 9 6 ",
"w : = 0 r : : : r % + @ @ o o O @ o o % @ @ @ @ % : : t w = t l : 8 = < t p j j h $ o o O O @ @ = = : = $ $ @ o o   o % = - 8 8 ",
"= : : h l : : : : $ > + o . O + % o @ + + @ @ @ % % t r r r h l 0 % $ : j v j l = o o o o @ o o = - = = - $ % @ o   o $ = 8 8 8 ",
"= : : r r : = g = $ + O . @ + + % o + , + % o % $ % 8 h h l r 9 6 < = j / k : = $ o o o o o o o = w < % < = w < @ o o o % $ w 9 ",
"w : = = 9 9 : = $ $ . . o @ o @ = % = e r : % @ % $ % l l l : % 4 F c j v u : % $ o o o o o @ $ = w 2 2 = % % 2 % % o o % @ 2 8 ",
"= : = 9 r 8 : $ o o o . o $ $ = r l u h h h < > @ $ @ % = : : $ e c N m l u w % @ $ o o o o % % : = q 6 < w w w % % o o o o + % ",
"o : r r r = o o o o o o = = : l : : l c a f t 2 8 $ o $ $ = : l m m B M l : = % @ @ o @ o @ + 9 w : e 0 w < e : = 8 $ % o o o   ",
"o $ = : = $ o   o @ % % r r g y a : d t 8 t v Q 6 % $ = o = l x x l x l r = % % % o o o @ % < u t u w d w w u z : : % % @ o o   ",
"  o o $ $ o o   o % % % r r t t p r u a w 8 / ^ d % $ $ = = = l h r l = $ $ % o o o o   o = w e e : = u u K ^ c h : 0 e = % o o ",
"o o o o o   o o % o % : r t H a t j c j 8 t K j u 8 - $ & o = = % % = = % % %   o o o o o % w w w e w : : F J / k u C 7 8 % o o ",
"= o   o o o o @ @ o @ - u u s a a G / J s v v h : - % $ = = $ $ o $ o o @ @ % o o o o = = < w = w e w = l k ^ / L d 6 p 6 9 w : "
};
