/* XPM */
static char *wall_dark2[] = {
/* columns rows colors chars-per-pixel */
"64 64 19 1 ",
"  c #060505",
". c #080707",
"X c #090807",
"o c #0D0B0B",
"O c #110E0E",
"+ c #12100F",
"@ c #151212",
"# c #191615",
"$ c #1C1817",
"% c #1E1919",
"& c #221D1C",
"* c #26201F",
"= c #272120",
"- c #2A2423",
"; c #2F2826",
": c #302927",
"> c #332C29",
", c #3A322E",
"< c #3D3430",
/* pixels */
">---:>-&%&$##@+@+#O######&###O&&&####+##Oo.OOOooo..Oo+Oo#&&&&&&-",
"->;>>>-&%%$@@+++OO+####+#&####&=-##&###O#O.oOOOOo..oO+oO#&&%#&&-",
"*-----=&$#$@+#+OOO+O+#######O#&--&##&##O+#OOOOOO...O+OoO#&=&&##&",
"&&&--=*%@@#@@@XXOOOO+####&##O&&--&######OO#OOOO.ooOO+ooO#&=&#%##",
"@@#%&%%#++$$@XXOOoooO##+%&##+%&;--&######O###+O.OOOO+OoO%&-&%##+",
"@XX@#$@OXO#&@XX.OoOOOO%O###+#&-->-=&#######O#+OOOOO#+oOO%---%%+#",
"+..X@$+..+$&@X..OOOOOO###%###%=>>:-&%########OOOOOo#O.OO%&-&-&&&",
"+X.X+@..X+@$@X..ooO.oO#+%&###%-->>-&&######%#+OOOOo+OOOO#&&&>;-&",
"$$++#+. ++$++o .OOo.oO#+&&###&->>>:-&%%##&&%#+OOOOOOOoOOO#%&-->-",
"--**$$$#$$+oO. .OOoooOO##&&##&=><<>-&%###%&=&+OOOOOOOO+OO+%&=--;",
"::---*&**$+OOO .o+oooOO+#&=%&&-;<<>-=%##%&&=&#++OOOOOOOOoO#&&&->",
">-----$%*$O.oO.OOOOoOoOO##&%&-->,<>--%##%=%--#++#O#O+OOo.o+#OO=-",
"*=-:>>%#+O..OO.oOOOoOooOOO#&&&->><>--&##%%%;;##+OO##OOO..o+Ooo%&",
"$*$&--#..  .O.O.oOOOOOOO##+#%->>><>--%@#%%=>-+++OOOOOOo.oOOo.o%+",
"+#++#+O    OOOOOoo+OOOOOO#O+#--;><>-&###%&->=+++OOO.O.oOOOOo.o+O",
"O++.Oo   o..+OOOoOOO+O.OOOOO+#=-->-&=%@#%=>-%+++OOo...OO+Oo. .oo",
".o.o.    ooO@@o#oooo#oooOOO++##%&--=&###=-=&#OOOO...OOO###.O...O",
".o..O  ..@@@@#@#@ooo##ooOOo+++##&:=-&##&-=&#OOOO...OO+###OO#O.o.",
".o .  .+o@@$@##oooooo#@oOOO+#O#&&--&-##&-&##O.o. .oOO#######@OOO",
"+. ...oOo@$@@#%@@o..o##oO++OooO+#*&%&+#&%##O.OO...OO+&%&#%#&#OO#",
"$@ oOO+O@@$$$@$@Oo...#@O++#+o..O####&###OOOoOO...OOO#%###%#%####",
"$@o@+$#+@#$$$$$#Oo..ooo#%++#O..O######O.oooO@...OO+O##&#@#&&&##&",
"$+.#$$@@$$$$$$$$Oo..oo@##&##Oo o@##@#Ooo..+#O..OoOO###&#@%&&&###",
"$+.#$#+$$$$&$$#$@oooooo#%&%+#O..@@##Ooo.o#&O.O..o#O##&&#@#&&=&&#",
"@@+%$@@%%$$%%%$$#ooOoO###&&%%+OO##%#@oo ###OOOOO@@@##%%#O#%&-&&#",
"@@@$$@#&%$%%&*&@#OoOOO####&&%%%#&&&%@@@#%%#@#OOO#@@@@%%#@#&===&&",
"@@##@#%&&&&&*-&##OoOO@####=-&&-----&%&&&&###@OO@@@@O@#%%O@#===&&",
"#@##$@$&*&=&--*$##OO@@####&-=->>----=-:=&###OOOOO@@O@#%####&=&&%",
"#@@$#$%%&*==--=%##@o@@#####--->-*----::&#@#@OO@oO@@O@%%%#@#&-=&&",
"$##%@$%&*=----=&&##oO@#@@##&>>>&%---:>-#@OOOoOOoOO@O@%%%#@#&==&%",
"##$%$$#%&---->==&##@OO@OOOOO->-&#+%&*:&##@@OOOOOOO#@###%#@@&&=&&",
"$##$%%#%%--->>-=-&##OOOOOoOO--&#+OO#&*&+#OOO.o@oOO##@@#%##@&=&&%",
"##%#%%#%%-;->>>--%##OOOOoo.o###OOoooO#@O+.oO..OOoO&#++##&+##=&&&",
"#%+#%%+#%=--->>-&&&%##OoooooOOO. oooo@OOO.....OOoO&##+##%#+#&=#&",
"+#%%#####&--->>-&&%###OoOOO..oO  o  oOoo....o.O#OO#&#+#+#+O+&&##",
"+#####+#+%&-->>;&&&%#&#OOO#+.o.  Ooooo  O.o.O.O+OO##+OO###O#####",
"+####%++#+=--->-&&###&#O+###o...oOO@O  o.O.O+OO##OO#+OO###O#+%##",
"#####%#%+O#==-;&###+&&&#####O..oO@@#O  @#OO##+##OOoOO#++&&+#####",
"###%%%##oo+%=&&&O+###&&#&#+O+. O@O#OO o######%#&#o.OO%#+&&######",
"###%&%+#+oo#&#++OOO+&&&%#&#O+o.OOOOOOoo@###&&&&&#O.O+#%##&%#&##O",
"+##&&&%#OO.O#+++O..O&&&%###OO+OOOooO+oO#+#&---&&#OOOO#%#%%%&&#+O",
"+##&-&&##O.O&#+Oo..+%&&&#OO++#OoooOO++##%&&>-&--&###O####&&&&&#O",
"+#+#-==%#+O#-%#O..O#&--##OO###OO OOO+##%&&->>---&&##%#+++#&&#&%+",
"#+O#&-=&&##%>=&#O#&&--&#+#+###+OoOO###%&&&->>>--&&##%%#OO+####&#",
"+OOO&----=&&>-&&%&&--&###++#+##.oO#%%####&-->,>--=&##%&+oO##&+#&",
"+Ooo#-;->-->>-=-&==--#O+#OOO@#O  o#&#####&&->>>>>>&&##%+O#++####",
"++oO+=-->-->>=-&=-&&##O+OO+OO##Ooo#%######&&->>,,>=%########O##O",
"O+OO+##%&-->=&&&&&#++OOOOO##+##Ooo+&&#&&###%&--,,-&%######&###+O",
"++OOOO@OO#%&%OO#+o OOoO#OO####OOOO+&&##&%###+%&-,-&%##+%####%%++",
"+OooOOOOOO@#O .O   . OO@OO###+OO#++#&&#&&##+O+&=>-%#O+##%+#%&%##",
"#OooOOo..Oo.        oO#@OO@#OOO##+O+#&%&-&#+OoO&-=%+.O#&&+######",
"#+OoOO. .O..       . O@O@O###@@@#OOO##&---#+OOO%-&#Oo+#&%+#+####",
"###OOo.  O          .+#+#O######OOOO###->>-%+++#=&#O+&&&###+####",
"####Oo          .. ..#++@#O&&&O@#OOO++%&-->-##%&===&&-=&+###OO#%",
"##&#Oo.      O +O..oOOOO+O#$$%@O#OOOO##&&->;-&&->>->>=%#+#+#+###",
"%#&%#O.. OoO  .@O.O.OOOOOO&##%#OOOOoo#&&%&&>--->>>>-=#O#O+O+##&%",
"#%&&&#O.X#OOXOOOOOoooOOOO+%&###OO+OO.O&&%%#&--->,>-#+#oOO+O##%&%",
"%#==*##OOOOOOXO+OOo.ooOOO###O##O+OOOOO%-&&O+&&--;-#@OO.OO###%&&%",
"&#---&###@OOOOOOOOO+oOOOO#####O#OOOOOo#&&#OOO#%#%#OOOO..OO##&&&%",
"&&----&#$$OOOO@OOO#++++#O##&#####OOOOoO%%+o..OOOO#OO....O#+&&==&",
"---;--&##&#OOO+@OO+##+#OO#&#&###++++OOo+OO....OooO.....O##%&-&--",
";--;>-&#&###O###OO#%###OO######&#++##OOoOO.............O##&-----",
";--;:-=%&&##OOO#++###%#O##&##+#&#++##%Oo....O.....O...OO##-=&&--",
";---:>-#&&&$#+O#######O##&&##O&&%##+#%#OO...OOO..OO.OOOO#%&&&&&-"
};
