/* XPM */
static char *image03_resize[] = {
/* columns rows colors chars-per-pixel */
"64 64 222 2 ",
"   c #3986CF",
".  c #3C8ACC",
"X  c #3A87D0",
"o  c #3A88D0",
"O  c #3B8CE5",
"+  c #3C8EEA",
"@  c #3E92E6",
"#  c #3E92EC",
"$  c #3F95F0",
"%  c #418EC9",
"&  c #408CC7",
"*  c #4390CB",
"=  c #4D94CC",
"-  c #4C9CCE",
";  c #519ACD",
":  c #539EDB",
">  c #529FD1",
",  c #4F9CD9",
"<  c #4CA3DF",
"1  c #56A4D5",
"2  c #5AA5D5",
"3  c #5BAAD7",
"4  c #54A3DC",
"5  c #5BA6DA",
"6  c #55A8DD",
"7  c #5EA9DC",
"8  c #57A8D6",
"9  c #64ACDA",
"0  c #6AADDC",
"q  c #69AAD5",
"w  c #6DB2D6",
"e  c #6BB4DC",
"r  c #6DBADD",
"t  c #67B6DD",
"y  c #72B4D5",
"u  c #73B5DB",
"i  c #74BADE",
"p  c #7BBCDB",
"a  c #7BB7D8",
"s  c #7FBDCC",
"d  c #4294E6",
"f  c #4C97E7",
"g  c #4295EB",
"h  c #4A96EB",
"j  c #449AEB",
"k  c #4B9AED",
"l  c #5399E6",
"z  c #539CEC",
"x  c #5B9EED",
"c  c #5F9EE6",
"v  c #4096F0",
"b  c #449AF1",
"n  c #4A9EF2",
"m  c #529EF1",
"M  c #629FE8",
"N  c #4DA1EB",
"B  c #4EA5E0",
"V  c #51A6E2",
"C  c #54AAE2",
"Z  c #54A3EB",
"A  c #5CA3EC",
"S  c #5CA9EF",
"D  c #58ADE4",
"F  c #4DA1F3",
"G  c #52A4F4",
"H  c #5BA5F3",
"J  c #56A8F5",
"K  c #5BAAF5",
"L  c #6DAEE5",
"P  c #65A3ED",
"I  c #6BA5ED",
"U  c #65A9ED",
"Y  c #6CAAEB",
"T  c #73AEE4",
"R  c #74ABEC",
"E  c #7BACED",
"W  c #78AEE2",
"Q  c #64B4E2",
"!  c #6CB4E4",
"~  c #66B9E4",
"^  c #6CBBE3",
"/  c #6EB1ED",
"(  c #6BBDE8",
")  c #72B1E5",
"_  c #73BBE2",
"`  c #73B2EC",
"'  c #7BB4EC",
"]  c #7AB5E2",
"[  c #64A5F2",
"{  c #62ADF6",
"}  c #6AADF3",
"|  c #6AA6F1",
" . c #72ADF1",
".. c #7EAFF0",
"X. c #65B1F6",
"o. c #6CB3F4",
"O. c #72B3F2",
"+. c #7BB5F1",
"@. c #7EB8F2",
"#. c #7EC2DD",
"$. c #77C2DF",
"%. c #75C1E3",
"&. c #7CC4E2",
"*. c #7EC9E4",
"=. c #77C4E8",
"-. c #81BECD",
";. c #82AFDF",
":. c #85B7DD",
">. c #81AFEF",
",. c #83B3E4",
"<. c #89B6E2",
"1. c #83B4EC",
"2. c #8AB6ED",
"3. c #84B9EE",
"4. c #8BB9EC",
"5. c #8DBAE6",
"6. c #94BAE5",
"7. c #9BBEE4",
"8. c #93BBED",
"9. c #9ABDEC",
"0. c #92B7EC",
"q. c #82B5F1",
"w. c #8ABAF1",
"e. c #93BCF0",
"r. c #85C1CF",
"t. c #88C2CE",
"y. c #84C3D1",
"u. c #8BC5D2",
"i. c #8CCAD5",
"p. c #84C4DD",
"a. c #89C7DD",
"s. c #87C9DD",
"d. c #8CCBDD",
"f. c #87C9D3",
"g. c #92C7D1",
"h. c #93CCD6",
"j. c #9CCCD5",
"k. c #92CEDD",
"l. c #9BCFD9",
"z. c #8FD1DD",
"x. c #8FD0D7",
"c. c #94D1D7",
"v. c #94D3DB",
"b. c #9BD3DC",
"n. c #99D8DE",
"m. c #A6CFCE",
"M. c #ABD4CE",
"N. c #B5D6CF",
"B. c #A4D1D6",
"V. c #ACD5D3",
"C. c #A4D4DB",
"Z. c #ABD6DB",
"A. c #ADD9DD",
"S. c #B1D6D4",
"D. c #BBD6D3",
"F. c #B4DAD4",
"G. c #BBDCD6",
"H. c #B3DBDC",
"J. c #BCDDDA",
"K. c #A2CFD4",
"L. c #BDE0D7",
"P. c #BDE1DB",
"I. c #B5E1DC",
"U. c #83C5E1",
"Y. c #84CBE3",
"T. c #8ACDE2",
"R. c #89C7E0",
"E. c #91CEE0",
"W. c #9CC1ED",
"Q. c #9AC1E6",
"!. c #8DD1E4",
"~. c #93D4E2",
"^. c #9ED6E0",
"/. c #96D9E3",
"(. c #99DAE3",
"). c #A4C3E6",
"_. c #A9C6E6",
"`. c #A4C4EC",
"'. c #A9C6EB",
"]. c #ADC9EB",
"[. c #ABC8EB",
"{. c #B3CDEC",
"}. c #B8CFEE",
"|. c #A0D7E0",
" X c #A5D9E1",
".X c #ADDBE1",
"XX c #B3DDE1",
"oX c #BBD1EE",
"OX c #B5D1EE",
"+X c #AEC8F0",
"@X c #A5C3F0",
"#X c #B2CBF0",
"$X c #B8D0F1",
"%X c #B5E0E3",
"&X c #BCE1E2",
"*X c #C3DDD6",
"=X c #C3DEDA",
"-X c #C8DFDB",
";X c #C8DFD7",
":X c #C2E1D7",
">X c #C4E2DB",
",X c #CCE4DD",
"<X c #CEE9DE",
"1X c #D2E6DE",
"2X c #D5E8DE",
"3X c #DAEADE",
"4X c #C6D9F1",
"5X c #C4E3E2",
"6X c #CDE5E0",
"7X c #CEE8E1",
"8X c #D3E6E1",
"9X c #D5E9E2",
"0X c #DBEBE3",
"qX c #DEEDE8",
"wX c #D8E7E2",
"eX c #E1EEE5",
"rX c #E2EEE9",
"tX c #E3F0E6",
"yX c #E5F1EA",
"uX c #EBF4ED",
"iX c #EDF5F0",
"pX c #F3F9F6",
/* pixels */
"O d M R ,.8.9.`.].#X+X9.E M x d + + O O O d M >.0.E x d + g + + O O O O O O + + + O + + O O + + O O O O + + + + O O + + g + + h ",
"o O d l l P R 8.+X].+X+X+X0.>.M k d + O + + + + l M E >.| x g + + O g + + + + + + + + + + + + + + + + + + + + + + + + h h h h h ",
"O O O d l l f k M R 0.+X+X+X9.0.>.M h d + + + + + + + d x I I M h g + + + + + g + + g + + + v + + + + + + + $ + + + v v h h h h ",
"@ o d d @ d d @ d h l M I 2.0.0.0.w.>.M h + + + + + + + g g v x I E m x >.x g h I g g g v + + v v + + + + + + + + + + v v h z z ",
"@ @ @ @ @ @ @ @ O d d h z l z x I R E >.E I z j + + v g + + v v x >.e.| >.>.E 0.@X9.0.z $ + $ + + + $ + $ + + $ + + v v + v + h ",
"d d @ @ @ @ @ @ j + d d h h h h h k z U E | E  .H k v v v + + v m x >.>.P I h h | 0.@X| + $ + $ $ $ + $ $ $ $ + v v + + + v + v ",
"d @ @ # @ @ # # @ # j j j j h k k h h h x I x z | | | x k v v v h h m x h | | x k m | m $ $ $ $ $ + $ + + $ $ $ + v v + v + v + ",
"@ @ d @ @ # # @ # j + d j j j h k k m k n x A k k k m | I | m h v v h h h v v v v b b $ $ $ $ $ $ $ v $ v v $ + + v + v v + v v ",
"j @ @ @ # @ # # # @ j # j j j # j j n k z m z n k k n j n A [ | H m v h b b b v v v v v $ $ $ $ $ $ $ $ $ $ $ $ v v v v v $ $ v ",
"@ @ j j @ N d @ # j @ # j # j j j j j b k n n k n n n n n n n F x | | H m n b b n b v b b b n b b b b b b $ b $ v v v v b b n b ",
"j j j j j j j j j # # # j Z N N A [ A j j j n b b n j n n n b b n m m m | | { m n n n b n n n n b b $ b b b $ b h v v v b b b n ",
"@ < j j j j j j j N N N j N A Y 4.+XoXW.J k k b n k n b n n F b n n n n m m { O.| m n m G n n n F F F F b F F F h n n n b n n m ",
"j j C C C C z f A U R W.4.Y k N N Y 2.`.`.1.J N n F j F N b F F n n n n n F G m J | H m m m G m F F F F F F F F F n F F n n m m ",
"j j N B Z Z A U T 6._.9.{.4X4.q.A N F G J U U J F F F F F F F F n m G m F F n G n m J G G G m G F F F F F F F F F F F F n m F G ",
"Z N N N N N Z N z U 3._.].oXoX9.W.Y Z G m G Z F G N F F F G F G G G G m G G G G G G G m G G G G G F F J F F F F F F F F F F F J ",
"_.,.U Q Y L Z Z A Z A Y R ' 8.8.1.1.R Z G A ' / J G G G J G J G J J J J G J G J J J J J G G G J G J G J J J F F F F J G G G G G ",
"_._.7.,.6.).].9.L W <.1.W Y S A K S S Z J S ' 9.8.4.O.K K J K K { J { J { | { K J { { J K K J K J K J J J J K K J J J J J J J J ",
"OX{.,.6.).7.7.].].].7.7.7.8.7.W./ S K U ' 1.8.].W.4.].1.Y { K K { { { X.| O.| { | >.>.O.O.{ K K K { K K K K K K K K K K K K K J ",
"_.].].].].].).].]._.{.]._.`.].oXOX4.' ' 1.`.].W.3.O.O.' O.Y { o.O.| +.+.4.4.O.O.X.X.O.O.X.X.X.X.X.o.q.o.{ { { X.X.K X.X.X.X.K X.",
"u W :.,.:.:.6._.Q.<.6._._.7.7.7.].{.{.{.].W.' 1.+X`.' O.O.o.O.O...q.U.@X@XQ.8.1.>.e.q.O.O.O.X.o.o.o.o.@.o.X.X.X.X.X.X.X.X.X.X.X.",
"L 0 ,.5.T T T ! L R ! T T T ,.;.:._.oX{.].`.8.' Q.OXOXoX@X`.W.4.+.O.e.@X8.' O.' O.O. .+.@.O.O.o.o.o.o.o.o.o.o.o.o./ o.o.X.=.X.X.",
"L L L L T L ! Y ! Y / L T T T T W ) ,.,.W 5.4.,.4.'.{.4X4XoX`.`.q.O.@.O.' 4.9.8.9.@Xe.q.8.e.@.O.+.W.3.e.@.O.o.o.O.O.o.O.o.o.o.o.",
"0 L L T 0 T L L L L Y L T T T Y ' T ' / / ' ) ' ' R ' ' @.` ' ' ' / ' O.' ' ' ' ' ' ' 3.3.' 1.' O.1.e.W.4./ / / / o.' O.@.@.@.O.",
"P 0 0 T T L L L L L L L L L T T L Y T T L L R ! ! T ' ! ' ) ' ' / ' / ' / ' / / / ' O.' / ' ' O.O.O.' ' ' o.' / / / / / / / o.O.",
"1 2 8 2 2 2 2 8 2 3 9 9 0 q 9 9 3 3 7 7 7 7 7 7 4 2 4 : 4 : > : 8 = = 4 4 > 4 : 4 4 : 4 : 4 4 4 4 4 Z 4 8 < < < < 4 4 : : : : : ",
"& & & . & & & * % * * = = = * * = % % % % % . . . . . % .     . .   X .   .   . . . . . .   X .       o       X       o X X X X ",
"1 ; - 1 1 1 2 2 > q q q w q 0 0 9 9 L 0 9 0 e 0 W e 0 0 Q 9 3 6 < 6 3 ! 9 3 3 7 4 6 6 6 4 < C < < 6 4 6 C C C C < 6 B B B B B B ",
"8 8 8 8 8 9 8 9 9 w w w y W a a u u u e u u u ) u _ _ ] ^ ! ^ ^ ^ ^ ( _ _ ! ^ ! ^ ^ ^ ^ ( ( ~ Q ~ ~ ^ ^ ~ ~ ~ ~ ~ ~ ~ ~ ~ ( ( ( ",
"w w w w p w u u u a p a :.a a a a u p p e y u u p _ ) p ^ ^ ^ ^ =.=.%.*.=.%.%._ %.%.t ^ t t t %.^ t ^ %.=.=.%.%.%.%.%.%.t ^ ^ r ",
"y w w y y w y y u p p p.R.U.R.p.U.] ,.U.$.&.U.&.&.&.U.&._ %.%.$.%.%.%.$.] %.p ^ t %.r r %.t %.%.t r r %.$.*.%.%.%.=.=.*.%.&.&.&.",
"s p p p s p $.$.:.$.p.p.:.U.p.p.p.U.$.$.p.&.p U.U.&.&.&.&.&.%.%.%.$.&.&.&.&.&.&.&.&.*.*.#.$.*.=.*.Y.&.*.*.*.*.*.=.=.*.*.*.*.&.Y.",
"p p $.#.$.$.p.p.s.U.a.R.a.R.R.U.s.R.p.p.p.R.R.U.U.U.U.&.&.&.$.&.&.&.Y.U.Y.U.Y.U.!.Y.Y.*.!.!.!.*.#.*.Y.&.*.*.*.*.*.*.*.*.!.!.!.Y.",
"s #.#.#.$.p.p.p p.p.a.a.a.a.p.U.R.R.R.R.s.R.U.R.U.U.Y.R.!.Y.U.Y.Y.!.U.U.!.!.U.!.!.!.!.U.Y.Y.*.#.*.Y.z.*.*.!.&.Y.Y.Y.!.!.!.!.!.!.",
"#.#.#.#.p.s.p.d.a.R.E.E.E.E.R.R.~.R.!.R.R.R.!.R.!.~.!.R.!.Y.!.U.Y.!.!.!.!.!.!.d.U.z.s.s.!.!.z.Y.!.z.!.!./.!.!.!.!.!.z.z.*.!.!.!.",
"#.#.p.d.d.d.E.E.h.R.R.~.E.E.E.~.~.R.d.d.!.!.d.!.~.!.z.!.R.z.v.z.!.v.z.v.n.n.~././.z.z.v.v./.(.(.(.(.(.(./.(././.(.(.z.z.z.n./.(.",
"f.f.p.d.s.d.R.E.E.~.h.E.~.h.h.~.~.v.d.v.z.v.z.z.v.z.v.v.v./.n.v.v.v.v.v.l.n.n.n.^.v.n.v./.v.v.v.v.v.(.v.v.v./.v.(.z././.n.n././.",
"f.i.d.i.d.d.a.u.d.a.u.d.h.a.d.u.i.i.i.i.f.f.d.i.d.x.x.c.c.v.h.c.v.v.v.h.h.v.c.c.v.n.l.c.c.c.c.z.x.z.v.c.c.x.x.x.c.n.v.v.x.n.x.n.",
"#.r.s y.-.y.r.r.u.-.r.r.-.-.-.y.y.y.y.y.u.u.f.i.i.i.i.i.d.h.c.c.c.v.h.h.h.h.c.i.d.h.c.c.h.c.v.h.n.v.l.g.v.v.v.v.n.n.n.v.n.n.c.n.",
"-.-.s s -.t.-.-.r.y.t.u.-.h.y.-.u.u.i.i.u.i.u.u.u.h.i.h.h.h.l.v.v.n.l.n.l.l.n.n.h.^.h.^.^.n.^.^.n.n.C.n.C. Xn.^.C. X X X X XC.n.",
"-.r.t.y.u.t.t.h.t.g.t.h.h.j.h.j.h.l.K.n.l.l.C.n.C.n.c.l.n.l. XC.C.C. XC. X XC.C. X X.XC.n.C.C.XXA.A.A..X.XC.%X%X.X.X.X X.XA.I.A.",
"t.g.h.g.j.j.h.j.n.j.C.K.l.l.K.C.l.C.C.C.Z.B.|.B.C.n.B.C.C.C..XXXZ.Z.A..XXXXXA.Z.XXZ..XXXA.XXXXXXH.XX.XXX%X X.X%XA..X%XP..XXX&XXX",
"g.g.h.C.B.C.C.C.B.C.Z.B.K.Z.A.A.Z.Z.B.A..XB.B.XXC.C.Z.Z.C.Z.H.C.Z.Z.B.A.H.H.H.H.H.XXC.H.XXH.XX%X.XXX%XP.%X%X&XI.%X%X%X%XH..XZ.%X",
"g.g.j.K.K.B.K.B.%XH.S.H.Z.A.A.H.C.Z.A.A.Z.Z._.XXH.XXA.A.C.Z.H.H.J.H.H.A.H.%XH.%XXX5XH.XX%XXXXXI.H.XX%X%X%X%X.X.XI.H.I.H.%XI.%X5X",
"V.K.K.K.B.B.B.A.A.S.A.B.Z.H.A.A.Z.Z.A.B.Z.J.J.H.5XH.I.H.H.H.H.H.H.H.J.H.%X5XH.A.J.%XXXJ.5XJ.H.H.5X%X5X%XI.C.A.A.I.P.I.P.>X5XP.5X",
"K.Z.A.XXA.D.A.S.A.F.I.A.S.I.I.V.A.S.S.S.J.S.B.L.I.H.L.F.V.P.F.I.H.J.F.F.>XP.F.P.5X5XI.P.P.F.P.P.P.>X>X>XN.L.G.L.>X<X2X5X>XP.P.<X",
"S.S.S.S.D.A.J.H.V.S.I.L.P.I.S.V.S.L.I.S.V.S.S.S.G.J.G.F.G.P.L.G.G.G.L.F.L.L.L.:X>X>X>X>X:X>X>X>X>X:X>X>XP.:X<X,X>X>X>X>X7X7X<X>X",
"V.B.M.M.F.F.F.F.F.I.>XS.S.P.L.L.L.L.L.L.F.L.L.S.L.L.L.F.G.L.G.G.P.>XF.L.:X<X<XL.>X>X>X>XL.:X<X,X<X:X<X,X*X,X,XL.<X7X5X<X,X<X9X>X",
"m.N.G.S.M.S.G.G.L.F.L.N.N.L.G.F.L.>XG.L.<XP.P.L.L.G.G.G.*XL.G.G.:X,XL.J.>X>X:XG.L.>X7XP.L.6X>X6X,X:X:X,X>X>X,X:X:X<X:XG.:X<X:X>X",
"m.D.S.F.G.F.F.S.G.G.*XF.:X*XG.G.>X,X>X=X,X>X,X:X:XG.>X>XF.>X=X>XG.,X>XL.G.6X>XJ.A.J.>X6X=XA.6X=X>X,X,X,X7X>X>X>X6X6X>X7X6X6X6X6X",
"m.S.G.G.J.J.G.G.*XG.G.=XG.J.G.F.H.V.>XG.F.>X,XJ.>XJ.<XG.=XJ.J.6X*X=X>X>X=X>XJ.>X,X6X>X>X,X6X,X,X:X,X,X,X8X,X>X6X6X9X9X9X<X7X7X6X",
"S.H.H.G.=XJ.>XJ.F.,XG.J.=X=X>XG.J.=X6X>XG.>X,X,XG.J.1X=X>X=X>X=X>X=X6X>X6X,X>X6X8X8X6X,X=X,X,X>X,X>X6X>X>X,X>X6X>X>X>X6X9X9X9X9X",
"S.D.G.S.D.J.J.J.S.J.,X6X=XJ.J.,X=X5X9X>X>X>X,XJ.>X>X,X=X=X8X6X6X,X*XG.,X8X6X6X6X,X8X,X,X,X,X9X6X6X>X>X>X6X9X0X0X9X9X9XqX9XqX0X5X",
"D.J.=X=X=XJ.-X5XH.J.7X6XJ.J.8X6X5X=X6X8X8X6X9X>X=X,X6XJ.G.8X6X8X0X6X1X,X9X9X6X9XqXqX9X6X8X9X6X8X,X6X8X6X8X,XwX0XqXqX9X9X9X8X6X8X",
"=XG.=X=X>X=X=X6XG.=X9X1X9X9X,X,X9X6X>X6X6X8X8X9X8X6X0X8X=X,X0X,X9X6X6X0X0X0X8X6X8X0X1X0X8X0X1X1X8X0X0X8X>X8X8X8X,X9X9X1XqX9X9X0X",
"8XG.H.6X,X-X6X=X9X1X>X1X6X6X9X9X8X-X,X,X5X=X8X9X>X,X8X8X8X,X0XwX,XrX1X8X8X-X8X8X,X0X8X8X,XwX8X0X0X8X8X0XwX0X8X,X,X8X0X6X8X9X9X0X",
"D.J.*X=X=X-X6X8X8X1X9X9X8X9X9X>X,X8X8XqX,X8X8X,X=X9X=X6X,X,X,X8X,X,X8X8X,X6XwX=X8XuXqX8X8X0X8X0X0X0X0XqX0XqX8X9XwX0X0X0X9X0X9X8X",
"=XJ.6X=X=X-X;XH.,X8X=X,X,X=X8X,X1X0X=X=X9X1X0X0X1X1X1X1X*X1XeX,X,XeXyX0X9X9XqX,XwX1X1XwX1X0XwX8XeX2X2XwX2XeXeXtX1X0X0X2XwXeX3X0X",
"=X=X=X-X1X-X*X-XrX6X,XwX8X1X,X-X0X1X9X0X9X9X3X0X3X,X2X1X1X1X,X1X:X9XeX8X0XyX8X8X2XwXwXeXeX0XwX2XeXeX;X1X2X1X2X2XwX1X1X1X0XeX0X0X",
"D.wX8X-X-X8X-X1XG.*XD.*X1X,X,X8X1X2X,X,XpX3X,X,X3X0X1X,X1X,X9X9X,XwX0X6XqX0X0XqX1XwXeX3XeX;XwXeXeX1XeXeX2X2X2X3XwXwX1XwX0X1X0X0X",
"=X-X-X,X=XD.-XwX1X=X=X;X1X,X0X1X1X1X1X1X8X,X1X,X1X-X,X*X1X1X0X0X8X,X1XqXrXeX8X8X3X;XwX2XrX1X1X2XwX1X2XeX3XeX3X3X2XeX1X0XeX1XrX0X",
"H.1X*X-XN.*X=X1X*X1X1X;X1X-X1X2X1X2X-X;X1X,X2X0X8X1X1X1X2X1X1X0X1X0XeX1XqX1X0X0X3X2X3XtX3X2X2X3X2X3XeX2X3X3XtXtXtX3XeXtX3XyXyXeX",
"D.*X*X;XD.-X1X;X;XD.D.1X,X,X-X;X0X1X1X,X,X2X3X3X0X0X0X3X3X1X,X3X0XwXeX1X1X0X3X3XrX3X2XrX3XeX2XwXwXeXeXeXtXtX3X3X3XtX3X3X3X3XeXeX",
"*X*X1X;X-XwXrX1X-X;XwX1X1X1X1X2X3X3X*X*X3X2X3X3XeX2X3XeX3X0X3X3X1X0X0X0XwX1XeXtX3X3X3X3X3XrXeX2XrX3X2X2X3X3X3X2XtXtXyXtXyXyXeXeX",
"1XwXeXeX1XwXrXiXwXwXrXeXeXeXtXtXuXeXyXtXtX0XtXtX0XuXtXuXtXtXiXuXuXuXeXuXeXuXeXiXuXrXuXrXtXuXuXuXuXuXuXuXuXuXuXuXuXuXuXuXyXuXiXyX"
};
