/* XPM */
static char *image01_resize[] = {
/* columns rows colors chars-per-pixel */
"48 64 150 2 ",
"   c #320D0D",
".  c #380E0E",
"X  c #370F10",
"o  c #23191F",
"O  c #2B1D1D",
"+  c #3E1E1E",
"@  c #1F2528",
"#  c #152A37",
"$  c #172738",
"%  c #17293B",
"&  c #16313F",
"*  c #1C333D",
"=  c #242323",
"-  c #282020",
";  c #292929",
":  c #332523",
">  c #362E24",
",  c #3F2A27",
"<  c #2E322F",
"1  c #3F392C",
"2  c #223136",
"3  c #24353A",
"4  c #283639",
"5  c #2E3D3E",
"6  c #343533",
"7  c #343934",
"8  c #383830",
"9  c #3E3E3E",
"0  c #483520",
"q  c #4E3A23",
"w  c #403528",
"e  c #4C3E2C",
"r  c #523D25",
"t  c #403E3C",
"y  c #574027",
"u  c #594228",
"i  c #0C2F42",
"p  c #162D42",
"a  c #1A2E41",
"s  c #0E3041",
"d  c #09344B",
"f  c #0D384F",
"g  c #143246",
"h  c #1F3143",
"j  c #1E3842",
"k  c #113449",
"l  c #1E3B4A",
"z  c #003957",
"x  c #0A3A53",
"c  c #013C5B",
"v  c #093D59",
"b  c #213D47",
"n  c #203C4F",
"m  c #003F60",
"M  c #0E405C",
"N  c #1C4252",
"B  c #13435D",
"V  c #1E475D",
"C  c #2D4044",
"Z  c #20424E",
"A  c #2A424F",
"S  c #34434F",
"D  c #2A4B5E",
"F  c #39525F",
"G  c #004264",
"H  c #094464",
"J  c #0A4967",
"K  c #004569",
"L  c #01486E",
"P  c #0B4B6C",
"I  c #184760",
"U  c #1D4A63",
"Y  c #1E506A",
"T  c #004C73",
"R  c #094F72",
"E  c #004F78",
"W  c #01537D",
"Q  c #135272",
"!  c #1E5571",
"~  c #1C5877",
"^  c #125679",
"/  c #155B7F",
"(  c #1A5C7E",
")  c #224D64",
"_  c #265065",
"`  c #24526A",
"'  c #305061",
"]  c #3E5663",
"[  c #30576B",
"{  c #395B6D",
"}  c #2E5D76",
"|  c #235C7A",
" . c #285D79",
".. c #315F76",
"X. c #2D607A",
"o. c #346076",
"O. c #3B6175",
"+. c #33627B",
"@. c #39647B",
"#. c #474A4F",
"$. c #544040",
"%. c #46525A",
"&. c #4C5C66",
"*. c #445D6A",
"=. c #4C5E68",
"-. c #525D63",
";. c #585F63",
":. c #43606F",
">. c #4C606B",
",. c #566167",
"<. c #54636B",
"1. c #5C6468",
"2. c #5D686E",
"3. c #436374",
"4. c #4A6572",
"5. c #546770",
"6. c #566872",
"7. c #636262",
"8. c #6A6866",
"9. c #636769",
"0. c #65696C",
"   c #6B6B6B",
"w. c #7B736F",
"e. c #606C73",
"r. c #64747C",
"t. c #6C757A",
"y. c #7C7472",
"u. c #7C7C7D",
"i. c #837F7D",
"p. c #86807D",
"a. c #005581",
"s. c #045883",
"d. c #0D5981",
"f. c #115A80",
"g. c #447089",
"h. c #587C92",
"j. c #88949D",
"k. c #949B9F",
"l. c #9B9A9A",
"z. c #B99A8C",
"x. c #A29A97",
"c. c #B09B91",
"v. c #949CA3",
"b. c #C39F8D",
"n. c #C5A18F",
"m. c #D2B4A5",
"M. c #D5B8AA",
"N. c #D4BFB5",
"B. c #DBC3B7",
"V. c #DDC4B8",
/* pixels */
"                                                                                                ",
"                                                                                                ",
"                                                                                                ",
"                                                                                                ",
"                                              3.f.^ Q >.                                        ",
"                                            3.W T T T R =.    0.                                ",
"                                          3.W T T T T T L 2.  8.                                ",
"                                        4.a.T T T T T T K K 2.8.                                ",
"                                        3.a.T T T T T L K K =.                                  ",
"                                        3.W T T T T P i.%.z 2.                                  ",
"                                        O.W T T T P u.b.%.g -.                                  ",
"                                      4.W T T T L t.b.m.-.-.                                    ",
"                                      4.a.T T T ! u.m.V.&.-.                                    ",
"                                      4.W T T K r.b.M.V.-.-.                                    ",
"                                    0...W K K T h.c.x.x.&.;.                                    ",
"                                    4.W T T m K -.#.l A -.                                      ",
"                                  0.o.W T T K K $ o n 9.                                        ",
"                                  5.a.T T T L K $   $ ' 1.                                      ",
"                                  5.a.T T T T T $ X $ z &.                                      ",
"                                  4.W T T T T T ' $.n m =.                                      ",
"                                  5.W T K T T T | { I K =.                                      ",
"                                2.| E Q ` L T T | :.I z ) 2.                                    ",
"                                5.a.L ` *.K T T ~ [ B z m =.                                    ",
"                                5.a.T ` *.K K T } 4.U z K =.                                    ",
"                                2.a.Q 2.*.K K T ! ` H z K =.                                    ",
"                                5.a.! 8.*.K K T o.6.U z m =.                                    ",
"                                5.E ! 8.*.K K L Q U v z K =.                                    ",
"                                2.T ! =.P K K L @.e.` z m =.                                    ",
"                                2.L ` =.T T K K h + a z m =.                                    ",
"                                =.K K R T T T T $ X p K z H ;.                                  ",
"                                ;.] v.T T T T T %   p m m i.w.                                  ",
"                                  i.N.N.j.T T p   X X g z v.i.8.                                ",
"                                  i.N.v.h.v.K & 7 7.9.) z l.i.                                  ",
"                                  w.z.k.T T K & t 7.8.` K z -.                                  ",
"                                  4.} u.^ T K b r u u Z K z ,.                                  ",
"                                6.W T g.j.K L Z r u u Z K z -.                                  ",
"                                2.a.K K K K P b r u u C K z ,.                                  ",
"                              0.3.E K K L T Z r u u u u N z ] 0.                                ",
"                              2.a.T T T T T Z r e e r u N K z ,.                                ",
"                              2.a.T T T T J C r 6 < 0 r N K z ,.                                ",
"                            0.@.E T K K E Z r r 6 < 0 y N K z ,.                                ",
"                            2.a.L L K L J b r u 6 < 0 q N K z 2.                                ",
"                            2.T K K L L N 0 r e 3 < 0 r j K z ' 8.                              ",
"                          0.o.L K T T K h 0 r 6 i < 0 r 3 z K z 2.                              ",
"                          0.a.T T T T z 2 q r 7 i < q y 3 v K z =.                              ",
"                          0.W T T T L z 2 q u 7 i < r u 3 x z K ) 8.                            ",
"                        0.} T T T T K d * 0 1 * i < 0 8 h s z K z 2.                            ",
"                        0.s.T T T K z & 2 q 7 s s < 0 * i i z K z 2.                            ",
"                        f.W T T T K m i 2 q 7 i i < q 3 i i d K m I 8.                          ",
"                        s.T T T L K v i 2 q 7 i i 6 r 4 i i i m K z 8.                          ",
"                      ~ E T T L K K m i 2 q 7 i i < r 4 i i i d m z                             ",
"                      s.T T L K K K z i 2 q 8 p i < r 4 i i i i m m v                           ",
"                    ~ T T T K K L K m v 2 q w @ = > r 3 i i i i m K z                           ",
"                  ~ W T K K K T E L K v = : : = = : , : $ i g z K m z                           ",
"                  s.T T T T T T T L m K g O O = = = O O O = @ z m K m v                         ",
"                f.L K K K K K K K K K m d = = = = = = = = = i z z z z z x                       ",
"              6 ; ; ; ; o = = = = = = = = = = = = = = = = = = @ = = = = = <                     ",
"                        ; ; ; ; ; ; = ; ; ; ; ; ; ; ; ; ; ; ; ; ; ; 8.                          ",
"                            8.                                                                  ",
"                                                                                                ",
"                                                                                                ",
"                                                                                                ",
"                                                                                                ",
"                                                                                                "
};
